<?xml version="1.0" standalone="no"?>
<!DOCTYPE svg PUBLIC "-//W3C//DTD SVG 1.1//EN" "http://www.w3.org/Graphics/SVG/1.1/DTD/svg11.dtd" >
<svg xmlns="http://www.w3.org/2000/svg" xmlns:xlink="http://www.w3.org/1999/xlink" version="1.1">
<metadata>
Created by FontForge 20201107 at Fri Aug 31 18:13:39 2018
 By www-data
Copyright (c) 2018 by joorgemoron@gmail.com. All rights reserved.
</metadata>
<defs>
<font id="JMHTypewriter-Bold" horiz-adv-x="684" >
  <font-face 
    font-family="JMH Typewriter"
    font-weight="700"
    font-stretch="normal"
    units-per-em="1024"
    panose-1="2 0 8 6 0 0 0 2 0 4"
    ascent="819"
    descent="-205"
    x-height="508"
    cap-height="722"
    bbox="-83 -426 979 976"
    underline-thickness="0"
    underline-position="100"
    unicode-range="U+000D-EFF9"
  />
<missing-glyph horiz-adv-x="1024" 
 />
    <glyph glyph-name=".notdef" horiz-adv-x="1024" 
 />
    <glyph glyph-name=".null" horiz-adv-x="0" 
 />
    <glyph glyph-name="nonmarkingreturn" unicode="&#xd;" horiz-adv-x="1024" 
 />
    <glyph glyph-name="NULL" horiz-adv-x="0" 
 />
    <glyph glyph-name="NULL" horiz-adv-x="0" 
 />
    <glyph glyph-name="space" unicode=" " horiz-adv-x="440" 
 />
    <glyph glyph-name="exclam" unicode="!" horiz-adv-x="212" 
d="M48 185h21v11h57v-11h9v-10h11v-12h11v-10h11v-11h10v-21h11v-52h-11v-43h-10v-10h-11v-11h-22v-10h-31v-11h-35v11h-21v10h-10v11h-11v10h-10v127h10v10h11v12h10v10zM52 755l8 3v20h75v-9h22v-11h11v-22h10v-31h11v-64h-11v-73h-10v-74h-11v-86h-11v-191h-11v-31h-21
v-11h-34v11h-11v11h-9v53h-12v201h-10v84h-11v33h-10v148h10v31h11v11h17z" />
    <glyph glyph-name="quotedbl" unicode="&#x22;" horiz-adv-x="394" 
d="M29 801h11v9h88v-9h21v-11h10v-106h-10v-84h-11v-117h-10v-11h-11v-10h-45v10h-11v11h-10v53h-11v74h-11v74h-9v106h9v11zM234 812l21 -9v7h76v-9h21v-11h11v-116h-11v-159h-10v-32h-11v-11h-10v-10h-46v10h-10v11h-10v53h-12v95h-9v64h-11v95h11v22z" />
    <glyph glyph-name="numbersign" unicode="#" horiz-adv-x="662" 
d="M459 769h20v9h25v-9h9v-11h11v-22h11v-51h-11v-53h-11v-22h-9v-42h-12v-53h-10v-43h107v-12h21v-10h10v-74h-10v-10h-64v-10h-24v10h-30v-10h-41v-11h-11v-43h-10v-22h21v-10h106v-12h11v-10h9v-62h-9v-11h-22v-11h-116v-9h-22v-33h-11v-31h-10v-65h-12v-73h-9v-33h-11
v-31h-11v-22h-11v-9h-44v9h-10v106h10v42h11v53h10v31h10v54h11v32h10v54h12v53h9v42h12v53h10v52h11v43h11v63h11v53h9v54h12v64h10v42h11v11zM289 758h21v11h45v-11h11v-105h-11v-43h-11v-32h-11v-43h-9v-52h-11v-64h-11v-31h-10v-43h-11v-53h-10v-53h-12v-42h-10v-42h-11
v-55h-10v-42h-11v-63h-10v-64h-12v-42h-9v-22h-12v-9h-10v-12h-23v12h-21v20h-12v73h12v43h10v52h11v33h10v42h10v32h12v2h-12v9h-126v11h-11v83h11v12h138v10h20v43h11v32h11v1h-42v10h-96v10h-11v84h11v12h147v10h12v43h10v32h11v63h11v42h11v54h10v42z" />
    <glyph glyph-name="dollar" unicode="$" horiz-adv-x="516" 
d="M213 842h9v12h57v-12h9v-73h12v-11h10v-11h32v-11h31v-10h32v-10h12v-11h9v-11h11v-20h11v-139h-11v-10h-20v-10h-25v10h-32v10h-9v22h-12v64h-10v11h-11v9h-43v12h-39v-12h-21v-9h-22v-11h-21v-11h-10v-11h-11v-21h-10v-32h-11v-1h11v-9h10v-22h11v-11h10v-11h21v-10h33
v-10h53v-12h31v-10h32v-11h31v-10h22v-11h10v-10h12v-11h20v-21h11v-11h11v-31h10v-42h11v-53h-11v-53h-10v-22h-11v-21h-11v-21h-11v-11h-9v-11h-22v-9h-10v-12h-21v-10h-22v-11h-32v-10h-10v-10h-12v-96h-9v-84h-11v-22h-46v10h-9v12h-11v180h-22v10h-43v10h-52v11h-21v10
h-22v12h-9v20h-12v137h12v32h21v12h23v-12h21v-22h10v-31h12v-21h10v-10h11v-11h10v-10h11v-12h22v-10h103v10h21v12h21v10h10v11h12v10h9v21h11v44h-11v10h-9v11h-12v10h-10v11h-21v11h-33v11h-31v10h-31v11h-42v10h-22v10h-21v12h-22v9h-11v11h-10v11h-12v11h-9v21h-10v22
h-12v147h12v21h10v21h9v12h12v20h10v11h22v11h11v10h21v10h22v11h20v11h11v75h11v9z" />
    <glyph glyph-name="percent" unicode="%" 
d="M429 90h12v-11h9v-11h12v-10h19v-12h20v12h31v10h22v22h11v10h-11v11h-10v22h-12v10h-70v-10h-12v-11h-9v-22h-12v-10zM441 58v21h-7zM450 47v21h-6zM462 37v21h-7zM481 25v21h-6zM561 111l-7 21v-21h7zM539 143l-7 21v-21h7zM416 227h12v12h129v-12h31v-10h11v-11h11
v-10h11v-21h9v-33h11v-104h-11v-22h-9v-21h-11v-11h-11v-10h-11v-12h-21v-9h-21v-11h-98v11h-20v9h-22v12h-11v10h-11v21h-11v21h-10v137h10v22h11v21h11v11h21v10zM226 663h-12v12h-10v10h-21v9h-29v-9h-22v-10h-10v-12h-11v-22h-10v0h10v-21h11v-11h22v-11h39v11h21v11h10
v11h12v32zM235 632v-1l7 21h-16v-20h9zM221 675l-7 20v-20h7zM211 685l-7 21v-21h7zM190 694l-7 21v-21h7zM122 589v20h-7zM144 577v21h-7zM109 790h32v10h44v-10h54v-12h31v-9h53v-11h32v-11h10v-72h-10v-12h-42v-10h-10v-63h-11v-22h-11v-22h-11v-11h-10v-10h-12v-10h-20
v-11h-22v-10h-87v10h-22v11h-20v10h-11v10h-11v11h-9v11h-12v33h-10v115h10v31h12v11h9v11h11v11h11v9h32v12zM448 778h11v12h55v-12h10v-84h-10v-19h-11v-22h-10v-32h-12v-11h-9v-32h-10v-21h-12v-22h-9v-31h-12v-21h-10v-32h-11v-10h-11v-33h-11v-32h-9v-20h-12v-32h-10
v-22h-11v-21h-10v-22h-11v-20h-10v-32h-10v-21h-11v-31h-11v-22h-11v-33h-10v-31h-12v-31h-9v-22h-11v-32h-11v-22h-11v-9h-10v-11h-46v11h-9v115h9v22h12v20h10v11h11v42h10v22h11v21h10v21h12v31h9v22h11v32h11v22h11v31h11v22h11v21h9v21h11v21h11v32h9v21h12v33h10v31
h11v9h10v33h11v22h11v21h11v22h10v31h12v31h9v33h11v9z" />
    <glyph glyph-name="ampersand" unicode="&#x26;" horiz-adv-x="686" 
d="M123 227h9v-31h12v-21h10v-12h11v-10h10v-21h21v-11h12v-11h31v-11h82v11h33v11h9v11h22v10h11v22h-11v22h-10v21h-12v21h-9v11h-11v20h-11v12h-11v10h-10v21h-12v11h-9v11h-11v11h-11v10h-9v11h-51v-11h-12v-10h-21v-11h-10v-11h-11v-11h-10v-21h-12v-31h-9v-23z
M406 143v-11l7 21h-17v-10h10zM165 132v21h-6zM196 100v21h-6zM208 90v20h-7zM239 78v21h-7zM296 324l-6 20v-20h6zM361 239l-7 20v-20h7zM339 271l-7 21v-21h7zM328 281l-7 21v-21h7zM306 313l-7 21v-21h7zM265 356l-6 20v-20h6zM285 335l-6 21v-21h6zM275 345l-7 21v-21h7
zM154 142v21h-7zM216 736h52v11h66v-11h43v-10h11v-10h22v-22h9v-84h-9v-11h-22v-9h-45v9h-11v11h-21v11h-50v-11h-22v-11h-9v-9h-12v-23h12v-22h9v-9h11v-22h11v-11h11v-11h9v-10h11v-10h11v-12h10v-10h11v-11h10v-10h12v-21h10v-11h11v-10h10v-11h11v-21h10v-12h12v-9h9
v-11h11v-22h11v-21h9v-10h20v85h10v21h12v11h139v-106h-21v-10h-20v-12h-22v-9h-11v-33h-10v-31h-11v-22h-10v-21h-12v-11h30v10h21v11h45v-11h21v-21h12v-52h-12v-43h-10v-10h-22v-11h-20v-10h-56v10h-31v11h-12v10h-10v12h-40v-12h-20v-10h-22v-11h-21v-10h-33v-11h-129
v11h-32v10h-21v11h-22v10h-20v12h-11v10h-11v10h-9v11h-12v22h-10v20h-11v22h-11v22h-11v168h11v20h11v22h11v11h10v11h12v10h9v11h11v10h20v11h22v10h21v22h-10v12h-11v21h-11v31h-11v116h11v21h11v21h11v11h10v11h21v11h12v10h21v10z" />
    <glyph glyph-name="quotesingle" unicode="'" horiz-adv-x="200" 
d="M38 808h31v12h45v-12h32v-10h22v-21h9v-74h-9v-64h-11v-169h-11v-11h-11v-10h-66v10h-10v11h-11v64h-10v105h-12v54h-9v94h9v11h12v10z" />
    <glyph glyph-name="parenleft" unicode="(" horiz-adv-x="382" 
d="M264 790h10v10h56v-10h11v-12h11v-72h-11v-21h-21v-10h-12v-12h-9v-10h-12v-12h-10v-9h-11v-11h-10v-11h-10v-11h-11v-9h-10v-22h-11v-11h-10v-22h-12v-20h-10v-21h-12v-21h-9v-43h-11v-54h-11v-128h11v-52h11v-21h9v-33h12v-21h10v-22h12v-9h10v-22h11v-10h10v-12h11
v-21h10v-10h10v-11h11v-10h22v-11h9v-10h12v-22h10v-11h11v-82h-21v-12h-46v12h-10v9h-11v11h-10v11h-10v9h-12v11h-9v11h-11v11h-11v11h-11v11h-10v9h-12v12h-9v10h-11v21h-11v11h-11v22h-10v20h-11v11h-10v10h-10v21h-11v33h-10v42h-12v22h-10v105h-11v74h11v74h10v42h12
v33h10v11h11v31h10v9h10v22h11v22h10v11h11v10h11v11h11v10h9v21h12v11h10v11h11v11h11v10h11v10h9v22h12v11h10v9h21v12z" />
    <glyph glyph-name="parenright" unicode=")" horiz-adv-x="370" 
d="M19 800h10v11h55v-11h12v-10h10v-12h11v-9h11v-11h11v-11h21v-21h10v-10h12v-11h9v-11h10v-11h12v-9h9v-22h12v-11h10v-10h11v-22h11v-11h11v-22h9v-19h12v-12h10v-20h11v-43h10v-64h11v-221h-11v-33h-10v-21h-11v-32h-10v-20h-12v-22h-9v-11h-11v-20h-11v-12h-11v-21
h-10v-10h-12v-11h-9v-10h-12v-12h-10v-9h-9v-11h-12v-11h-10v-11h-11v-11h-10v-11h-11v-9h-11v-22h-11v-9h-31v-12h-35v12h-11v20h-10v52h10v21h11v10h11v12h11v10h21v11h10v10h11v21h11v12h11v9h9v22h12v11h10v11h11v20h10v22h10v21h12v22h9v42h11v41h11v130h-11v31h-11v42
h-9v22h-12v32h-10v20h-10v22h-11v11h-10v22h-12v9h-9v11h-11v11h-11v11h-11v21h-10v10h-21v12h-11v10h-11v9h-11v12h-10v94z" />
    <glyph glyph-name="asterisk" unicode="*" horiz-adv-x="652" 
d="M268 790h11v10h76v-10h21v-32h12v-52h-12v-43h-10v-73h-11v-55h-10v-10h-11v-10h-24v10h-22v21h-9v75h-11v54h-11v103h11v12zM246 492h46v-10h10v-22h10v-52h-10v-20h-10v-12h-11v-20h-10v-21h-12v-22h-9v-21h-12v-33h-10v-20h-21v-11h-56v11h-21v11h-10v31h-12v53h12v21
h10v10h9v11h12v11h10v10h11v11h11v10h11v11h10v10h11v11h10v10h12v12h9v20zM35 631h10v10h76v-10h22v-11h21v-11h22v-11h21v-10h10v-12h33v-9h21v-10h10v-74h-10v-22h-34v12h-43v10h-86v11h-42v10h-31v21h-12v84h12v22zM501 644l11 -9v6h65v-10h11v-11h11v-22h11v-73h-11
v-21h-11v-10h-74v-11h-53v-10h-42v-12h-22v-1h11v-10h11v-11h11v-10h9v-11h12v-10h10v-11h10v-10h12v-11h9v-11h12v-10h10v-21h11v-63h-11v-12h-10v-20h-21v-11h-57v11h-9v11h-12v21h-10v10h-11v21h-10v22h-11v32h-10v10h-12v22h-9v20h-11v52h11v32h21v75h31v9h42v12h12v10
h20v11h21v11h22v24z" />
    <glyph glyph-name="plus" unicode="+" horiz-adv-x="740" 
d="M321 706h22v9h34v-9h10v-12h11v-10h10v-201h-10v-33h10v-10h11v-12h255v-10h9v-11h11v-73h-11v-21h-42v-10h-23v10h-40v-10h-24v10h-125v-10h-21v-76h-10v-42h10v-138h-10v-10h-11v-10h-22v-11h-22v11h-22v20h-11v245h-10v11h-43v10h-223v21h-9v53h9v20h11v11h65v10h117
v-10h20v10h63v266h11v12z" />
    <glyph glyph-name="comma" unicode="," horiz-adv-x="212" 
d="M69 130h22v12h44v-12h11v-10h22v-12h10v-20h11v-159h-11v-21h-10v-10h-11v-11h-11v-11h-11v-11h-9v-9h-12v-11h-10v-11h-11v-10h-20v-12h-25v12h-21v21h-10v52h10v21h11v10h10v21h12v11h9v11h10v1h-10v11h-9v10h-12v32h-10v63h10v32h21v10z" />
    <glyph glyph-name="hyphen" unicode="-" horiz-adv-x="470" 
d="M31 387h31v11h120v-11h136v11h96v-11h12v-10h10v-94h-10v-22h-43v-10h-340v10h-12v11h-10v105h10v10z" />
    <glyph glyph-name="period" unicode="." horiz-adv-x="236" 
d="M61 130h42v12h23v-12h42v-10h12v-12h10v-20h11v-22h11v-52h-11v-31h-11v-11h-10v-10h-12v-11h-9v-10h-11v-12h-45v12h-31v10h-21v11h-12v10h-10v21h-12v63h12v43h10v9h12v12h10v10z" />
    <glyph glyph-name="slash" unicode="/" horiz-adv-x="438" 
d="M317 798h11v10h56v-10h10v-11h11v-84h-11v-21h-10v-22h-11v-21h-10v-31h-12v-32h-10v-21h-11v-32h-10v-22h-10v-21h-11v-41h-10v-33h-11v-31h-10v-21h-12v-33h-9v-31h-12v-22h-10v-31h-11v-33h-11v-21h-11v-41h-9v-22h-12v-21h-10v-42h-10v-33h-11v-32h-10v-42h-12v-43
h-9v-10h-11v-11h-32v-11h-25v11h-9v11h-12v73h12v42h9v31h11v33h11v32h11v21h11v21h11v33h9v31h12v31h10v33h11v22h10v21h10v31h11v43h10v31h11v21h11v33h11v31h10v31h12v33h9v21h11v32h11v32h11v31h9v33h12v20h10v33h10v21z" />
    <glyph glyph-name="zero" unicode="0" horiz-adv-x="550" 
d="M403 441h11v1h-11v63h-10v42h-12v33h-10v22h-9v21h-12v10h-10v11h-11v10h-21v10h-22v11h-40v-11h-20v-10h-22v-10h-9v-11h-12v-10h-10v-21h-11v-22h-10v-33h-11v-42h-11v-84h-11v-96h11v-65h11v-42h11v-31h10v-12h11v-21h10v-10h12v-11h9v-10h22v-12h60v12h22v10h21v11
h11v10h10v11h12v10h9v33h10v20h12v43h10v170zM403 336h18l-6 15l6 16h-18v-31zM346 644l-6 21v-21h6zM335 654l-6 21v-21h6zM314 664l-6 21v-21h6zM293 675l-7 21v-21h7zM226 91v20h-7zM183 124v20h-6zM195 112v21h-7zM204 102v21h-7zM162 155v20h-7zM357 633l-7 21v-21h7z
M181 770h31v11h109v-11h42v-11h12v-11h20v-9h11v-12h10v-10h12v-11h9v-11h11v-9h11v-22h11v-32h9v-22h12v-52h10v-65h11v-221h-11v-64h-10v-32h-12v-31h-9v-11h-11v-22h-11v-20h-11v-11h-9v-11h-12v-21h-21v-10h-11v-12h-9v-10h-12v-9h-42v-12h-77v12h-53v9h-21v10h-22v12
h-9v10h-22v11h-11v10h-10v11h-11v22h-10v21h-12v21h-10v31h-9v32h-12v75h-10v190h10v95h12v32h9v32h10v21h12v22h10v11h11v20h10v11h11v10h11v12h11v9h9v11h33v11z" />
    <glyph glyph-name="one" unicode="1" horiz-adv-x="516" 
d="M159 770h54v11h55v-11h11v-11h9v-561h-9v-44h9v-21h12v-10h10v-12h159v-9h11v-94h-416v9h-22v85h12v9h19v12h25v-12h61v12h21v10h11v128h-11v85h11v85h-11v137h11v76h-11v10h-50v-10h-97v20h-12v75h12v9h9v11h117v11z" />
    <glyph glyph-name="two" unicode="2" horiz-adv-x="528" 
d="M159 770h44v11h107v-11h32v-11h21v-11h11v-9h11v-12h11v-10h10v-11h11v-11h10v-9h10v-22h11v-32h10v-127h-10v-31h-11v-32h-10v-21h-10v-12h-11v-9h-10v-11h-11v-22h-11v-10h-11v-12h-9v-9h-12v-22h-10v-9h-11v-12h-11v-10h-11v-22h-9v-10h-12v-10h-10v-12h-10v-10h-11
v-11h-10v-10h-12v-11h-9v-11h-11v-10h-11v-21h-11v-12h231v11h21v10h35v-10h21v-84h-11v-33h-10v-10h-22v-9h-119v9h-71v-9h-24v9h-18v-9h-173v9h-11v10h-10v84h10v22h11v11h11v10h11v11h9v10h12v12h10v10h10v11h11v20h10v12h12v9h9v11h11v11h11v11h11v10h10v11h12v22h9v10
h12v11h10v10h11v11h10v20h10v11h11v10h10v22h11v11h10v21h12v22h10v31h11v31h10v56h-10v21h-11v10h-10v11h-12v10h-10v10h-32v11h-60v-11h-11v-10h-11v-10h-10v-11h-12v-10h-9v-54h-12v-22h-10v-9h-11v-12h-54v12h-11v9h-11v85h11v32h11v11h9v20h12v11h10v11h10v10h11v12h10
v9h12v11h20v11z" />
    <glyph glyph-name="three" unicode="3" horiz-adv-x="528" 
d="M170 759h54v11h34v-11h52v-11h32v-9h21v-12h22v-10h11v-11h10v-11h11v-20h10v-11h10v-42h11v-137h-11v-33h-10v-21h-10v-10h-11v-12h-10v-1h10v-10h11v-11h10v-10h10v-10h11v-11h10v-21h12v-22h10v-42h11v-105h-11v-32h-10v-31h-12v-22h-10v-21h-11v-11h-10v-10h-10v-12
h-11v-10h-10v-9h-22v-12h-32v-10h-32v-11h-171v11h-33v10h-20v12h-21v9h-22v10h-11v22h-10v53h10v9h11v12h45v-12h21v-9h21v-11h43v-11h92v11h32v11h22v9h10v12h11v10h10v21h11v21h11v33h11v43h-11v32h-11v10h-11v21h-21v11h-10v11h-22v9h-85v12h-9v10h-12v74h12v10h62v11
h32v11h22v20h10v22h11v22h10v32h-10v22h-11v20h-10v12h-12v10h-10v11h-11v10h-81v-10h-11v-11h-11v-10h-10v-21h-12v-22h-9v-11h-12v-11h-66v11h-9v84h9v33h12v9h10v22h10v10h21v12h21v9h22v11z" />
    <glyph glyph-name="four" unicode="4" horiz-adv-x="618" 
d="M267 791h11v11h22v-11h33v-10h10v-95h-10v-22h-11v-20h-10v-21h-12v-21h-9v-11h-11v-33h-11v-20h-9v-22h-12v-21h-10v-21h-11v-22h-11v-21h-11v-22h-9v-20h-12v-22h-10v-10h-11v-21h-10v-22h-11v-9h-11v-22h-9v-12h20v-11h178v11h31v21h12v192h10v9h11v12h45v-12h11v-9h9
v-202h11v-11h11v-11h85v-11h10v-21h12v-52h-12v-10h-10v-10h-85v-11h-11v-96h-11v-41h-9v-12h-11v-10h-45v10h-21v31h-12v129h-297v10h-21v21h-10v116h10v32h12v11h9v21h11v20h11v11h11v22h10v21h12v21h9v22h11v31h11v22h9v21h12v21h10v21h11v32h10v11h11v32h10v31h12v21h10
v21h11v22h10v11h11v10z" />
    <glyph glyph-name="five" unicode="5" horiz-adv-x="528" 
d="M117 759h256v11h44v-11h22v-95h-12v-10h-21v-10h-212v-11h-10v-42h-11v-54h21v-11h138v-11h22v-10h20v-12h12v-9h20v-11h11v-11h10v-11h12v-21h9v-10h11v-22h11v-21h11v-42h10v-94h-10v-65h-11v-20h-11v-22h-11v-10h-9v-32h-12v-11h-10v-11h-11v-21h-10v-10h-22v-12h-9
v-10h-22v-9h-21v-12h-43v-10h-172v10h-42v12h-22v9h-10v10h-11v75h11v9h66v-9h42v-11h73v11h31v9h21v12h22v10h20v11h11v10h11v11h10v22h12v10h9v21h12v53h10v12h-10v42h-12v20h-9v12h-12v21h-21v11h-11v11h-11v9h-21v12h-103v-12h-77v22h-10v169h10v148h21v11z" />
    <glyph glyph-name="six" unicode="6" horiz-adv-x="528" 
d="M130 228h11v-31h11v-22h11v-21h10v-10h11v-11h10v-10h12v-12h10v-9h31v-11h19v11h31v9h22v12h11v10h10v11h12v21h9v10h12v33h10v106h-10v11h-12v20h-9v12h-12v10h-21v11h-31v11h-41v-11h-31v-11h-22v-10h-10v-12h-11v-9h-10v-11h-11v-20h-11v-22h-11v-55zM173 124v20h-7z
M184 112v21h-7zM194 102v21h-6zM206 91v20h-7zM216 81v21h-7zM247 70v21h-7zM379 325l-6 21v-21h6zM368 345l-7 21v-21h7zM358 357l-6 20v-20h6zM347 367l-7 21v-21h7zM325 378l-6 21v-21h6zM294 389l-6 20v-20h6zM288 781h64v10h44v-10h21v-95h-21v-11h-53v-11h-42v-10h-22
v-10h-11v-11h-21v-10h-10v-12h-10v-9h-11v-22h-10v-11h-12v-11h-10v-20h-11v-22h-10v-21h-11v-21h-11v-23h9v11h9v11h33v11h22v9h31v12h87v-12h33v-9h9v-11h22v-11h21v-11h10v-10h12v-11h9v-10h11v-33h11v-10h11v-42h10v-116h-10v-63h-11v-32h-11v-21h-11v-22h-9v-11h-12
v-21h-21v-10h-20v-12h-12v-10h-9v-9h-22v-12h-42v-10h-87v10h-43v12h-21v9h-22v10h-11v12h-10v10h-11v21h-10v11h-12v22h-9v21h-10v21h-12v42h-10v54h-11v179h11v53h10v42h12v31h10v33h9v21h12v22h10v10h11v21h10v11h11v11h11v11h11v9h9v11h12v11h10v10h22v12h11v9h31v11h21
v11h22v11z" />
    <glyph glyph-name="seven" unicode="7" horiz-adv-x="504" 
d="M31 748h21v11h45v-11h104v11h235v-11h12v-9h9v-12h11v-104h-11v-21h-9v-22h-12v-22h-10v-42h-11v-31h-10v-22h-11v-21h-10v-21h-11v-21h-11v-22h-10v-42h-11v-31h-10v-12h-12v-21h-9v-31h-11v-33h-11v-32h-11v-42h-9v-10h-12v-54h-10v-21h-12v-32h-10v-9h-9v-22h-12v-11
h-21v-10h-45v10h-11v11h-9v94h9v22h11v21h11v31h11v21h9v33h12v20h10v21h11v33h10v21h10v32h12v21h10v31h11v21h10v33h11v21h10v11h12v32h9v32h12v21h10v21h11v21h10v33h-307v11h-11v20h-10v75h10v9z" />
    <glyph glyph-name="eight" unicode="8" horiz-adv-x="550" 
d="M130 197h11v-22h11v-21h10v-10h11v-11h10v-10h32v-12h31v-9h31v9h31v12h21v10h21v11h12v10h9v21h11v12h11v74h-11v22h-11v22h-9v9h-12v11h-21v11h-21v9h-22v12h-40v-12h-42v-9h-21v-11h-10v-11h-11v-9h-10v-22h-11v-22h-11v-64zM403 219v-11l7 20h-17v-9h10zM119 229h11
v11h-11v-11zM183 102v21h-6zM215 91v20h-6zM246 81v21h-6zM314 345l-6 21v-21h6zM368 314l-6 21v-21h6zM357 325l-7 21v-21h7zM335 336l-6 21v-21h6zM162 124v20h-7zM293 357l-7 20v-20h7zM173 112v21h-7zM371 623h-9v10h-12v21h-10v10h-21v11h-22v11h-60v-11h-22v-11h-20
v-10h-12v-10h-10v-11h-11v-31h-10v-34h10v-22h11v-9h10v-11h12v-11h9v-10h22v-12h31v-9h29v9h22v12h21v10h21v22h12v21h9v65zM382 580v-12l7 21h-18v-9h11zM368 633l-6 21v-21h6zM346 664l-6 21v-21h6zM326 675l-7 21v-21h7zM304 686l-7 21v-21h7zM173 516v21h-7zM226 473
v20h-7zM195 494v21h-7zM204 484v21h-7zM183 506v20h-6zM257 463v21h-7zM181 781h31v10h109v-10h42v-11h21v-11h22v-11h10v-9h12v-22h9v-11h11v-20h11v-22h11v-148h-11v-21h-11v-21h-11v-11h-9v-11h-12v-10h-10v-11h-10v-1h10v-10h22v-12h9v-10h11v-11h11v-10h11v-21h9v-10
h12v-21h10v-43h11v-106h-11v-42h-10v-22h-12v-9h-9v-11h-11v-11h-11v-11h-11v-10h-9v-11h-12v-10h-10v-12h-22v-10h-21v-9h-64v-12h-66v12h-73v9h-21v10h-22v12h-11v10h-10v11h-11v10h-10v11h-11v22h-11v21h-9v10h-12v53h-10v73h10v53h12v22h9v21h11v11h11v10h10v10h21v11
h11v10h11v12h11v1h-11v10h-11v11h-21v21h-11v11h-10v31h-11v33h-11v94h11v32h11v31h10v22h11v10h10v12h11v9h22v11h9v11h33v11z" />
    <glyph glyph-name="nine" unicode="9" horiz-adv-x="516" 
d="M120 505h10v-43h11v-11h10v-21h11v-10h10v-12h21v-10h22v-11h60v11h22v10h11v12h10v10h21v21h12v11h9v11h11v96h-11v22h-9v20h-12v22h-10v11h-11v10h-21v10h-31v11h-30v-11h-21v-10h-22v-10h-21v-11h-10v-10h-11v-21h-10v-11h-11v-65h-10v-21zM141 430v21h-6zM162 399v21
h-7zM172 388v20h-6zM193 377v21h-6zM215 366v21h-7zM336 644l-7 21v-21h7zM324 654l-6 21v-21h6zM304 664l-7 21v-21h7zM272 675l-6 21v-21h6zM159 770h52v11h77v-11h33v-11h32v-11h20v-9h11v-12h21v-10h12v-22h9v-9h11v-22h11v-21h11v-21h10v-54h11v-232h-11v-43h-10v-42
h-11v-43h-11v-21h-11v-21h-9v-10h-12v-22h-10v-10h-11v-21h-11v-11h-9v-11h-11v-11h-11v-10h-11v-11h-10v-10h-21v-12h-21v-10h-22v-9h-21v-12h-32v-10h-42v-11h-34v11h-43v22h-12v50h12v22h21v11h43v11h31v9h31v12h22v10h21v21h12v11h21v10h10v12h11v21h10v20h11v21h10v22
h12v21h9v13h-18v-12h-21v-10h-21v-11h-129v11h-34v10h-20v12h-11v9h-11v11h-10v11h-12v9h-9v22h-11v22h-11v20h-9v33h-12v158h12v32h9v32h11v22h11v9h9v22h12v10h21v12h11v9h20v11h22v11z" />
    <glyph glyph-name="colon" unicode=":" horiz-adv-x="190" 
d="M39 117h19v11h46v-11h31v-9h21v-22h12v-84h-12v-10h-10v-12h-11v-9h-87v9h-9v12h-12v31h-10v52h10v21h12v21zM39 414h9v11h77v-11h10v-10h21v-32h12v-52h-12v-31h-10v-12h-21v-10h-77v10h-9v12h-12v31h-10v52h10v32h12v10z" />
    <glyph glyph-name="semicolon" unicode=";" horiz-adv-x="231" 
d="M77 128q3 0 5.5 -0.5t4.5 -0.5q1 0 1 1v12h28l-4 -6q5 5 5.5 6t1.5 1q9 0 11 -13q4 0 9.5 -1t10.5 -4.5t8.5 -10t3.5 -17.5q4 11 4 19l6 -11v3q1 0 1 0.5t1 0.5q7 -3 9 -9t1 -13q2 0 9 7v-66q4 4 6.5 7t4.5 6v-14q0 -8 -0.5 -20.5t1.5 -14.5q0 -27 -3.5 -32t-9.5 -5
q-3 -8 -8 -10q0 -8 -2 -15t-10 -7q-2 -10 -9 -11v-12l-10 -7.5t-3 -1.5q-1 -10 -10 -11q-2 -11 -8 -11l-5 1l5 7q-4 -4 -6 -7.5t-7 -7.5v-5q-6 -7 -8 -8t-4 -1h-1q-4 -8 -7 -9t-7 -1q0 -12 -14 -12h-5q-2 0 -2.5 0.5t-1.5 0.5h-3q-5 -1 -11 2t-8 20q-2 -8 -5 -9.5t-6 -1.5
v25q0 5 0.5 11t-1.5 8q0 26 7 33q-2 11 2 11.5t12 0.5h1q2 14 10 14h1q2 6 4 7t7 1v3q2 3 6 7q-1 -4 3 -19v17v3q1 0 1 0.5t1 0.5h-2q0 10 1 13v2q-4 1 -6 3t-4 9v-3q-5 0 -9 3t-4 21v8q-2 -15 -3 -17.5t-6 -2.5v47l2 13q-9 -11 -13 -18q-1 4 -1 14q0 15 3.5 19.5t8.5 4.5
v16q0 8 2 18t8 10q2 -2 1.5 -5t-1.5 -6l3.5 14t6.5 6zM204 54q2 0 5.5 -2t-5.5 -13v15zM88 -41v-1l-3 -1q0 2 3 2zM161 118q4 -1 5 -4zM186 83q-1 1 -2 1zM64 426q1 11 10 14v9h42l-5 -6q5 5 5.5 6t1.5 1q9 0 11 -11h13q4 0 8 -1t6 -9q3 -1 5 -3t4 -8l10 -5q0 -5 8 -5v-57
q0 -9 0.5 -18.5t0.5 -18.5q0 -12 -1 -17.5t-2.5 -7t-3.5 -0.5t-4 1q-3 -12 -7 -12q-1 -6 -3.5 -7.5t-7.5 -1.5q0 -10 -5 -10q-2 0 -2 4v-14q-4 0 -10 -0.5t-10 -0.5h-15h-1q-2 -7 -7 -8.5t-10 0.5h-3q-7 0 -9 -1q-8 0 -9 12q-2 -3 -3 -3l-4 1l5 6q-7 -8 -9.5 -5t-4.5 9
q-8 0 -10 10q-4 1 -7.5 5t-4.5 17q-3 1 -5 6t-2 21v8q-2 -8 -3.5 -12t-6.5 -4v27q-1 3 -1 7v8q0 14 5 21q-6 8 -6.5 14.5t3 11t9 7.5t10.5 3q2 8 6.5 9t7.5 0q4 4 6.5 5.5t4.5 2.5zM165 396q2 7 2.5 13t-2.5 8q0 -2 0.5 -5t0.5 -6q0 -1 -0.5 -5t-0.5 -5zM56 270q0 -7 1 -9
q0 2 -0.5 4.5t-0.5 4.5zM166 295v2v-4v2z" />
    <glyph glyph-name="less" unicode="&#x3c;" horiz-adv-x="352" 
d="M15 264l4 10v71l-4 10l228 169l4 -11l27 14l10 -18l3 3q1 1 2 1l45 -76l-10 -5l4 -8l-6 -4l4 -10l-62 -36l-9 9l-87 -74l86 -73l8 10l64 -38l-4 -10l6 -3l-4 -8l10 -5l-45 -76l-5 3l-11 -17l-26 14q-4 -10 -4 -11z" />
    <glyph glyph-name="equal" unicode="=" horiz-adv-x="618" 
d="M164 501v-10h167v10h78v-10h158v-11h11v-74h-11v-21h-64v-10h-24v10h-30v-10h-65v10h-30v-10h-56v10h-18v-10h-224v10h-22v21h-11v63h11v11h11v11h64v10h55zM196 342v-11h371v-22h11v-72h-11v-12h-287v-10h-77v10h-158v12h-11v10h-11v62h11v12h11v10h113l-6 -8l16 19h28z
" />
    <glyph glyph-name="greater" unicode="&#x3e;" horiz-adv-x="352" 
d="M323 345v-71l4 -10l-228 -169l-5 11l-25 -14l-11 18l-5 -4l-45 76l9 5l-3 8l6 3l-4 10l65 38l6 -10l87 73l-86 74l-8 -10l-64 37l4 10l-6 4l3 8l-9 5l45 76l4 -4l12 18l26 -14q4 10 4 11l228 -169z" />
    <glyph glyph-name="question" unicode="?" horiz-adv-x="426" 
d="M256 768v-10h42v-12h11v-9h21v-12h11v-10h10v-9h12v-12h10v-10h11v-33h10v-126h-10v-32h-11v-21h-10v-21h-12v-10h-10v-12h-11v-9h-10v-12h-11v-10h-11v-11h-9v-22h-11v-9h-11v-11h-11v-20h-9v-22h-12v-76h-10v-9h-67v9h-10v106h10v33h11v21h10v10h11v21h10v22h22v21h11
v10h10v11h11v22h11v21h11v21h9v43h-9v32h-11v21h-22v11h-82v-11h-12v-11h-9v-22h-10v-84h-12v-10h-9v-10h-68v10h-9v10h-12v116h12v10h9v22h11v21h11v12h11v19h22v12h20v9h11v12h31v10h98zM235 195v-10h21v-11h22v-21h11v-22h9v-73h-9v-21h-11v-21h-22v-10h-108v10h-12v11
h-9v115h9v11h12v21h21v11h21v10h45z" />
    <glyph glyph-name="at" unicode="@" horiz-adv-x="674" 
d="M500 397h-9v11h-11v11h-11v11h-9v11h-33v10h-18v-10h-33v-11h-10v-11h-22v-11h-9v-11h-11v-9h-11v-22h-11v-31h-9v-34h9v-31h11v-22h11v-9h11v-12h9v-10h83v10h21v12h21v19h11v12h11v53h9v74zM511 376v-10l7 21h-18v-11h11zM497 408l-6 21v-21h6zM487 419l-7 21v-21h7z
M476 430l-7 21v-21h7zM466 441l-6 20v-20h6zM344 196v21h-6zM324 218v21h-7zM335 207v20h-7zM433 451l-6 21v-21h6zM258 778h42v12h55v-12h96v-9h31v-11h22v-11h9v-11h12v-10h21v-10h11v-11h11v-22h9v-9h12v-33h10v-32h11v-64h10v-51h-10v-53h-11v-53h-10v-32h-12v-54h-9
v-44h9v-19h22v-12h21v-10h11v-84h-21v-11h-67v11h-21v10h-11v12h-18v-12h-11v-10h-31v-11h-11v-11h-98v11h-32v11h-21v10h-10v12h-11v9h-10v11h-12v11h-10v21h-11v52h-10v75h10v53h11v42h10v21h12v22h10v10h11v10h10v11h11v11h10v11h32v11h32v9h77v-9h42v-11h29v65h-11v20
h-11v11h-9v11h-11v9h-11v12h-21v10h-31v12h-33v10h-71v-10h-42v-12h-22v-10h-21v-12h-11v-9h-10v-11h-12v-11h-9v-11h-10v-9h-12v-22h-9v-22h-11v-21h-11v-21h-11v-21h-11v-42h-11v-128h-9v-33h9v-63h11v-42h11v-43h11v-22h11v-20h11v-11h9v-21h12v-12h10v-9h9v-12h12v-10
h10v-11h21v-10h11v-11h11v-10h21v-12h21v-10h33v-11h233v-82h-11v-12h-44v-10h-83v-11h-35v11h-64v10h-42v12h-31v9h-22v11h-11v11h-21v9h-11v11h-20v11h-11v11h-11v11h-9v11h-12v9h-10v12h-11v10h-11v21h-11v11h-10v22h-11v31h-10v22h-12v52h-9v64h-11v253h11v43h9v42h12
v22h10v31h11v22h10v21h11v11h11v10h11v21h10v11h12v11h9v11h11v10h11v10h20v11h11v11h21v11h33v9z" />
    <glyph glyph-name="A" unicode="A" horiz-adv-x="740" 
d="M260 329h10v-9h146v9h11v13h-11v41h-10v33h-12v31h-9v22h-10v32h-12v20h-9v11h-20v-21h-9v-32h-12v-21h-10v-42h-11v-22h-11v-32h-11v-20h-10v-13zM438 321v-13l6 21h-17v-8h11zM356 532v10h4l-6 21v-31h2zM370 521l-7 20v-20h7zM270 299v21h-7zM321 733h11v10h45v-10h11
v-11h10v-20h10v-33h11v-21h10v-32h12v-32h10v-31h11v-32h10v-32h11v-31h10v-33h12v-21h9v-21h12v-21h10v-42h11v-22h10v-22h10v-42h11v-21h11v-32h11v-21h10v-21h11v-21h22v-11h31v-11h20v-84h-9v-10h-236v10h-33v73h11v11h43v11h31v33h-9v32h-12v20h-10v11h-11v11h-148v10
h-62v-10h-20v-11h-11v-42h-10v-33h-12v-1h12v-9h10v-11h63v-11h11v-72h-11v-12h-116v-10h-120v10h-20v84h11v11h21v11h20v9h11v12h10v31h12v11h9v32h11v31h11v32h11v22h10v22h12v21h9v42h11v21h11v21h11v33h10v20h10v32h11v43h10v31h11v32h10v22h12v42h10v42h21v11z" />
    <glyph glyph-name="B" unicode="B" horiz-adv-x="594" 
d="M437 203h10v11h-10v31h-12v22h-10v11h-11v10h-10v11h-11v10h-22v12h-21v9h-42v12h-82v-12h-10v-212h10v-11h32v-11h92v11h21v11h22v9h11v12h21v21h10v21h12v22zM422 278l-7 21v-21h7zM410 288l-6 20v-20h6zM401 299l-7 21v-21h7zM390 309l-7 21v-21h7zM368 321l-7 21v-21
h7zM347 330l-7 21v-21h7zM305 342l-7 20v-20h7zM216 86v21h-7zM248 75v21h-7zM383 531h11v23h-11v31h-10v11h-12v11h-21v11h-42v9h-61v-9h-21v-22h-10v-138h10v-22h61v10h32v12h21v9h10v11h21v11h12v21h10v21zM379 596l-6 21v-21h6zM368 607l-7 20v-20h7zM347 618l-7 21v-21
h7zM305 627l-7 21v-21h7zM23 711h11v11h320v-11h53v-9h21v-11h11v-11h21v-21h10v-11h11v-22h10v-52h12v-53h-12v-42h-10v-21h-11v-21h-10v-12h-10v-9h-11v-11h-11v-12h32v-10h10v-11h21v-10h12v-11h9v-10h11v-21h11v-12h11v-32h10v-136h-10v-21h-11v-22h-11v-21h-11v-11h-9
v-10h-12v-12h-21v-10h-10v-9h-21v-12h-22v-10h-43v-11h-34v11h-103v-11h-77v11h-126v10h-11v73h11v11h21v11h31v11h11v9h10v160h12v34h-12v286h-21v11h-52v9h-11v84z" />
    <glyph glyph-name="C" unicode="C" horiz-adv-x="584" 
d="M214 722h31v11h130v-11h54v-11h95v-9h10v-22h11v-62h-11v-65h11v-63h-11v-11h-10v-10h-56v10h-10v22h-11v53h-10v21h-12v10h-9v11h-12v11h-21v11h-113v-11h-21v-11h-22v-11h-11v-10h-11v-11h-11v-22h-9v-10h-12v-21h-10v-32h-9v-42h-12v-172h12v-40h9v-33h10v-11h12v-21
h9v-11h11v-10h11v-12h22v-9h20v-11h22v-11h82v11h21v11h21v9h12v12h9v21h12v10h10v43h11v31h10v12h10v9h46v-9h21v-180h-11v-11h-10v-10h-11v-12h-22v-10h-10v-9h-21v-12h-22v-10h-42v-11h-42v-10h-76v10h-54v11h-32v10h-21v12h-21v9h-10v10h-11v12h-10v10h-12v11h-9v21h-11
v11h-11v11h-11v31h-11v22h-11v31h-9v54h-12v189h12v43h9v32h11v32h11v21h11v21h11v11h11v20h9v12h12v10h10v11h11v10h10v11h10v11h21v11h11v9h22v11z" />
    <glyph glyph-name="D" unicode="D" horiz-adv-x="652" 
d="M490 351h11v1h-11v73h-11v33h-9v32h-11v11h-11v20h-10v11h-12v22h-21v10h-10v11h-11v10h-10v11h-42v11h-94v-11h-10v-11h-11v-467h11v-11h31v-11h51v11h31v11h33v9h21v12h22v21h9v10h12v11h10v22h11v22h11v31h9v31h11v64zM207 265v12l-6 -20h16v8h-10zM455 521l-7 20v-20
h7zM444 532l-6 21v-21h6zM412 564l-7 21v-21h7zM402 575l-7 20v-20h7zM390 585l-6 21v-21h6zM381 596l-7 21v-21h7zM338 607l-6 20v-20h6zM259 75v21h-6zM228 86v21h-7zM466 501l-7 21v-21h7zM35 711h10v11h88v-11h104v11h34v-11h105v-9h32v-11h22v-11h21v-11h21v-10h11v-11
h9v-10h12v-12h10v-10h11v-10h10v-11h11v-21h10v-12h12v-20h9v-32h11v-43h11v-52h11v-137h-11v-64h-11v-31h-11v-33h-9v-22h-12v-20h-10v-11h-11v-11h-10v-10h-11v-21h-22v-12h-9v-10h-11v-9h-21v-12h-12v-10h-63v-11h-320v11h-11v10h-10v73h21v11h32v11h20v11h12v403h10v11
h-10v64h-12v11h-31v11h-42v9h-12v75h12v9z" />
    <glyph glyph-name="E" unicode="E" horiz-adv-x="618" 
d="M23 711h10v11h512v-11h11v-31h10v-84h-10v-54h-11v-31h-10v-10h-56v20h-12v54h-9v21h-22v11h-63v11h-146v-11h-11v-161h11v-10h102v22h12v20h10v32h12v11h34v-11h10v-21h11v-52h-11v-192h-44v12h-12v21h-10v21h-12v22h-9v9h-31v12h-62v-21h-11v-12h-11v-170h11v-21h11
v-11h178v11h42v9h20v12h12v21h10v43h11v31h11v10h45v-10h10v-21h12v-189h-12v-12h-10v-10h-21v-11h-35v11h-446v10h-9v12h-12v61h12v11h20v11h32v11h12v9h9v480h-21v11h-52v9h-12v12h-10v72z" />
    <glyph glyph-name="F" unicode="F" horiz-adv-x="640" 
d="M35 722h106v11h33v-11h200v11h194v-11h20v-20h11v-138h-11v-74h-11v-11h-44v11h-12v11h-9v74h-11v10h-11v11h-31v11h-42v11h-107v9h-51v-9h-21v-182h21v-11h61v11h43v42h11v32h21v11h23v-11h12v-10h9v-265h-21v-11h-23v11h-11v10h-10v33h-11v31h-11v12h-42v9h-51v-9h-9
v-12h-12v-64h-10v-11h10v-95h12v-12h9v-9h33v-11h62v-11h12v-72h-12v-12h-9v-10h-279v10h-21v84h11v11h21v11h53v21h11v169h10v1h-10v127h10v11h-10v160h-11v11h-74v9h-21v22h-12v53h12v20z" />
    <glyph glyph-name="G" unicode="G" horiz-adv-x="640" 
d="M215 722h31v11h151v-11h54v-11h95v-9h10v-22h12v-84h-12v-106h-10v-21h-21v-11h-24v11h-22v21h-10v52h-11v22h-10v21h-11v11h-11v11h-21v11h-21v9h-92v-9h-22v-11h-32v-11h-10v-11h-11v-10h-10v-11h-11v-10h-11v-22h-11v-21h-10v-21h-12v-21h-9v-53h-10v-118h10v-54h9
v-31h12v-10h10v-22h11v-21h11v-11h21v-10h11v-12h10v-9h32v-11h22v-11h82v11h21v11h22v9h20v12h11v64h-11v11h-11v10h-85v11h-9v85h20v9h236v-9h11v-85h-11v-11h-20v-10h-22v-159h-11v-12h-52v-10h-22v-9h-22v-12h-21v-10h-31v-11h-33v-10h-66v10h-63v11h-22v10h-31v12h-21
v9h-12v10h-9v12h-11v10h-11v11h-9v10h-12v22h-10v20h-11v12h-10v21h-11v42h-10v75h-12v147h12v64h10v53h11v20h10v22h11v22h10v20h12v12h9v10h11v11h11v10h9v11h22v11h11v11h22v9h21v11z" />
    <glyph glyph-name="H" unicode="H" horiz-adv-x="674" 
d="M35 702h10v9h184v-9h31v-11h12v-84h-33v-11h-21v-106h-10v-54h10v-11h11v-10h198v10h21v171h-42v11h-43v20h-9v53h9v22h33v9h97v-9h106v-11h11v-84h-32v-11h-21v-21h-10v-468h10v-11h42v-11h22v-10h10v-84h-32v-10h-160v10h-33v11h-10v73h10v10h21v11h12v11h9v192h-180
v10h-29v-10h-21v-21h-10v-171h10v-11h21v-11h42v-10h12v-84h-43v-10h-98v10h-18v-10h-57v10h-20v21h-12v53h12v20h20v11h33v500h-22v11h-53v11h-11v73h11v11z" />
    <glyph glyph-name="I" unicode="I" horiz-adv-x="540" 
d="M33 722h319v11h23v-11h73v-11h12v-9h10v-53h-10v-31h-54v-11h-96v-11h-9v-469h9v-9h22v-11h149v-11h11v-11h11v-73h-22v-10h-406v10h-10v12h-10v72h10v11h21v11h66v-11h19v11h22v21h10v423h11v2h-11v32h-10v11h-85v11h-75v9h-11v75h11v20z" />
    <glyph glyph-name="J" unicode="J" horiz-adv-x="618" 
d="M225 702h10v20h321v-11h10v-9h12v-53h-12v-22h-10v-9h-21v-11h-24v11h-31v-11h-9v-11h-11v-86h11v-391h-11v-33h-11v-31h-9v-12h-11v-10h-11v-9h-11v-12h-21v-10h-43v-11h-43v-10h-22v10h-96v11h-42v10h-31v12h-22v9h-33v10h-9v12h-12v42h-10v116h10v12h32v9h24v-9h22
v-12h11v-21h9v-22h11v-21h11v-10h10v-12h11v-9h22v-11h124v11h21v9h10v12h12v21h10v436h-22v11h-31v11h-85v9h-10v75z" />
    <glyph glyph-name="K" unicode="K" horiz-adv-x="718" 
d="M34 722h33v11h23v-11h41v11h23v-11h117v-11h11v-72h-11v-12h-43v-9h-10v-22h-12v-22h12v-116h-12v0h12v-22h10v-11h19v11h10v10h12v12h9v9h11v11h11v11h9v11h12v10h10v11h11v10h11v22h11v9h9v22h12v11h10v11h11v12h-21v9h-21v84h9v11h33v11h23v-11h51v11h87v-11h33v-20h9
v-63h-9v-12h-12v-9h-31v-11h-21v-11h-12v-11h-9v-10h-11v-11h-11v-10h-11v-12h-11v-21h-9v-10h-11v-10h-11v-11h-11v-11h-9v-10h-12v-11h-10v-11h-11v-22h-10v-9h-11v-11h-11v-11h-21v-1h10v-10h11v-21h11v-11h11v-10h10v-12h11v-9h10v-12h12v-10h9v-11h11v-22h11v-9h11v-12
h9v-19h11v-12h11v-10h11v-11h11v-11h9v-11h12v-21h10v-10h11v-12h10v-9h42v-11h44v-11h9v-11h11v-73h-11v-10h-21v-11h-34v11h-96v10h-21v12h-10v9h-11v10h-11v22h-9v11h-11v21h-11v11h-11v20h-10v12h-11v10h-10v11h-12v11h-9v20h-11v11h-11v11h-11v21h-10v10h-12v12h-9v10
h-11v11h-11v10h-9v11h-22v10h-8v-10h-21v-172h10v-9h21v-11h42v-11h12v-11h10v-73h-22v-10h-224v10h-12v21h-10v52h10v11h12v11h21v11h21v9h11v480h-11v11h-64v9h-11v22h-10v53h10v20z" />
    <glyph glyph-name="L" unicode="L" horiz-adv-x="674" 
d="M24 722h21v11h289v-11h22v-20h9v-53h-9v-10h-12v-12h-21v-9h-53v-11h-10v-11h-11v-12h11v-147h-11v-298h11v-21h21v-11h104v11h84v9h32v12h22v53h9v64h11v9h67v-9h11v-149h10v-74h-10v-31h-22v-11h-88v11h-434v10h-21v21h-11v52h11v11h11v11h10v11h64v9h9v447h11v22h-11
v11h-9v11h-96v9h-21v95z" />
    <glyph glyph-name="M" unicode="M" horiz-adv-x="776" 
d="M36 733h22v10h120v-10h31v-11h10v-11h11v-20h10v-22h12v-21h10v-32h11v-21h10v-21h11v-21h10v-22h12v-21h9v-21h11v-22h11v-31h9v-11h12v-21h18v21h12v11h9v31h12v22h10v32h11v21h10v20h11v22h10v32h12v32h9v32h10v11h12v20h10v22h183v-11h22v-95h-25v12h-8v-12h-21v-9
h-41v-224h-12v-53h12v-127h-12v-11h12v-64h9v-12h32v-9h32v-11h11v-11h11v-72h-11v-12h-43v-10h-45v10h-159v12h-10v9h-11v52h11v22h10v11h31v9h22v12h12v212h9v107h-9v53h-9v-10h-11v-22h-11v-21h-9v-21h-11v-12h-11v-31h-11v-32h-10v-10h-11v-22h-10v-21h-12v-21h-9v-10
h-11v-21h-11v-12h-35v12h-11v10h-9v11h-11v21h-11v10h-10v33h-11v20h-10v21h-12v22h-9v20h-11v22h-11v22h-11v21h-10v21h-19v-117h-11v-86h11v-127h11v-32h10v-10h11v-12h43v-9h21v-33h10v-52h-10v-9h-11v-12h-225v12h-11v83h11v11h10v9h21v12h12v10h10v171h11v298h-11v9
h-22v12h-53v31h-11v52h11v11z" />
    <glyph glyph-name="N" unicode="N" horiz-adv-x="662" 
d="M24 722h10v11h77v-11h96v-11h11v-20h9v-22h12v-21h10v-10h11v-32h10v-22h10v-10h11v-21h10v-22h11v-21h11v-21h11v-11h10v-11h12v-21h9v-21h11v-21h11v-11h11v-21h9v-10h12v-21h10v-21h10v-12h11v-10h10v-22h20v214h-11v85h-11v21h-11v11h-41v11h-21v9h-22v84h11v11h235
v-11h11v-84h-11v-9h-21v-11h-21v-138h-10v-171h10v-286h-10v-10h-21v-11h-46v11h-10v10h-11v12h-11v19h-11v22h-10v21h-12v22h-9v20h-10v22h-12v33h-9v9h-11v32h-11v11h-11v22h-10v10h-11v21h-10v21h-12v21h-10v12h-11v20h-10v21h-11v22h-10v11h-10v21h-11v21h-11v21h-11v11
h-9v21h-20v-10h-11v-245h11v-96h11v-21h11v-12h32v-9h41v-11h11v-11h10v-84h-62v-10h-183v10h-22v21h-10v52h10v11h11v11h11v11h11v9h9v12h22v468h-10v11h-54v9h-10v95z" />
    <glyph glyph-name="O" unicode="O" horiz-adv-x="628" 
d="M467 351h12v54h-12v64h-9v42h-11v10h-11v21h-11v22h-10v21h-10v11h-22v11h-20v11h-22v9h-32v12h-30v-12h-31v-9h-32v-11h-11v-11h-9v-11h-12v-21h-10v-22h-11v-21h-11v-31h-11v-43h-9v-149h9v-42h11v-31h11v-22h11v-22h10v-11h12v-10h9v-11h11v-10h22v-12h21v-9h31v-11
h19v11h42v9h21v12h22v10h11v11h10v21h10v11h11v21h11v21h11v42h9v75zM453 521l-6 20v-20h6zM412 596l-7 21v-21h7zM390 607l-7 20v-20h7zM369 618l-6 21v-21h6zM348 627l-7 21v-21h7zM315 639l-6 20v-20h6zM184 149v21h-6zM196 140v20h-7zM205 128v21h-6zM216 118v21h-6z
M238 107v20h-6zM259 97v21h-7zM290 86v21h-7zM234 743h31v12h47v-12h64v-10h42v-11h20v-11h11v-9h11v-11h21v-11h11v-21h10v-11h12v-10h9v-12h11v-20h11v-32h11v-21h9v-43h12v-52h10v-170h-10v-53h-12v-52h-9v-22h-11v-21h-11v-21h-11v-22h-9v-11h-22v-10h-11v-11h-10v-10
h-11v-12h-11v-10h-21v-9h-21v-12h-64v-10h-109v10h-42v12h-21v9h-22v10h-21v12h-10v10h-11v21h-10v11h-10v11h-11v20h-11v12h-11v32h-9v31h-12v42h-10v222h10v75h12v20h9v33h11v11h11v32h11v10h10v11h10v21h21v11h11v11h22v9h10v11h21v11h42v10z" />
    <glyph glyph-name="P" unicode="P" horiz-adv-x="628" 
d="M464 491h10v61q-3 2 -4.5 4t-3.5 2l-2 12h-12v10h-10v11h-10v11h-13v12h-21v11h-23v11h-31v-11h-24v11h-63v-11h-11v-213h11v-10h96v10h45v12h21v10h23v23h10v11h12v23zM459 580l-7 21v-21h7zM449 591l-7 21v-21h7zM438 602l-6 21v-21h6zM426 614l-7 21v-21h7zM404 625
l-6 20v-20h6zM382 636l-7 21v-21h7zM327 636l-7 21v-21h7zM257 381v21h-7zM34 732h11v10h387v-10h55v-11h12v-11h22v-10h11v-12h11v-11h10v-21h12v-13h11v-21h11v-173h-11v-23h-11v-21h-12v-23h-10v-11h-11v-11h-11v-12h-22v-10h-22v-11h-22v-11h-44v-10h-33v-13h-132v-32
h-11v-123h11v-23h21v-11h77v-11h22v-12h12v-73h-12v-11h-33v-12h-89v12h-21v-12h-166v12h-12v84h12v12h10v11h55v11h11v10h11v482q-3 2 -4.5 3.5t-3.5 1.5l-3 13h-21v11h-42v-11h-36v21h-11v75h11v11z" />
    <glyph glyph-name="Q" unicode="Q" horiz-adv-x="650" 
d="M474 292h12v145h-12v34h-10v33h-11v32h-11v22h-12v12h-10v21h-22v11h-33v12h-22v11h-12v11h-63v-11h-22v-11h-23v-12h-21v-11h-11v-11h-12v-22h-10v-11h-12v-33h-10v-21h-11v-44h-11v-169h11v-43h11v-23h10v-22h12v-22h10v-11h12v-11h11v-10h11v-13h10v-10h23v-11h32v-11
h65v11h32v11h12v10h11v13h22v21h10v11h12v22h11v33h11v44h10v23zM437 570l-7 21v-21h7zM404 602l-6 21v-21h6zM371 614l-6 21v-21h6zM350 625l-7 20v-20h7zM337 636l-6 21v-21h6zM179 139v20h-7zM191 127v21h-6zM202 117v21h-7zM213 105v20h-7zM223 94v21h-6zM246 83v21h-7z
M278 73v20h-7zM200 732h44v10h112v-10h55v-11h22v-11h22v-10h11v-12h11v-11h22v-11h10v-23h12v-10h11v-22h11v-22h11v-22h12v-32h10v-34h11v-240h-11v-55h-10v-33h-12v-22h-11v-23h-11v-10h-11v-11h-12v-23h-10v-10h-12v-12h-21v-10h-11v-23h-22v-13h10v-11h12v-11h11v-11
h11v-23h10v-10h12v-11h10v-11h12v-12h11v-10h21v10h34v-10h21v-97h-21v-11h-33v-10h-22v-13h-23v-10h-45v15q-8 6 -9 6l-2 12h-11v26q-2 2 -4.5 4t-4.5 2l-3 12h-10v11h-11v22h-11v12h-11v25l-4.5 4.5t-4.5 2.5l-3 12h-21v22h-23v22h-22v10h-22v12h-77v11h-22v10h-10v11h-23
v11h-11v12h-22v10h-10v22h-12v12h-11v11h-10v25l-4.5 4.5t-3.5 2.5l-3 12h-11v22h-12v33h-10v44h-12v251h12v44h10v32h12v22h11v12h11v22h10v10h11v13h12v10h10v11h12v11h10v12h11v10h11v11h34v11z" />
    <glyph glyph-name="R" unicode="R" horiz-adv-x="720" 
d="M431 512h10v35h-10v33h-10v11h-12v11h-22v12h-11v11h-44v11h-97v-11h-11v-23h-11v-168h11v-10h141v10h22v12h12v11h10v11h12v10h10v34zM427 591l-6 21v-21h6zM416 602l-7 21v-21h7zM393 614l-6 21v-21h6zM383 625l-7 20v-20h7zM338 636l-6 21v-21h6zM224 403v21h-6z
M35 732h11v10h78v-10h9v10h47v-10h86v10h57v-10h111v-11h32v-11h10v-10h12v-12h11v-11h11v-11h11v-10h12v-23h10v-44h12v-118h-12v-34h-10v-22h-12v-10h-11v-23h-22v-11h-12v-11h-21v-12h-21v-10h-22v-3h10v-10h12v-12h10v-10h11v-11h11v-12h10v-22h12v-11h11v-10h11v-23h11
v-22h12v-10h10v-23h12v-21h10v-23h23v-11h21v-11h55v-12h11v-73h-11v-23h-157v12h-10v11h-11v10h-11v22h-12v12h-10v22h-12v15q-5 5 -7 5l-3 13h-10v25l-4.5 4.5t-4.5 2.5l-3 12h-10v25q-2 2 -5 4.5t-5 2.5l-2 12h-11v22h-11v22h-23v11h-10v22h-11v11h-11v10h-22v13h-12v10
h-52v-10h-11v-191h11v-11h23v-11h64v-12h23v-73h-11v-11h-267v11h-10v73h10v12h13v11h32v11h21v499h-11v11h-10v11h-9v-11h-23v11h-34v10h-11v75h11v11z" />
    <glyph glyph-name="S" unicode="S" horiz-adv-x="558" 
d="M177 742h32v13h168v-13h99v-10h10v-32h12v-164h-12v-22h-10v-10h-22v-11h-25v11h-22v21h-10v55h-13v16q-6 6 -7 6l-3 12h-22v11h-10v11h-44v10h-76v-10h-32v-11h-11v-11h-11v-12h-12v-11h-10v-21h-12v-35h12v-23h10v-21h12v-13h11v-10h33v-11h33v-11h21v-12h45v-10h54
v-12h22v-10h23v-12h21v-11h11v-10h12v-11h10v-11h12v-12h10v-10h12v-33h11v-34h11v-107h-11v-33h-11v-22h-12v-22h-10v-12h-12v-10h-10v-12h-12v-11h-11v-11h-21v-10h-23v-11h-32v-12h-200v12h-43v-12h-58v12h-21v21h-11v196h11v23h11v10h57v-22h11v-33h12v-33h10v-21h12
v-13h10v-10h23v-11h21v-11h120v11h22v11h22v10h10v13h10v10h13v11h10v73q-3 2 -4.5 4t-3.5 2l-2 12h-13v11h-10v11h-10v11h-22v10h-34v13h-32v10h-34v11h-55v11h-32v10h-23v12h-11v11h-23v11h-21v15q-6 6 -8 6l-3 12h-12v16q-6 6 -7 6l-3 12h-11v32h-11v86h11v44h11v22h10
v23h12v21h11v11h21v12h13v10h10v11h22v11h34v10z" />
    <glyph glyph-name="T" unicode="T" horiz-adv-x="662" 
d="M34 721h12v11h551v-11h12v-21h11v-207h-11v-22l-65 10l-3 12h-12v98h-10v11h-12v12h-32v11h-64v-11h-34v-12h-10v-168h10v-63h-10v-13h10v-65h-10v-79h10v-99h23v-11h32v-11h78v-12h11v-10h11v-63h-11v-23h-55v-10h-25v10h-297v96h11v12h34v11h44v11h33v10h10v477h-10v12
h-44v11h-32v-11h-33v-12h-11v-11h-10v-11h-12v-66h-10v-43h-23v-12h-45v22h-12v89h-10v86h10v65z" />
    <glyph glyph-name="U" unicode="U" 
d="M24 732h22v10h122v-10h53v10h25v-10h33v-11h10v-52h-10v-23h-11v-10h-44v-11h-11v-34h-11v-189h11v-243h11v-11h10v-10h12v-13h10v-10h23v-11h21v-11h76v11h44v11h21v10h11v13h11v10h12v22h10v421h-10v34h-23v11h-32v10h-11v12h-12v63h12v11h221v-11h11v-85h-22v-11h-32
v-23h-10v-44h-13v-430h-10v-32h-11v-22h-11v-22h-12v-12h-10v-11h-22v-11h-12v-10h-32v-11h-22v-12h-190v12h-21v11h-22v10h-23v11h-11v15q-6 6 -8 6l-2 12h-13v22h-10v34h-11v496h-11v11h-10v11h-44v10h-22v86z" />
    <glyph glyph-name="V" unicode="V" horiz-adv-x="708" 
d="M35 742h99v13h101v-13h56v-21h11v-52h-11v-23h-56v-10h-22v-47h11v-33h11v-44h12v-34h10v-32h12v-22h10v-45h12v-32h11v-44h10v-23h11v-33h11v-33h11v-32h11v-12h9v12h11v22h10v33h13v32h10v44h11v22h11v44h12v45h10v44h11v33h11v44h10v54h13v26h-13v11h-54v10h-11v86h11
v10h222v-10h11v-96h-11v-11h-21v-11h-23v-23h-10v-33h-12v-33h-10v-32h-12v-34h-11v-33h-11v-34h-10v-32h-12v-33h-10v-44h-12v-33h-11v-33h-11v-34h-10v-42h-11v-34h-12v-33h-10v-34h-12v-22h-10v-10h-12v-11h-11v-12h-69v12h-10v21h-11v34h-11v22h-10v33h-12v21h-11v48
q-2 2 -4 4.5t-4 2.5l-3 12h-10v32h-13v34h-10v32h-11v34h-11v21h-12v34h-10v33h-12v34h-10v32h-11v33h-11v33h-10v33h-12v22h-11v12h-11v11h-23v11h-10v10h-11v12h-11v74h11v10z" />
    <glyph glyph-name="W" unicode="W" horiz-adv-x="814" 
d="M26 732h32v10h178v-10h57v-11h10v-75h-55v-10h-34v-80h12v-122h10v-87h12v-100h11v-33h20v23h11v21h11v34h11v33h10v44h11v21h11v22h12v34h10v22h58v-11h11v-11h10v-34h13v-22h10v-32h11v-23h11v-43h10v-23h12v-22h10v-10h21v21h10v100h12v88h11v156h-11v12h-12v11h-10
v11h-56v10h-10v75h10v11h78v10h200v-96h-34v-10h-21v-11h-23v-34h-10v-77h-12v-55h-10v-111h-10v-55h-12v-76h-10v-99h-12v-56h-11v-33h-11v-21h-11v-23h-69v12h-11v11h-11v32h-10v38q-3 2 -4.5 4t-3.5 2l-3 12h-11v32h-10v34h-13v33h-10v36l-4.5 4.5t-4.5 2.5l-2 12h-11v11
h-21v-22h-10v-33h-12v-23h-11v-32h-11v-33h-10v-44h-11v-45h-11v-21h-10v-11h-13v-12h-57v12h-11v11h-11v32h-10v56h-12v55h-11v66h-11v99h-11v55h-10v88h-11v77h-11v66h-12v12h-10v11h-22v11h-44v96z" />
    <glyph glyph-name="X" unicode="X" horiz-adv-x="720" 
d="M46 755h134v-13h99v-10h11v-11h11v-63h-11v-12h-32v-10h-11v-25h11v-12h11v-22h10v-21h11v-11h11v-22h12v-11h10v-21h12v-13h20v13h11v10h10v11h12v23h11v21h11v11h11v32h10v23h11v14h-32v10h-22v86h11v10h165v13h35v-13h32v-10h12v-86h-12v-10h-10v-11h-44v-11h-10v-12
h-12v-11h-11v-11h-11v-22h-11v-11h-12v-22h-10v-11h-12v-21h-10v-12h-12v-22h-11v-10h-11v-23h-10v-11h-11v-23h-11v-13h11v-21h11v-23h10v-10h11v-22h11v-11h12v-12h10v-22h12v-21h10v-12h12v-21h11v-12h11v-22h11v-22h12v-10h10v-23h22v-11h55v-11h11v-22h10v-63h-21v-11
h-212v11h-21v10h-11v86h21v11h22v3h-11v33h-11v11h-10v33h-11v11h-11v11h-11v22h-12v11h-10v11h-11v22h-32v-22h-10v-11h-12v-23h-11v-21h-11v-23h-10v-10h-11v-22h-11v-23h-10v-13h21v-11h32v-86h-11v-10h-21v-11h-212v11h-10v10h-12v86h22v11h44v10h11v13h11v10h10v11h13
v23h10v10h11v22h11v23h12v10h10v22h12v11h10v12h12v21h11v12h11v10h10v34h11v10h11v3h-11v33h-11v16q-4 6 -7 6l-3 12h-11v10h-11v16q-2 2 -4.5 4t-4.5 2l-3 12h-10v11h-12v21h-10v22h-12v15q-6 6 -8 6l-3 12h-11v22h-10v12h-13v11h-10v11h-43v10h-23v109z" />
    <glyph glyph-name="Y" unicode="Y" 
d="M24 742h22v13h89v-13h20v13h69v-13h55v-21h11v-52h-11v-11h-11v-12h-44v-13h10v-22h12v-22h10v-12h12v-21h11v-11h11v-22h10v-22h11v-23h12v-10h10v-11h12v-23h19v23h12v11h10v10h11v23h12v22h11v22h10v22h12v22h10v10h11v37h-33v10h-21v12h-12v74h12v10h165v13h46v-13
h21v-84h-11v-12h-10v-10h-33v-22h-10v-12h-13v-11h-10v-21h-11v-23h-11v-22h-12v-11h-10v-10h-12v-33h-10v-12h-12v-22h-11v-11h-10v-21h-11v-23h-11v-11h-11v-23h-11v-21h-12v-189h12v-23h99v-11h22v-11h11v-64h-11v-21h-34v-11h-35v11h-64v-11h-102v11h-98v21h-10v52h10
v23h22v11h56v10h10v13h10v168h-10v21h-10v11h-12v33h-10v11h-12v15q-6 6 -8 6l-3 12h-11v16q-6 6 -8 6l-2 12h-12v22h-10v14q-8 6 -10 6l-2 13h-11v21h-11v11h-10v22h-13v12h-10v21h-10v15q-3 2 -5 4t-4 2l-3 13h-10v11h-44v10h-22v96z" />
    <glyph glyph-name="Z" unicode="Z" horiz-adv-x="604" 
d="M66 742h11v13h124v-13h296v-10h23v-11h11v-96h-11v-23h-11v-11h-12v-21h-10v-12h-11v-11h-11v-11h-11v-22h-11v-10h-12v-11h-10v-22h-12v-12h-10v-10h-10v-23h-13v-11h-10v-23h-11v-10h-11v-11h-12v-23h-10v-10h-12v-11h-10v-21h-11v-13h-11v-10h-12v-22h-10v-11h-12v-23
h-10v-21h-10v-11h-13v-12h-10v-21h-11v-11h-11v-23h-12v-10h-10v-3h10v-11h175v11h66v10h22v13h11v10h11v11h10v23h12v32h10v23h70v-23h10v-118h-10v-67h-12v-32h-11v-12h-101v12h-317v-12h-57v12h-23v11h-10v117h10v23h12v11h11v11h10v22h11v12h11v21h12v12h10v10h12v22h10
v11h11v12h11v21h12v12h10v10h12v23h10v11h12v10h11v23h10v10h12v12h10v22h12v11h11v11h11v23h10v10h12v11h10v23h12v10h11v11h11v21h10v12h13v22h10v22h10v3h-185v-11h-32v-11h-12v-12h-22v-32h-10v-34h-11v-22h-68v11h-11v152h11v55h10v10z" />
    <glyph glyph-name="bracketleft" unicode="[" horiz-adv-x="269" 
d="M84 741h12v7h53v-7h41v7h45v-7h5v-8h3v-80h-3v-16h-23l4 4l-15 -12h-87l6 -17l-11 -4l8 -22l-10 -3l11 -29l-10 -4l7 -21l-9 -4l8 -19l-12 -4l15 -39l-8 -3l11 -30l-12 -5l10 -29l-9 -4l7 -19l-10 -3l12 -31l-10 -4l12 -29l-13 -4l8 -21l-10 -4l11 -29l-9 -3l11 -31
l-11 -4l7 -19l-9 -3l14 -39l-10 -4l7 -20l-10 -4l2 -5h36v-8h41v8h45v-8h5v-7h3v-80h-3v-16h-23l4 3l-15 -10h-91v-5h-14l-10 10l5 -6l-56 3h-15l-2 38l-10 31l10 3l-7 21l8 3l-6 20l9 4l-11 30l9 4l-11 30l11 3l-11 29l10 4l-11 31l11 4l-6 20l7 3l-6 20l9 3l-9 30l9 3
l-14 42l9 3l-10 29l10 3l-7 21l8 3l-11 30l11 5l-9 30l8 3l-9 29l9 3l-12 31l10 4l-7 20l10 3l-9 31l8 2l-12 32l12 2l-12 30l10 3l-12 31l12 3l-6 16h65l9 -8z" />
    <glyph glyph-name="backslash" unicode="\" horiz-adv-x="438" 
d="M98 798h11v-21h9v-33h11v-20h11v-33h10v-31h11v-32h10v-32h12v-21h9v-33h11v-31h11v-31h11v-33h10v-21h12v-31h9v-43h12v-31h10v-21h9v-22h12v-33h10v-31h11v-31h10v-33h11v-21h10v-21h12v-32h10v-33h11v-31h10v-42h11v-73h-11v-11h-10v-11h-24v11h-32v11h-11v10h-10v43
h-11v42h-11v32h-11v33h-9v42h-11v21h-11v22h-9v41h-12v21h-10v33h-11v31h-11v22h-11v31h-10v33h-11v21h-10v31h-12v33h-9v41h-11v21h-11v22h-9v32h-11v21h-11v32h-11v31h-11v21h-11v22h-9v21h-12v84h12v11h9v10h57v-10z" />
    <glyph glyph-name="bracketright" unicode="]" horiz-adv-x="269" 
d="M166 740h12l-4 -6l8 9h65l-6 -16l14 -3l-14 -31q3 -2 7 -2.5t5 -0.5l-14 -29q4 -2 8 -2.5t6 -0.5l-14 -32q8 -2 9 -2l-10 -31q6 -3 10 -3l-7 -20l9 -3l-10 -32q2 -1 5 -2t4 -1l-9 -29q2 -1 4.5 -2t3.5 -1l-10 -30q2 -1 7 -3t6 -2l-14 -30q6 -3 9 -3l-6 -21l10 -3l-10 -29
l4 -2t3 -1l-13 -41q3 -1 6 -2.5t4 -1.5l-10 -30q7 -3 9 -3l-6 -20l7 -3l-6 -20l10 -3l-10 -32q10 -4 12 -4l-14 -28q10 -4 14 -4l-14 -30l6 -2l-8 -32l10 -4l-6 -20l8 -3l-7 -20l11 -4l-10 -30l65 -21l-84 -21h-55l5 6l-10 -10h-14v8h-91l-13 5l2 -1h-22v16h-4v80h4v7h4v8
h45v-8h41v8h36l2 5l-10 4l7 19l-11 5l16 39q-8 3 -10 3l6 19l-9 3l10 32q-2 0 -6 2q-2 1 -3 1l10 30q-6 3 -9 3l7 20l-14 5l14 29q-4 1 -6 2t-3 1l10 32q-3 1 -5.5 2t-3.5 1l7 19l-10 4l10 29q-3 1 -6 2.5t-4 1.5l10 32q-6 2 -7 2l13 40q-4 1 -6.5 2t-4.5 1l8 20l-9 3l7 21
l-12 4l14 29l-6 2t-4 1l6 22l-9 3l6 22h-88l-13 5l2 -1h-22v16h-4v80h4v8h4v7h45v-7h41v7h53v-8z" />
    <glyph glyph-name="asciicircum" unicode="^" horiz-adv-x="244" 
d="M119 962q2 2 6.5 4t5.5 2v-5l7 4v-6l1 1l90 -151l-7 -3l9 -15l-20 -10v-5l-40 -23l-1 4l-1 3l-6 -2l-37 62l6 3l-13 22q-5 -7 -6.5 -9t-8.5 -13q6 -3 7 -3l-36 -61l-6 1l-3 -3v-4l-40 23v5l-19 12l8 13l-7 3l90 151l1 -1v6l7 -4v5z" />
    <glyph glyph-name="underscore" unicode="_" horiz-adv-x="752" 
d="M36 -165h21v9h77v-9h400v9h45v-9h19v9h76v-9h21v-22h11v-84h-11v-10h-553v10h-41v-10h-22v10h-43v11h-11v84h11v11z" />
    <glyph glyph-name="grave" unicode="`" horiz-adv-x="276" 
d="M245 861l14 -7l-6 -12l5 -3l-39 -68l-7 3q-2 -4 -2 -8l-6 4l-2.5 -5t-1.5 -4l-175 105l3 8l-21 13l10 18l-4 3l36 61l6 -4l1 1l6 4q1 2 2.5 3.5t1.5 2.5l58 -34l-4 -7l56 -33l2 4t1 3l72 -40z" />
    <glyph glyph-name="a" unicode="a" horiz-adv-x="606" 
d="M357 170h11v42h-11v10h-131v-10h-33v-11h-20v-10h-20v-11h-11v-9h-9v-22h-11v-1h11v-21h20v-9h20v-11h112v11h21v9h20v11h21v10h10v22zM233 97h-5l7 -20v30h-2v-10zM153 98v20h-7zM173 87v20h-6zM363 222l-6 21v-21h6zM181 511h52v11h158v-11h20v-9h21v-11h11v-11h10v-10
h12v-20h9v-155h-9v-177h26v9h45v-9h10v-11h11v-71h-11v-11h-42v-10h-30v-11h-85v11h-11v10h-21v11h-8v-11h-30v-10h-43v-11h-156v11h-22v10h-20v11h-21v9h-11v21h-9v21h-11v113h11v20h9v22h11v11h10v10h20v11h22v9h20v11h31v10h42v11h62v10h24v-10h38v10h31v11h11v10h10v42
h-10v10h-11v11h-10v11h-21v10h-70v-10h-21v-11h-20v-11h-10v-10h-12v-31h-9v-10h-11v-11h-64v11h-11v10h-11v93h11v20h22v10h20v11h20v11h21v9z" />
    <glyph glyph-name="b" unicode="b" horiz-adv-x="628" 
d="M471 295h-9v20h-11v21h-10v11h-11v10h-10v11h-11v9h-9v11h-33v10h-100v-10h-21v-11h-21v-20h-10v-219h10v-11h11v-9h10v-11h41v-10h71v10h20v11h22v9h9v11h21v22h11v10h10v20h11v21h9v84zM483 264v-10l6 20h-18v-10h12zM447 347l-6 20v-20h6zM436 357l-6 20v-20h6z
M426 368l-6 20v-20h6zM415 377l-6 20v-20h6zM406 388l-6 21v-21h6zM246 87v20h-7zM225 107v20h-6zM236 98v20h-6zM374 398l-7 21v-21h7zM287 77v20h-6zM109 740h30v10h76v-10h10v-21h11v-51h-11v-103h-10v-63h10v-11h19v11h51v9h117v-9h31v-11h21v-11h11v-10h20v-10h11v-10
h9v-11h11v-21h10v-9h11v-22h9v-20h11v-63h10v-113h-10v-42h-11v-30h-9v-21h-11v-11h-10v-10h-11v-11h-9v-10h-11v-11h-11v-9h-20v-11h-10v-10h-32v-11h-31v-10h-147v10h-49v-10h-65v10h-11v249h11v343h-11v20h-10v10h-62v11h-11v10h-10v52h10v20h20v10h53v11z" />
    <glyph glyph-name="c" unicode="c" horiz-adv-x="560" 
d="M190 511h32v11h148v-11h30v-9h20v-11h11v-11h11v-10h9v-10h11v-21h10v-52h11v-61h-11v-21h-10v-10h-64v10h-21v21h-11v62h-9v10h-11v11h-32v11h-70v-11h-20v-11h-21v-10h-10v-11h-12v-9h-9v-11h-11v-10h-10v-21h-11v-31h-9v-75h9v-30h11v-9h10v-21h11v-12h9v-10h22v-11
h21v-9h52v-11h48v11h63v9h20v11h31v10h66v-10h9v-72h-9v-10h-11v-11h-21v-9h-30v-11h-22v-10h-50v-11h-33v-10h-136v10h-42v11h-32v10h-9v11h-10v9h-11v11h-10v10h-11v11h-10v21h-11v21h-10v30h-11v31h-9v114h9v62h11v20h10v21h11v21h10v11h11v10h10v11h11v10h10v10h9v10h21
v11h11v11h31v9z" />
    <glyph glyph-name="d" unicode="d" horiz-adv-x="607" 
d="M122 242h10v-42h11v-19h10v-11h11v-22h9v-10h11v-11h10v-9h21v-11h73v-10h7v10h41v11h22v9h11v11h9v93h11v105h-11v41h-20v11h-22v10h-30v11h-59v-11h-32v-10h-21v-11h-21v-20h-9v-10h-11v-11h-10v-21h-11v-31h-10v-42zM143 160v21h-7zM153 149v21h-7zM173 118v20h-6z
M184 107v20h-6zM194 98v20h-6zM215 87v20h-7zM288 77v20h-7zM364 388l-6 21v-21h6zM343 398l-7 21v-21h7zM312 409l-6 21v-21h6zM378 740h32v10h65v-31h9v-82h-9v-1h9v-71h-9v-417h9v-21h52v-9h22v-82h-11v-11h-42v-10h-30v-11h-76v11h-39v-11h-41v-10h-148v10h-20v11h-21
v10h-11v11h-20v9h-11v11h-10v10h-11v21h-9v11h-11v21h-10v41h-11v165h11v31h10v31h11v22h9v9h11v11h10v10h11v11h10v10h10v10h21v10h20v11h21v11h179v-11h18v125h-31v10h-52v82h11v11h21v10h51v11z" />
    <glyph glyph-name="e" unicode="e" horiz-adv-x="572" 
d="M398 347h-11v10h-10v11h-11v20h-20v10h-10v11h-33v11h-68v-11h-21v-11h-11v-10h-10v-11h-11v-9h-9v-11h-12v-10h-10v-21h-11v-11h154v10h93v11h11v11zM398 326h16l-5 15l5 15h-16v-30zM342 409l-6 21v-21h6zM310 420l-7 20v-20h7zM384 368l-7 20v-20h7zM352 398l-6 21
v-21h6zM394 357l-7 20v-20h7zM180 511h21v11h158v-11h20v-9h21v-11h11v-11h20v-10h11v-10h9v-10h11v-21h10v-11h11v-21h10v-30h11v-124h-11v-10h-31v-11h-269v-10h-53v-22h11v-20h10v-10h12v-12h9v-10h21v-11h21v-9h42v-11h70v11h62v9h31v11h30v10h55v-10h11v-72h-11v-10
h-10v-11h-21v-9h-21v-11h-41v-10h-42v-11h-52v-10h-116v10h-42v11h-31v10h-20v11h-11v9h-10v11h-20v10h-11v21h-11v11h-10v21h-11v52h-9v133h9v52h11v20h10v21h11v21h11v11h11v10h9v21h10v10h11v10h20v11h22v11h20v9z" />
    <glyph glyph-name="f" unicode="f" horiz-adv-x="582" 
d="M262 745h42v9h96v-9h114v-11h11v-10h9v-52h-9v-41h-21v-10h-11v-11h-85v11h-52v10h-70v-10h-21v-11h-9v-10h-11v-21h-11v-64h11v-9h11v-11h152v11h54v-11h21v-81h-11v-11h-30v-10h-24v10h-153v-10h-20v-261h11v-20h9v-11h114v-11h19v11h33v-11h20v-82h-9v-10h-42v-11h-23
v11h-343v10h-9v73h9v9h22v11h72v11h21v11h11v259h-11v11h-21v10h-72v11h-11v9h-11v52h11v20h22v11h72v9h10v84h11v42h9v20h11v21h10v11h11v11h10v9h21v11h11v10h19v11z" />
    <glyph glyph-name="g" unicode="g" horiz-adv-x="606" 
d="M451 -75h9v10h11v22h-11v11h-9v10h-21v9h-21v11h-247v-11h-9v-9h-11v-10h-10v-11h-11v-21h-10v-11h10v-21h11v-11h10v-9h20v-11h53v-10h132v10h32v11h30v9h21v11h10v10h11v11zM264 -148h-4l6 -20v31h-2v-11zM457 -22l-6 20v-20h6zM436 -13l-6 20v-20h6zM416 -2l-7 20v-20
h7zM132 -127v20h-7zM142 -136v20h-7zM162 -148v21h-6zM215 -158v21h-7zM466 -32l-6 20v-20h6zM460 -95l6 20h-6v-20zM153 299h9v-21h11v-12h10v-9h11v-11h31v-10h80v10h20v11h22v21h11v21h10v41h-10v21h-11v21h-11v11h-20v10h-21v11h-70v-11h-21v-10h-21v-11h-10v-21h-11
v-21h-9v-41zM173 246v20h-6zM183 237v20h-6zM194 226v20h-6zM225 216v20h-7zM343 393l-7 20v-20h7zM323 403l-7 20v-20h7zM301 414l-6 20v-20h6zM160 495h31v11h127v-11h31v-10h32v-10h20v-11h125v-9h10v-22h11v-51h-11v-9h-10v-12h-73v-103h-11v-21h-11v-20h-9v-22h-10v-11
h-11v-9h-20v-11h-22v-10h-30v-11h-93v-10h-21v-9h-11v-12h-10v-11h228v-11h62v-9h21v-11h10v-10h11v-11h21v-10h10v-145h-10v-20h-11v-22h-10v-9h-11v-11h-10v-10h-21v-10h-11v-11h-20v-9h-31v-11h-30v-11h-54v-11h-94v11h-95v11h-30v11h-21v9h-21v11h-10v10h-11v21h-9v9
h-11v33h-10v82h10v30h11v11h9v20h11v11h10v10h11v83h10v21h10v11h11v9h10v2h-10v9h-11v11h-10v22h-10v9h-11v32h-10v134h10v30h11v22h10v11h10v9h21v11h11v10h20v10z" />
    <glyph glyph-name="h" unicode="h" horiz-adv-x="686" 
d="M122 734h40v11h45v-11h10v-10h11v-93h-11v-135h-10v-11h10v-21h40v11h9v10h30v10h22v11h128v-11h30v-10h10v-10h11v-11h10v-9h11v-11h10v-22h11v-30h9v-42h11v-103h-11v-157h63v-9h21v-73h-11v-10h-10v-11h-178v11h-21v83h21v9h9v11h10v115h11v83h-11v31h-10v21h-9v10
h-11v12h-10v9h-21v11h-71v-11h-30v-9h-31v-12h-22v-10h-9v-11h-11v-10h-10v-198h10v-31h20v-11h53v-9h19v-73h-9v-10h-104v-11h-95v11h-20v92h20v11h10v11h11v478h-11v10h-21v10h-42v11h-10v10h-11v62h11v11h21v9h42v11h21v10z" />
    <glyph glyph-name="i" unicode="i" horiz-adv-x="550" 
d="M201 716h21v10h64v-10h21v-11h11v-10h10v-103h-10v-10h-11v-11h-10v-9h-11v-11h-21v-11h-43v11h-31v11h-11v9h-10v103h10v21h11v10h10v11zM118 507h94v11h53v-11h21v-30h11v-71h-11v-282h11v-10h21v-11h165v-10h21v-82h-10v-11h-20v-10h-66v10h-319v-10h-32v10h-21v21
h-11v52h11v20h10v10h104v11h20v10h21v271h-32v11h-59v-11h-54v11h-10v10h-11v71h11v11h82v9z" />
    <glyph glyph-name="j" unicode="j" horiz-adv-x="460" 
d="M261 705h21v11h85v-11h11v-10h10v-21h11v-52h-11v-30h-10v-10h-11v-11h-9v-9h-12v-11h-21v-11h-43v11h-21v11h-21v30h-10v62h10v30h11v11h10v10zM168 498h166v9h54v-9h11v-11h9v-280h11v-113h-11v-1h11v-186h-11v-52h-9v-20h-21v-11h-11v-10h-9v-9h-22v-12h-31v-10h-73
v-11h-43v11h-72v10h-42v12h-21v9h-11v10h-9v11h-11v61h11v21h9v10h11v11h43v-11h22v-10h20v-11h10v-10h21v-11h21v-9h60v9h21v11h10v10h10v11h20v468h-123v10h-32v11h-10v10h-11v52h11v19h21v11z" />
    <glyph glyph-name="k" unicode="k" horiz-adv-x="696" 
d="M121 737h41v9h43v-9h22v-166h-11v-270h11v-11h7v11h11v11h10v9h11v10h21v11h10v10h10v11h11v10h9v11h11v10h10v11h11v11h-11v71h11v11h200v-11h11v-10h9v-61h-9v-10h-33v-11h-21v-10h-20v-12h-21v-9h-20v-11h-11v-10h-9v-11h-21v-9h-11v-11h-10v-10h-12v-23h12v-20h10
v-10h11v-11h10v-21h11v-10h9v-11h11v-10h10v-11h10v-9h11v-10h10v-21h11v-11h20v-10h10v-11h20v11h73v-21h12v-52h-12v-20h-19v-10h-11v-11h-30v-10h-76v10h-21v11h-11v10h-10v11h-10v9h-11v12h-9v10h-11v11h-10v9h-11v11h-10v21h-11v10h-10v21h-11v10h-10v20h-11v11h-9v10
h-11v22h-28v-11h-11v-11h-10v-10h-11v-11h-9v-9h-11v-11h-11v-32h11v-21h11v-10h41v-11h21v-9h10v-62h-10v-11h-145v-10h-56v10h-9v11h-11v62h11v20h20v10h11v176h11v11h-11v115h11v124h-11v84h-72v9h-11v22h-11v51h11v10h11v11h50v10h22v11z" />
    <glyph glyph-name="l" unicode="l" horiz-adv-x="528" 
d="M148 737h53v9h74v-9h11v-83h9v-52h-9v-238h-11v-74h11v-114h-11v-41h11v-21h20v-11h135v-10h21v-11h10v-9h11v-52h-11v-21h-31v-10h-66v10h-161v-10h-55v10h-114v82h10v11h10v10h104v11h11v10h10v22h-10v71h10v396h-10v9h-61v-9h-85v9h-10v83h10v11h42v10h72v11z" />
    <glyph glyph-name="m" unicode="m" horiz-adv-x="776" 
d="M237 507h52v11h24v-11h40v-9h21v-11h21v-10h18v10h22v11h41v9h106v-9h21v-11h10v-10h11v-21h9v-10h11v-32h10v-227h-10v-73h10v-11h21v-10h31v-20h11v-52h-11v-21h-169v11h-9v10h-11v52h11v9h9v11h11v31h10v240h-10v21h-20v21h-71v-11h-9v-10h-11v-12h-11v-259h11v-11h11
v-10h30v-20h11v-52h-11v-21h-158v11h-11v71h11v11h10v10h10v63h11v166h-11v32h-10v9h-10v22h-11v11h-59v-11h-11v-10h-21v-12h-9v-9h-11v-250h11v-11h9v-10h42v-11h11v-9h10v-52h-10v-10h-11v-11h-157v11h-21v82h10v10h11v11h10v259h-10v12h-63v21h-11v62h11v19h30v11h54v9
h54v-9h59v9z" />
    <glyph glyph-name="n" unicode="n" 
d="M307 507h31v11h106v-11h11v-9h19v-11h22v-10h11v-9h9v-12h11v-21h10v-30h11v-291h10v-11h53v-10h19v-93h-19v-10h-97v10h-103v21h-10v52h10v9h11v11h9v10h11v11h10v124h9v52h-9v53h-10v21h-11v9h-9v12h-11v10h-21v11h-59v-11h-22v-10h-30v-12h-21v-9h-32v-21h-10v-93h-11
v-75h11v-61h10v-11h53v-10h21v-11h9v-9h10v-52h-10v-10h-9v-11h-210v11h-11v10h-10v52h10v20h11v10h20v11h10v271h-10v10h-73v11h-10v71h10v10h21v11h52v9h75v-9h11v-11h9v-19h29v9h11v10h21v11h41v9z" />
    <glyph glyph-name="o" unicode="o" horiz-adv-x="584" 
d="M429 249h11v11h-11v42h-10v21h-11v9h-9v32h-10v9h-12v12h-9v10h-21v11h-21v10h-112v-10h-21v-11h-9v-10h-11v-12h-10v-9h-11v-21h-10v-31h-11v-41h-10v-33h10v-42h11v-10h10v-20h11v-10h10v-11h11v-10h9v-11h11v-10h21v-11h31v-10h50v10h30v11h21v10h20v11h12v10h10v21h9
v20h11v21h10v42zM414 332l-6 20v-20h6zM395 373l-6 21v-21h6zM384 385l-7 20v-20h7zM375 395l-7 20v-20h7zM353 406l-6 20v-20h6zM332 416l-6 20v-20h6zM142 166v20h-6zM163 136v20h-7zM173 124v21h-7zM184 114v21h-7zM193 103v21h-6zM204 94v20h-6zM225 83v20h-6zM256 73
v20h-7zM191 518h43v10h84v-10h52v-11h31v-9h31v-11h10v-10h11v-9h9v-12h11v-10h10v-21h12v-11h10v-20h11v-21h9v-52h11v-113h-11v-32h-9v-51h-11v-21h-10v-10h-12v-11h-10v-9h-11v-11h-9v-10h-21v-12h-11v-9h-9v-11h-22v-10h-20v-11h-42v-10h-116v10h-32v11h-30v10h-21v11
h-11v9h-21v12h-9v10h-10v11h-11v20h-10v21h-12v31h-9v21h-11v175h11v31h9v21h12v20h10v11h11v21h10v10h20v12h10v9h11v10h21v11h21v9h20v11z" />
    <glyph glyph-name="p" unicode="p" horiz-adv-x="606" 
d="M205 168h10v-31h11v-11h20v-10h21v-11h80v11h21v10h21v11h9v10h11v11h10v19h11v21h11v21h9v84h-9v22h-11v9h-11v11h-10v10h-11v11h-9v10h-11v11h-10v10h-21v11h-101v-11h-20v-10h-11v-21h-10v-198zM193 252h12v20h-12v-20zM246 96v20h-6zM267 85v20h-6zM436 334l-6 20
v-20h6zM426 345l-7 20v-20h7zM416 355l-7 20v-20h7zM405 366l-7 20v-20h7zM395 376l-6 21v-21h6zM384 387l-6 21v-21h6zM374 397l-6 20v-20h6zM354 408l-7 20v-20h7zM226 106v20h-7zM109 510h20v11h34v-11h21v-10h49v10h31v11h127v-11h20v-10h31v-11h21v-10h11v-10h10v-11
h11v-10h9v-11h11v-20h10v-10h11v-33h10v-72h11v-123h-11v-21h-10v-22h-11v-19h-10v-20h-11v-11h-9v-10h-11v-11h-10v-11h-11v-10h-10v-10h-31v-11h-20v-10h-53v-11h-85v11h-49v-20h-10v-64h10v-41h20v-11h52v-11h11v-71h-22v-10h-198v10h-21v71h10v11h31v11h11v31h9v457h-9
v11h-11v10h-61v11h-11v71h11v10h20v11h52v10z" />
    <glyph glyph-name="q" unicode="q" horiz-adv-x="584" 
d="M121 240h10v-31h11v-21h10v-20h11v-10h10v-11h11v-10h9v-11h21v-10h42v-11h80v11h21v10h11v11h9v239h-9v11h-11v10h-10v11h-122v-11h-21v-10h-11v-11h-20v-10h-10v-21h-11v-11h-10v-20h-11v-31h-10v-43zM256 408v10h3l-6 20v-30h3zM173 126v21h-7zM184 117v20h-7z
M193 106v20h-6zM214 96v20h-6zM256 85v20h-7zM375 387l-7 21v-21h7zM364 397l-7 20v-20h7zM353 408l-6 20v-20h6zM163 137v21h-7zM408 521h11v9h43v-9h11v-113h-11v-509h11v-11h22v-11h41v-82h-31v-10h-169v10h-21v21h-9v50h20v11h21v11h10v11h11v9h9v94h-9v11h-71v-11h-74
v11h-32v10h-31v11h-21v10h-21v10h-21v11h-9v11h-11v21h-10v9h-10v21h-12v31h-9v21h-11v154h11v41h9v33h12v10h10v20h10v11h11v10h9v11h11v10h10v10h21v11h21v10h41v11h127v-11h32v-10h39v10h9v11z" />
    <glyph glyph-name="r" unicode="r" horiz-adv-x="606" 
d="M389 521h41v9h44v-9h41v-11h21v-10h10v-11h11v-92h-11v-10h-10v-11h-106v11h-70v-11h-21v-10h-20v-11h-11v-10h-10v-11h-11v-9h-11v-11h-11v-11h-9v-177h9v-10h11v-11h156v-10h10v-20h11v-52h-11v-10h-10v-11h-345v11h-9v10h-11v72h11v10h51v11h21v10h10v21h11v126h-11
v114h-10v10h-21v11h-19v-11h-51v-10h-22v21h-11v81h11v11h61v10h62v11h66v-21h9v-11h11v-31h10v-21h8v11h21v10h10v11h11v10h20v10h21v11h21v10h21v11z" />
    <glyph glyph-name="s" unicode="s" horiz-adv-x="504" 
d="M158 521h62v9h65v-9h41v-11h84v-10h9v-11h11v-41h10v-93h-10v-30h-20v-11h-24v11h-31v20h-11v21h-10v31h-10v11h-31v10h-102v-10h-20v-11h-10v-10h-11v-33h11v-10h10v-11h31v-9h73v-10h62v-12h31v-10h21v-11h21v-9h9v-11h11v-10h10v-11h12v-31h9v-112h-9v-11h-12v-10h-10
v-22h-11v-10h-9v-10h-21v-11h-11v-10h-21v-11h-61v-9h-107v9h-124v11h-11v10h-10v11h-11v42h-9v101h9v21h11v11h54v-11h10v-10h12v-30h10v-21h11v-11h9v-10h21v-11h20v-10h102v10h20v11h21v10h10v21h11v22h-11v10h-20v11h-31v9h-42v11h-82v10h-32v11h-20v10h-21v11h-11v10
h-11v11h-9v19h-11v22h-10v93h10v30h11v11h9v10h11v11h11v10h11v10h10v11h20v10h21v11z" />
    <glyph glyph-name="t" unicode="t" horiz-adv-x="540" 
d="M117 614h22v11h54v-11h10v-21h11v-51h-11v-21h11v-11h42v-10h7v10h165v11h24v-11h10v-10h11v-82h-21v-10h-259v-83h-10v-199h10v-10h10v-11h11v-10h91v10h73v11h30v10h65v-10h22v-72h-11v-10h-22v-11h-21v-10h-30v-11h-53v-9h-93v-11h-64v11h-31v9h-20v11h-21v21h-12v10
h-9v21h-11v279h11v53h-21v11h-53v10h-10v71h10v11h63v10h11v20h9v84z" />
    <glyph glyph-name="u" unicode="u" 
d="M58 500h72v10h66v-10h9v-155h-9v-147h9v-30h11v-10h10v-21h11v-11h21v-10h31v-11h79v11h22v10h30v11h11v10h10v11h11v218h-11v11h-10v10h-52v11h-11v71h11v10h52v11h52v10h44v-10h10v-31h11v-93h-11v-229h11v-10h21v-11h51v-21h10v-61h-10v-10h-41v-11h-21v-10h-31v-11
h-44v11h-22v10h-9v11h-19v-11h-31v-10h-30v-11h-53v-9h-74v9h-32v11h-21v10h-9v11h-11v10h-21v21h-10v11h-11v30h-10v63h-11v50h11v12h-11v50h11v11h-11v95h-10v10h-51v11h-11v10h-10v51h10v20h21v11z" />
    <glyph glyph-name="v" unicode="v" horiz-adv-x="692" 
d="M630 497h8v-64h-7v-25h-41v-11h-10v-21h-11v-10h-10v-32h-11v-31h-10v-20h-11v-31h-10v-21h-11v-21h-9v-11h-11v-30h-11v-11h-11v-31h-9v-30h-11v-21h-10v-22h-9v-20h-11v-11h-10v-21h-12v-9h-75v9h-9v11h-11v21h-11v10h-11v32h-9v21h-10v20h-11v19h-10v22h-11v21h-10v31
h-11v10h-10v32h-11v21h-9v30h-11v22h-10v20h-11v31h-9v21h-12v11h-72v10h-10v11h-11v60h11v11h10v10h179v-10h42v-11h10v-71h-31v-10h-11v-23h11v-20h10v-32h11v-19h10v-22h9v-31h11v-21h10v-21h12v-21h9v-21h11v-9h10v-10h11v-11h7v11h11v10h11v30h10v21h11v32h9v21h10v30
h11v31h9v21h12v20h10v34h-31v10h-41v20h-10v51h10v11h20v10h165v11h44v-24z" />
    <glyph glyph-name="w" unicode="w" horiz-adv-x="772" 
d="M246 521v-11h42v-81h-11v-11h-72v-10h-11v-34h11v-41h10v-41h11v-31h9v-42h11v-21h11v-21h7v11h11v21h10v31h11v41h10v33h10v19h11v32h10v9h20v11h34v-11h11v-9h10v-21h11v-20h10v-32h11v-31h10v-21h11v-31h9v-11h29v42h10v32h11v42h10v40h10v54h-10v10h-73v11h-9v9h-11
v51h11v21h19v11h211v-11h10v-10h10v-11h11v-51h-11v-9h-10v-11h-20v-10h-22v-21h-11v-21h-9v-63h-10v-41h-11v-21h-9v-31h-11v-31h-11v-52h-11v-21h-10v-41h-10v-21h-10v-21h-11v-10h-10v-11h-64v11h-11v21h-10v20h-11v22h-10v30h-11v42h-10v31h-11v31h-17v-31h-11v-21h-10
v-41h-11v-31h-10v-32h-10v-20h-11v-11h-10v-21h-65v11h-10v10h-11v21h-10v32h-11v30h-9v42h-11v31h-10v31h-11v31h-11v32h-9v41h-11v41h-10v21h-11v21h-20v11h-32v25h-7v65h7v23h210z" />
    <glyph glyph-name="x" unicode="x" horiz-adv-x="674" 
d="M38 497h10v11h169v-11h51v-20h11v-51h-11v-10h-10v-10h-10v-2h10v-20h10v-11h11v-11h10v-9h11v-11h39v11h11v9h9v11h11v11h10v11h11v11h-21v10h-11v10h-9v51h9v11h11v9h199v-9h9v-82h-50v-10h-22v-11h-9v-11h-11v-11h-10v-9h-21v-11h-11v-21h-9v-9h-12v-22h-10v-11h-9
v-10h-11v-10h11v-11h9v-10h10v-11h12v-10h9v-21h21v-11h11v-10h10v-20h11v-10h9v-11h12v-11h10v-11h20v-9h41v-11h11v-10h11v-20h10v-52h-10v-10h-231v10h-10v82h30v12h-9v10h-11v21h-10v10h-11v11h-9v9h-11v11h-11v10h-28v-10h-11v-20h-10v-11h-21v-22h-10v-9h-11v-10h-9
v-12h40v-10h11v-61h-11v-21h-209v10h-11v82h11v11h31v9h30v11h11v11h10v11h11v10h10v9h11v21h10v11h21v21h11v10h9v11h11v10h10v12h-10v19h-11v11h-9v11h-11v11h-10v9h-11v11h-10v10h-11v11h-10v9h-11v11h-10v11h-11v11h-20v10h-62v10h-11v72h11v9z" />
    <glyph glyph-name="y" unicode="y" horiz-adv-x="650" 
d="M38 497h61v11h23v-11h9v11h33v-11h83v-9h21v-72h-11v-10h-30v-10h-11v-1h11v-22h9v-20h11v-21h10v-21h11v-21h10v-21h9v-9h12v-32h10v-21h11v-10h9v-11h8v11h11v10h10v32h11v30h10v21h11v21h10v31h10v31h10v33h-51v10h-11v10h-10v51h10v20h93v11h128v-11h10v-20h9v-51h-9
v-20h-31v-10h-32v-11h-10v-22h-11v-30h-9v-31h-11v-22h-10v-30h-11v-21h-10v-31h-11v-11h-10v-30h-10v-21h-10v-21h-10v-31h-11v-11h-10v-20h-12v-22h-9v-9h-11v-32h-10v-21h-11v-20h-9v-20h-11v-32h-10v-21h-12v-10h-9v-21h-10v-20h-21v-11h-11v-10h-20v-11h-11v-10h-41
v-10h-55v10h-30v10h-11v11h-10v71h10v21h11v11h74v-11h39v11h22v20h9v21h11v11h10v20h11v21h10v20h10v21h11v32h-11v21h-10v21h-10v21h-11v10h-10v20h-11v21h-9v11h-11v21h-11v10h-11v21h-9v30h-11v22h-10v20h-11v21h-9v20h-11v22h-11v11h-10v10h-61v20h-12v51h12v20z" />
    <glyph glyph-name="z" unicode="z" horiz-adv-x="528" 
d="M76 497h11v11h230v-11h70v11h65v-11h10v-9h11v-72h-11v-20h-10v-11h-11v-11h-9v-11h-11v-9h-11v-11h-11v-10h-9v-11h-11v-9h-10v-11h-9v-11h-11v-11h-10v-10h-12v-9h-10v-11h-11v-10h-9v-11h-11v-10h-10v-11h-11v-10h-9v-11h-22v-10h-11v-20h-9v-11h-21v-10h-10v-12h-11
v-9h-10v-10h-11v-1h21v-11h49v11h23v-11h60v11h52v9h21v11h10v11h11v11h10v19h11v21h20v11h34v-11h10v-122h-10v-42h-11v-11h-10v-10h-376v10h-31v11h-10v31h-11v51h11v9h10v22h10v11h12v10h9v9h11v11h10v10h11v11h9v10h11v11h10v10h12v11h20v21h10v9h11v11h10v10h9v12h11v9
h11v10h11v11h9v10h21v11h11v9h9v11h11v22h11v9h21v2h-174v-10h-21v-22h-11v-20h-9v-32h-21v-9h-33v9h-12v21h-10v52h10v61h12v32h9v9z" />
    <glyph glyph-name="braceleft" unicode="{" horiz-adv-x="323" 
d="M136 741h12v7h53v-7h41v7h45v-7h4v-8h4v-80h-4v-16h-22l3 4l-15 -12h-86l6 -17l-11 -4l7 -22l-9 -3l11 -29l-10 -4l6 -21l-8 -4l8 -19l-12 -4l14 -39l-19 -5q-2 -9 -4 -18.5t-3 -14.5l-12 -5l3 7l-22 -30l32 -26l32 -65l-15 -5l6 -20l-9 -4l10 -29l-8 -3l11 -31l-11 -4
l7 -19l-9 -3l14 -39l-10 -4l6 -20l-9 -4l2 -5h36v-8h41v8h45v-8h4v-7h4v-80h-4v-16h-22l3 3l-15 -10h-90v-5h-14l-10 10l5 -6l-57 3h-14l-2 38l-10 31l9 3l-6 21l8 3l-6 20l9 4l-11 30l9 4l-11 30l11 3l-11 29l10 4l-11 31l11 4l-6 20l7 3l-6 20l9 3l-4 11l-42 32l-19 64
l50 54l-2 -9l13 47l-10 32l8 3l-11 31l9 4l-6 20l10 3l-9 31l7 2l-11 32l11 2l-11 30l9 3l-11 31l11 3l-5 16h65l8 -8z" />
    <glyph glyph-name="bar" unicode="|" horiz-adv-x="146" 
d="M16 -75l12 4l-15 40l9 4l-11 29l11 4l-11 30l10 4l-10 29l10 3l-7 21l9 3l-7 20l10 4l-12 30l10 4l-12 30l12 3l-12 29l11 4l-12 31l12 4l-7 20l8 3l-7 20l10 3l-10 30l10 3l-15 42l9 3l-10 29l10 3l-7 21l9 3l-12 30l12 5l-10 30l9 3l-10 29l9 3l-11 31l9 4l-7 20l11 3
l-10 31l8 2l-11 32l11 2l-11 30l9 3l-11 31l11 3l-7 20l9 3l-11 31l9 4l-7 20l11 3l-3 10l57 20l2 -10l10 3l3 -10l11 4l28 -78l-12 -4l7 -18l-9 -3l7 -21l-11 -4l8 -21l-10 -2l11 -30l-11 -3l11 -30l-10 -3l8 -22l-9 -3l11 -29l-11 -4l7 -21l-8 -4l7 -19l-11 -4l14 -39
l-8 -3l12 -30l-13 -5l11 -29l-10 -4l7 -19l-9 -3l12 -31l-11 -4l13 -29l-13 -4l7 -21l-9 -4l10 -29l-8 -3l11 -31l-11 -4l6 -19l-8 -3l14 -39l-11 -4l7 -20l-9 -4l7 -20l-10 -4l15 -39l-9 -3l12 -31l-13 -4l11 -30l-9 -3l14 -41l-10 -3l15 -41l-9 -3l4 -9l-11 -3l3 -10
l-30 -11q4 -10 4 -11l-27 -9l-4 10l-8 -3l-4 10l-8 -4z" />
    <glyph glyph-name="braceright" unicode="}" horiz-adv-x="323" 
d="M166 740h12l-4 -6l8 9h65l-6 -16l14 -3l-14 -31q3 -2 7 -2.5t5 -0.5l-14 -29q4 -2 8 -2.5t6 -0.5l-14 -32q8 -2 9 -2l-10 -31q6 -3 10 -3l-7 -20l9 -3l-10 -32q2 -1 4.5 -2t3.5 -1l-10 -32l13 -47l-2 9l50 -54l-19 -64l-42 -32l-4 -11q7 -3 9 -3l-6 -20l7 -3l-6 -20
l10 -3l-10 -32q10 -4 12 -4l-14 -28q10 -4 14 -4l-14 -30l6 -2l-8 -32l10 -4l-6 -20l8 -3l-7 -20l11 -4l-10 -30l65 -21l-84 -21h-55l5 6l-10 -10h-14v8h-91l-13 5l2 -1h-22v16h-4v80h4v7h4v8h45v-8h41v8h36l2 5l-10 4l7 19l-11 5l16 39q-8 3 -10 3l6 19l-9 3l10 32
q-2 0 -6 2q-2 1 -3 1l10 30q-6 3 -9 3l7 20l-15 5l32 65l32 27q-5 7 -11.5 14t-11.5 14l4 -6l-12 5l-7 32l-19 6l13 40q-4 1 -6.5 2t-4.5 1l8 20l-9 3l7 21l-12 4l14 29l-6 2t-4 1l6 22l-9 3l6 22h-88l-13 5l2 -1h-22v16h-4v80h4v8h4v7h45v-7h41v7h53v-8z" />
    <glyph glyph-name="asciitilde" unicode="~" horiz-adv-x="523" 
d="M32 449h31v11l211 14v-15l110 -28v10l81 17v-14h11v-10h11v-94h-11v-20l-68 -10v-13l-70 14q-24 5 -50 10.5t-48.5 10l-37.5 7.5t-16 3q-9 0 -15.5 -0.5t-14.5 -2.5l-15 -3l-90 -12l1 1q-2 -1 -4 -1h-6h-10v9h-10v106h10v10z" />
    <glyph glyph-name="exclamdown" unicode="&#xa1;" horiz-adv-x="212" 
d="M137 528v-11h-57v11h-9v11h-11v11h-11v9h-11v12h-10v21h-11v51h11v44h10v9h11v12h22v10h31v11h35v-11h21v-10h10v-12h11v-9h10v-128h-10v-9h-11v-11h-10v-11h-21zM146 -45v-21h-75v10h-22v12h-11v20h-10v32h-11v63h11v74h10v74h11v85h11v192h11v31h21v11h34v-11h11v-11h9
v-53h12v-202h10v-84h11v-32h10v-148h-10v-32h-11v-9h-17l3 2z" />
    <glyph glyph-name="cent" unicode="&#xa2;" horiz-adv-x="540" 
d="M255 631h11v10h44v-10h12v-33h10v-41h11v-12h22v-9h41v-11h21v-11h12v-11h9v-11h12v-20h10v-54h11v-52h-11v-31h-10v-11h-46v11h-21v10h-10v11h-10v32h-12v31h-9v11h-11v11h-114v-11h-21v-11h-12v-11h-21v-11h-10v-9h-11v-22h-10v-10h-12v-32h-9v-85h9v-22h12v-21h10v-11
h11v-10h10v-12h11v-10h22v-11h10v-10h145v10h43v11h31v10h22v12h24v-12h22v-84h-11v-10h-11v-11h-21v-10h-21v-10h-33v-12h-41v-10h-33v-11h-22v-10h-9v-21h-11v-85h-11v-31h-11v-12h-44v12h-10v9h-11v128h-10v21h-33v10h-21v12h-22v10h-9v10h-12v11h-10v10h-11v12h-10v9
h-10v22h-12v21h-10v21h-11v201h11v32h10v21h12v21h10v11h10v22h11v10h10v10h21v11h11v11h11v11h21v11h43v9h21v12h10v19h11v44h10v11z" />
    <glyph glyph-name="sterling" unicode="&#xa3;" horiz-adv-x="599" 
d="M31 463h27v10h82v29h9v14h-9v9h-9v10h-83v8h-19v87h19v11h253v-11h19v-17h8l-4 -40l-4 -11v-9h-10v-10h-19v-8h-46v-10h-7v-9h-11v-6h11v-47h43v10h85v-10h10v-8h9l-4 -78l-5 -10v-19h-37v-8h-112v-216h11v-19h18v-10h88v10h73v8h28v11h19v45h8v56h10v8h59v-8h10v-130h8
l-3 -59l-5 -11v-26h-19v-10h-78v10h-379v9h-17v17h-10v51h10v10h12l5 9v10h60l5 8v227h-99v8h-10v10h-8l2 86l6 11v8z" />
    <glyph glyph-name="currency" unicode="&#xa4;" horiz-adv-x="691" 
d="M475 509l41 29l4 -8l29 20q-4 8 -4 7l41 28l3 -6q1 0 1.5 1t1.5 1l8 -9l-4 5q1 0 1.5 1t1.5 1l36 -52l-2 -2l18 -26h-23q3 -5 3 -7l-72 -50v-7h11v-11h11v-21h11v-22h9v-53h12v-115h-12v-33h-9v-52h-11v-21h-11v-11h-11v-11h-2l20 -13q1 2 2.5 4t1.5 3l47 -32l-5 -8
q7 0 13.5 -0.5t7.5 -0.5l-7 -10l3 -1l-14 -14l-35 -52l-2 2l5 6l-10 -11l-1 2l5 12l-9 -16l-96 66h-19v-11h-21v-11h-44v-10h-117v10h-33v11h-32v11h-20v1l-104 -72l-10 16l6 -11q-1 0 -1 -1t-1 -1l-9 10l5 -6q-1 0 -1 -0.5t-1 -0.5l-36 51l-13 15l1 1l-5 9l21 1l-5 8l47 33
l4 -8q8 6 13 8.5t15 10.5q-3 4 -3 6l6 4h-4v22h-11v31h-10v22h-11v179h11v31h10v22h11v21h11v1l-92 63l3 6l-15 12l10 14l-3 3l37 52l2 -2l1 1l7 1q0 1 1 2.5t1 2.5l42 -28l-4 -7l28 -20q1 2 2.5 4.5t1.5 3.5l47 -32l-2 -3h17v11h22v10h21v11h43v11h87v-11h53v-11h32v-10z
M503 255h12v11h-12v42h-10v22h-11v10h-10v33h-10v9h-12v11h-9v11h-22v11h-21v10h-115v-10h-21v-11h-10v-11h-11v-11h-10v-9h-12v-22h-9v-32h-11v-42h-11v-34h11v-42h11v-10h9v-21h12v-11h10v-11h11v-10h10v-12h11v-9h22v-11h31v-11h51v11h31v11h22v9h20v12h12v10h10v22h10v5
l-26 37h47v43zM494 158l5 33h-17v-16zM468 382l-6 21v-21h6zM457 393l-7 21v-21h7zM448 404l-7 21v-21h7zM426 415l-7 21v-21h7zM404 425l-6 21v-21h6zM210 170v21h-7zM231 139v20h-7zM241 127v21h-7zM252 117v21h-6zM262 106v20h-7zM273 96v21h-7zM295 85v21h-7zM326 75v20
h-7zM488 340l-6 20v-20h6zM173 467l2 -11v-10l1 3l3 -15l8 11l-9 10l4 12h-9zM192 42v42h-10v-42h10z" />
    <glyph glyph-name="yen" unicode="&#xa5;" 
d="M228 286v-11h69v31h-10v12h-199v10h-22v21h-11v63h11v12h11v10h64v10h55v-11q7 -1 13 -3.5t12 -4.5v6q-6 6 -8 6l-2 12h-12v22h-10v14q-8 6 -10 6l-2 13h-11v21h-11v11h-10v22h-13v12h-10v21h-10v15q-3 2 -5 4t-4 2l-3 13h-10v11h-44v10h-22v96h22v13h89v-13h20v13h69
v-13h55v-21h11v-52h-11v-11h-11v-12h-44v-13h10v-22h12v-22h10v-12h12v-21h11v-11h11v-22h10v-22h11v-23h12v-10h10v-11h12v-23h19v23h12v11h10v10h11v23h12v22h11v22h10v22h12v22h10v10h11v37h-33v10h-21v12h-12v74h12v10h165v13h46v-13h21v-84h-11v-12h-10v-10h-33v-22
h-10v-12h-13v-11h-10v-21h-11v-23h-11v-22h-12v-11h-10v-10h-12v-33h-10v-12h-12v-22h-11v-3h134v-10h11v-75h-11v-21h-64v-10h-24v10h-30v-10h-65v9h-17v-52h200v-22h11v-73h-11v-11h-200v-31h12v-23h99v-11h22v-11h11v-64h-11v-21h-34v-11h-35v11h-64v-11h-102v11h-98v21
h-10v52h10v23h22v11h56v10h10v13h10v20h-62v11h-158v11h-11v11h-11v62h11v11h11v11h116v11h35z" />
    <glyph glyph-name="brokenbar" unicode="&#xa6;" horiz-adv-x="156" 
d="M16 12v280h12v109l107 -7v-402h-10v-11h-11v-10h-77v10h-9v31h-12zM135 409h-107v208h-12v124h12v12h9v10h66v-10h22v-43h10v-301z" />
    <glyph glyph-name="section" unicode="&#xa7;" horiz-adv-x="444" 
d="M159 587h47v7h53v-7h32v-9h64v-7h8v-9h8v-31h8v-82h-8v-24h-16v-8h-21v9q-6 2 -11 6t-10 4l-3 12q-4 4 -6 4l-2 12l-2.5 2.5t-2.5 1.5l-3 13h-8v9h-24v7h-75v-7h-15v-9h-13l-3 -7v-16h9v-7h7v-9h24v-6h57v-9h47v-9l18 -2h19v-8h8v-5h10v-7h8v-8h8v-9h8v-8h8v-23h7v-97
h-11l-4 -9v-7h-11v-6l-5 -10v-9h-2v-2h8v-22h7v-97h-11l-4 -9v-7h-11v-6l-5 -10v-9h-8v-7h-20l-4 -9v-7h-16v-9h-47v-8h-85v8h-96v9h-8v7h-8v9h-8v32h-8v65h2l1 12l8 10v7l5 10v9h34v1h-8v7h-8v9h-8v32h-8l-2 40l3 51l7 11q1 4 1 7.5v5.5l5 10v9h12l5 7v9h9v1h-8v15h-8v16
h-8l3 72l7 10q1 4 1 7.5v5.5l5 11v8h12l4 8v8h12l4 8v7h8v9h16v7h16v9zM99 178v-1h7v-8h9v-23h7v-16h9v-8h7v-8h16v-8h15v-8h75v8h16v8h21l5 8v5l6 11v6h-8v8h-15v8h-25v7h-31v4h-30v4l-28 3h-56zM337 393v-2l2 -3zM278 276h14v10q-4 4 -6 4l-2 12l-2.5 2.5t-2.5 1.5l-3 13
h-7v4h-7v4q-8 2 -11 2h-20v6h-62v-8h-15v-8h-13l-3 -8l1 -15h8v-7h7v-9h24v-6h57v-9l34 3h9v8zM292 263h25l-6 18l6 19h-15v-16h-8v-8h-2v-13zM140 275v13l-1 8h-1v16h-6q0 1 -0.5 1.5t-0.5 2.5l-2 -4h-3l2 -5l-4 -12h8l1 -3v3h1zM235 244v21h-7zM178 253v21h-7zM237 335
l-6 21v-21h6zM275 323l-6 20v-20h6zM269 327l-7 21v-21h7zM149 268v4l-2 17h-5zM156 259v4l-2 17h-4zM143 322q0 2 2 9t2 9l-7 -21h1z" />
    <glyph glyph-name="dieresis" unicode="&#xa8;" horiz-adv-x="422" 
d="M31 904v10h10v11h33v10h23v-10h32v-11h11v-10h9v-106h-9v-21h-11v-10h-32v-11h-23v11h-33v22h-10v9h-11v106h11zM272 894v20h21v11h21v10h23v-10h32v-11h11v-10h10v-115h-10v-12h-11v-10h-10v-11h-56v11h-22v22h-9v31h-11v74h11z" />
    <glyph glyph-name="copyright" unicode="&#xa9;" horiz-adv-x="690" 
d="M537 345h14v48h-14v53h-13v26h-14v12h-12v41h-13v12h-14v14h-12v13h-26v13h-27v14h-169v-14h-26v-13h-12v-13h-15v-14h-12v-5l-9 -7l-6 -24l-5 -4q-1 -5 -1.5 -10t-2.5 -10v-19h-16v-51h-13v-76h13v-53h15v-12h12v-26h13v-13h5l13 -18l-6 10q1 0 5.5 -1.5t9.5 -3.5v-13
h12v-15h14v-11h20l12 -18l-6 9q5 0 12 -1.5t16 -3.5q13 -4 12 -4.5t-5 -0.5l4 -8h91v12h37v15h28v11h25v15h14v12h13v27h12v26h14v26h13v53zM516 484l-6 21v-21h6zM492 537l-7 21v-21h7zM478 551l-7 21v-21h7zM465 564l-6 21v-21h6zM440 577l-7 21v-21h7zM413 591l-7 20v-20
h7zM147 245v21h-7zM172 207v20h-7zM199 180v21h-6zM211 165v21h-7zM225 154v21h-7zM235 687h54v13h81v-13h65v-14h41v-12h30l12 -18l-5 10q1 0 3 -0.5t11 -5.5v-12h14v-12h11v-15h14v-13h14v-26h14v-14h12v-26h15v-27h11v-65h15v-106l-10 -6q-1 -5 -2 -10.5t-3 -11.5
q1 1 1 -17h-12v-64h-15v-27h-12v-6l-12 -9q-1 -4 -1.5 -6.5t-1.5 -5.5h-13v-7l-11 -7v2q-1 -4 -6 -14h-8v-12h-27v-7l-10 -8l1 6q-2 -5 -4 -9l-4 -8h-9v-14h-27v-13h-26v-15h-54v-12h-118v12h-42v15h-39v13h-25v14h-15v11h-26v15h-12v12h-13v14h-14v26h-13v26h-15v40h-11v27
h-14v189h14v38h11v27h15v26h13v14h14v26h13v13h26v15h12v12h15v12h25v14h28v12h25v14zM264 571h24v8h112v-8h23v-7h15v-7h9v-8h7v-8h7v-7h7v-16h8v-38h8l-3 -46l-5 -10v-16h-8v-8h-50v8h-16v16h-7v45h-8v7h-7v9h-24v7h-47v-7h-15v-9h-16v-7h-8v-8h-7v-7h-8v-8h-8v-7h-11v-5
l-5 -10v-24h-6v-43h6v-22h9v-7h7v-16h8v-8h8v-8h15v-7h16v-7h38v-8h32v8h46v7h15v7h22v8h53v-8h7v-64h-12l-3 -7v-9h-16v-7h-22v-7h-16v-8h-38v-8h-23v-8h-104v8h-31v8h-24v8h-6v7h-8v7h-8v9h-7v7h-8v9h-7v20q-4 4 -6 4l-3 12q-1 1 -2 2.5t-2 1.5l-3 12h-9v22h-6v96h6v46h12
v4l7 11v5l6 11v15h7v7h8v8h10l5 8v8h8v7h6v8h16v8h8v7h22v7z" />
    <glyph glyph-name="ordfeminine" unicode="&#xaa;" horiz-adv-x="370" 
d="M223 766q4 0 13.5 -7.5t13.5 -16.5l-6 14q3 0 8.5 -5.5l11.5 -11.5q4 3 7 3l3 -11h8v-83q0 -18 -5 -23v-64l7 8q1 0 1 -0.5t1 -0.5q1 -1 5 -1h4q1 0 1.5 0.5t2.5 0.5q3 0 7 -4.5t8 -11.5t7 -14t3 -11q0 -23 -4.5 -35t-22.5 -12q-3 0 -7 3q-2 -3 -3.5 -5t-2.5 -3v-4
q-6 0 -14.5 -0.5t-14.5 -0.5h-21q-5 0 -14 13l-1 11q0 -14 -0.5 -15t-1.5 2q-1 0 -2.5 0.5t-6.5 0.5l3 2q-5 -2 -7.5 -2.5t-3.5 -0.5h-2l2 4l-6 -6l5 -8h-97l5 5q-5 -5 -6 -5.5t-2 -0.5q-5 0 -13 14l4 -8q-5 0 -12 4t-12 12l2 -5q-5 0 -10 3t-8 11l-9 -7v16l-6 -2v8.5
t-0.5 12.5t-0.5 12.5v8.5v23q0 2 2.5 10.5t6.5 16.5l-12 4q20 20 26.5 25.5t8.5 6.5v4h11v5h6l-3 3q-6 -2 -12 -2v58v4q-5 9 -4 15.5t5.5 10t10.5 5.5t10 2l-3 -7q4 7 6 9t5 2q2 5 5 5.5t7 0.5l-5 -8q10 13 12 13l5 2l-5 -9q7 11 13 11.5t12 -0.5q2 6 7 6h74zM141 672
q0 -7 -1 -10h22q4 5 9 5q2 0 6 -3t7 -6l-1 3h4q1 0 1.5 0.5t1.5 0.5l2 -3q-1 2 1 2q2 2 5.5 3.5t5.5 2.5q2 2 3.5 2t3.5 1l-1 -2l2 1l-14 16l1 -2q-2 2 -8 2h-11l-16 -2l4 6q-2 -3 -6 -7t-5 -4t-3 2q-4 -6 -9 -6q-2 0 -4 -2zM146 478v-8h101v8h77v-8h9v-8h7v-83h-7v-16h-33
v-8h-265v8h-8v8h-8v91h8v8h24v8h95zM154 586q-2 -2 -3 -3.5t-3 -3.5q7 -6 18 -15l-52 1l3 7l-4 -7q1 -1 2 -1l9 -8v2h49q2 1 4.5 2t4.5 1q1 -1 0.5 -1.5t1.5 -0.5q2 6 4.5 7.5t4.5 1.5l4 4t4 2q7 0 7 2v15q-1 -8 -4 -9.5t-5 -1.5h-49zM140 586v9l-2 -8q-3 3 -5.5 3.5
t-2.5 -1.5l-2 -15q-4 -4 -4 -4.5t2 -0.5q1 0 1.5 -0.5t1.5 -0.5q6 0 9 7q6 0 10 4q-6 6 -8 7zM110 570v3q0 1 1 2l-1 -5q-3 4 -4.5 3t-1.5 -15l-1 -3l6 11l-1 -8l2 2t3 5zM103 555q-2 -8 -4 -13t3 0zM131 537q0 10 -7 19zM119 578l-2 -6z" />
    <glyph glyph-name="guillemotleft" unicode="&#xab;" horiz-adv-x="612" 
d="M19 264l4 10v71l-4 10l228 169l3 -11l28 14l10 -18l3 3q1 1 2 1l45 -76l-10 -5l3 -8l-5 -4l4 -10l-63 -36l-8 9l-87 -74l86 -73l7 10l65 -38l-4 -10l5 -3l-3 -8l10 -5l-45 -76l-5 3l-11 -17l-27 14q-3 -8 -3 -11zM264 264l4 10v71l-4 10l228 169l4 -11l27 14l10 -18l3 3
q1 1 2 1l45 -76l-10 -5l4 -8l-6 -4l4 -10l-62 -36l-9 9l-87 -74l86 -73l8 10l64 -38l-4 -10l6 -3l-4 -8l10 -5l-45 -76l-5 3l-11 -17l-26 14q-4 -10 -4 -11z" />
    <glyph glyph-name="logicalnot" unicode="&#xac;" horiz-adv-x="470" 
d="M316 251h-274v10h-11v11h-10v105h10v10h31v11h120v-11h136v11h96v-13l5 -1h16v-281h-10v-11h-11v-11h-77v11h-10v31h-11v128z" />
    <glyph glyph-name="uni00AD" unicode="&#xad;" horiz-adv-x="470" 
d="M31 387h31v11h120v-11h136v11h96v-11h12v-10h10v-94h-10v-22h-43v-10h-340v10h-12v11h-10v105h10v10z" />
    <glyph glyph-name="registered" unicode="&#xae;" horiz-adv-x="690" 
d="M235 671h54v13h81v-13h65v-14h41v-12h30l12 -18l-5 10q1 0 3 -0.5t11 -5.5v-12h14v-12h11v-15h14v-13h14v-26h14v-14h12v-26h15v-27h11v-65h15v-106l-10 -6q-1 -5 -2 -10.5t-3 -11.5q1 1 1 -17h-12v-64h-15v-27h-12v-6l-12 -9q-1 -4 -1.5 -6.5t-1.5 -5.5h-13v-7l-11 -7v2
q-1 -4 -6 -14h-8v-12h-27v-7l-10 -8l1 6q-2 -5 -4 -9l-4 -8h-9v-14h-27v-13h-26v-15h-54v-12h-118v12h-42v15h-39v13h-25v14h-15v11h-26v15h-12v12h-13v14h-14v26h-13v26h-15v40h-11v26h-14v190h14v38h11v27h15v26h13v14h14v26h13v13h26v15h12v12h15v12h25v14h28v12h25v14z
M537 329h14v48h-14v53h-13v26h-14v12h-12v40h-13v13h-14v14h-12v13h-26v13h-27v14h-169v-8h25v-5h38v5h36v-5h57v-6h17v-6h5v-5h7v-6h5v-6h5v-6h6v-5h7v-12h5v-23h6v-80h-6v-18h-5v-12h-7v-4h-6v-13h-10v-5h-7v-6h-11v-7h-6v-3h6v-5h6v-7h5v-11h7v-6h5v-5h5v-12h6v-11h7v-6
h5v-11h6v-11h5v-12h12v-6h11v-6h26v20h14v26h13v53zM220 480v6h-23v5h-16v6h-6v24h-3v-5l-9 -8l-6 -23l-5 -4q-1 -5 -1.5 -10t-2.5 -10v-19h-16v-51h-13v-76h13v-53h15v-12h12v-26h13v-13h5l9 -13v1l-2 4l2 -1v23h5v5h6v6h17v6h12v238h-6zM225 161v-3h20l12 -17l-6 9
q5 0 12 -1.5t16 -3.5q13 -4 12 -4.5t-5 -0.5l4 -8h91v12h37v14h7v3h-6v6h-5v5h-5v11h-7v6h-5v12h-6v5h-6v12h-5v11h-6v12h-6v11h-5v11h-6v12h-6v11h-12v6h-5v11h-5v6h-6v5h-11v7h-7v5h-21v-5h-4v-79h4v-6h13v-6h33v-5h12v-58h-6v-6h-111zM461 222v20h-5v12h-6v11h-5v11h-7v6
h-6v11h-5v12h-5v5h-7v6h-5v11h-6v7h-6v5h-5v3h5v2h-5v7h-6v5h-11v6h-12l4 -15l-4 -15h17v6h3l3 -8v8h1l5 -14v12l5 -18v13l6 -18v12l6 -18v6l5 -18v15l7 -20v8l5 -14v7l5 -18v6l6 -18v15l7 -20v6l5 -18v7l6 -18v3zM233 541v20h4v6h-51v-5h-5v-6h-6v-35h9v14h15v13h12v13h16z
M492 155l-5 15l5 15h-21v-15h-25v-12h-21v-3h67zM225 170h-14v15h-12v13q-8 1 -13 4v-3l4 -6l-4 5v-31h5v-6h16l4 -12v12h14v9zM351 286h6v-11h6v-12h5v-11h6v-11h6v-12h5v-11h6v-12h6v-5h5v-12h7l-7 20v-5l-5 18v-14l-6 18v-5l-6 18v-7l-5 18v-7l-6 18v-6l-6 18v-7l-5 18
v-7l-6 18v-6l-6 18v-21zM438 522h-6v5h-5v6h-5v6h-7v6h-5v5h-7l7 -21v13l5 -17v14l7 -21v8l5 -14v13l5 -18v12l6 -18v21zM323 314h6v-5h5v-6h5v-11h7l-7 21v-5l-5 16v-12l-5 18v-13l-6 18v-21zM409 183h5v-11h5v-5h6v-6h6l-6 21v-12l-6 18v-13l-5 17v-3l-5 15v-21zM216 486
v5h4v-5h7l-7 21v-13l-6 18v-26h2zM450 427l-6 -20l-6 -18h7v18h5v20zM506 225l7 -21v26h-3v-5h-4zM516 468l-6 21v-21h6zM492 521l-7 20v-20h7zM336 541v21h-6zM297 209v21h-7zM440 561l-7 21v-21h7zM413 575l-7 20v-20h7zM147 229v21h-7zM172 191v20h-7zM465 548l-6 21v-21
h6zM478 535l-7 21v-21h7zM284 215v21h-6zM262 541v21h-7zM280 342l-7 -21h7v21zM312 326l-7 21v-21h7zM318 321l-6 21v-21h6zM473 215v21h-7zM432 393l-6 -20h6v20zM187 497l-6 21v-21h6zM204 491l-7 21v-21h7zM484 209v21h-6zM445 490v20h-7zM197 225h-6v-21zM225 138v20
h-7zM393 535v21h-7zM336 188l-6 -21h6v21zM330 204v21h-7zM380 430h5v33h-5v6h-6v6h-11v5h-6v6h-23v5h-44v-5h-6v-11h-4v-68h4v-5h67v5h12v7h5v5h6v6h6v5zM385 409l7 21l5 18h-12v-3h6v-15h-6v-5h-5v-6h-6v-5h-6v-21l6 18v-13l6 18v-12l5 18v-13zM374 475h6v-6h5v-6h7l-7 21
v-12l-5 18v-13l-6 18v-20zM357 486h6v-6h6l-6 21v-12l-6 18v-21zM280 495l-7 -20h7v11h4v21l-4 -16v4zM341 491l-7 21v-21h7zM284 381v21h-6z" />
    <glyph glyph-name="macron" unicode="&#xaf;" horiz-adv-x="550" 
d="M32 836h31v11h120v-11h212v11h96v-11h11v-11h10v-56h-10v-21h-42v-11h-416v11h-12v10h-10v67h10v11z" />
    <glyph glyph-name="degree" unicode="&#xb0;" horiz-adv-x="230" 
d="M185 969l-15 -15q6 -4 8 -11q3 -2 6 -7t8 -11q0 -1 -0.5 -2.5t-0.5 -3.5q3 -3 5.5 -8t2.5 -10v-5q0 7 6 7v-61q0 -8 -0.5 -12t-1.5 -5.5t-2 -2t-2 -1.5q0 -8 -1.5 -13t-6.5 -7q-2 -9 -7 -13q-2 2 -4 -0.5t-3 -4.5q-6 -11 -9 -11q-1 0 -2 1q-1 -5 -4 -8l16 -15h-13.5
t-20.5 -0.5t-21 -0.5h-13h-27q-1 0 -4 5.5t-6 10.5l4 -7h-4q-6 0 -8.5 1t-4.5 6q-4 0 -7.5 -0.5t-5.5 7.5h1h-1q-1 3 -1 11v-9q0 -2 1 -2q-10 0 -11 11q-4 4 -4 11v2q-3 1 -4.5 2.5t-2.5 9.5q-2 -1 -7 -6v12t-0.5 16.5t-0.5 16.5v12v32q0 15 1.5 19.5t5.5 6.5q2 11 8 14
q1 8 3 9.5t4 3.5l4 7q-4 3 -8.5 7t-9.5 11h160zM59 767q0 -2 1 -2q0 2 -0.5 4.5t-0.5 5.5v-8zM32 924v6v-6zM43 779q-2 0 -2 1q0 -1 2 -1zM133 881l-2 2t-2 4h-40q-1 -4 -6 -6l-7 -6v-8.5t-2 -5.5q0 -1 0.5 -1.5t0.5 -1.5q3 -2 4.5 -6.5t3.5 -9.5q0 7 -1 9l3 -6h1q3 0 4 1
q1 0 1 0.5t1 0.5q6 0 7.5 -5t2.5 -13q0 9 5 9q2 0 3 -1q5 7 10 8t7 1t2 -4q5 12 9 12q1 0 1 -0.5t1 -0.5v-4q1 7 2 10t3 5v1q-5 0 -7.5 2.5t-4.5 13.5zM72 859l2 2l-5 4v-6h-2l7 -34q2 2 2.5 7t0.5 10q0 10 -2 16q-1 0 -1.5 0.5t-1.5 0.5zM133 887l-6 27l-1 -3
q0 -11 0.5 -16t2.5 -8h4zM148 860v-13l6 21q-7 0 -9 -4q2 -3 3 -4zM106 832q0 -6 0.5 -16t2.5 -12v30q3 3 1 3q-2 -1 -4 -5zM140 828q1 -1 1 9t-1 12v-21zM134 881v16q-1 -1 -1 -2v-1v-13h1zM69 871q4 0 5 4zM90 837l-2 4t-3 4q0 -3 5 -8zM74 875h2v5q0 -5 -2 -5zM127 839
l2 3q-2 -2 -2 -3z" />
    <glyph glyph-name="plusminus" unicode="&#xb1;" horiz-adv-x="556" 
d="M211 596h7v8h14v5h52v-5h8v-8h7v-6h6v-163h8v-7h168v-7h7v-8h7v-87h-7v-14h-28v-7h-87v7h-66l4 4q-2 -1 -3.5 -2.5l-2.5 -2.5v-176h-6v-6h-20l3 4l-5 -5v-12h-45v6h-14v13h-7v164h-7v6h-28v7q-15 0 -30 1t-29 2q-19 1 -39 3.5t-40 2.5l-3 5h-13v74h7v13h6v8h43v7h133v176
zM32 111h22v9h88v-9h289v9h71v-9h9v-6h7v-79h-7v-15h-30v-7h-441v7h-8v8h-7v86h7v6z" />
    <glyph glyph-name="twosuperior" unicode="&#xb2;" horiz-adv-x="277" 
d="M69 754h9v4h18v6h75v-6h15v-4h9v-5h4v-5h5v-4h5v-4h4v-5h5v-5h5v-4h4v-10h4v-14h5v-98h-5v-14h-4v-14h-4v-10h-5v-4h-5v-4h-4v-6h-5v-8h-5v-5h-4v-6h-4v-4h-5v-9h-5v-5h-5v-3h-5v-5h-8v-15h-5v-4h-5v-4h36v3l17 6l30 -3h15v-80h-6v-15h-3v-5h-11v-4h-78v4h-4v-4h-122v4
h-4v5h-5v80h5v9h6l8 7v7h4v5h5v5h5v4h4v5h5v9h3v4h6v5h4v5h5v5h5v5h5v4h4v4h4v10h5v5h5v5h5v4h5v4h4v9h4v5h5v5h4v9h5v5h5v9h5v10h5v13h4v4h-4v5h-5v4h-5v5h-5v4h-17v-4h-5v-5h-5v-4l-8 2v-31h-6v-9h-3v-5h-6v-5h-51v5h-6v5h-4v80h4v14h6v5h4v9h5v5h5v5h4v4h5v4h3v5h6v5z
" />
    <glyph glyph-name="threesuperior" unicode="&#xb3;" horiz-adv-x="277" 
d="M73 757h10v3h23v5h43v-5h22v-3h15v-5h9v-5h9v-5h5v-4h4v-5h5v-8h5v-5h4v-19h4v-104h-4v-7h4v-5h5v-10h6v-9h3v-19h6v-89h-6v-14h-3v-13h-6v-9h-5v-10h-4v-5h-4v-4h-5v-5h-5v-5h-4v-4h-10v-5h-13v-5h-15v-4h-102v4h-14v5h-9v5h-9v4h-10v5h-4v9h-5v60l9 8v8h47v-8h3h17v-6
h17v-5h13v5h14v3l15 4v7h4v5h4v8h5v11h5v2h-5v5h-5v10h-8v4h-5v4h-10v5h-37v4h-5v5h-4v77h4v3h28v6h14v4h10v8h5v9h-5v5h-5v4h-5v5h-5v5h-7v-5h-5v-5h-5v-4h-5v-9h-8v-15h-6v-5h-56v5h-4v80h4v14h5v5h5v9h10l2 5v5h10v5z" />
    <glyph glyph-name="acute" unicode="&#xb4;" horiz-adv-x="276" 
d="M11 837l4 4l-5 10l14 8l-4 9l69 40l4 -8l55 33l-4 8l57 33l4 -7l6 4l3 -8l6 3l35 -60l-5 -4l11 -19l-22 -11q5 -8 5 -9l-176 -104l-4 8l-5 -3l-4 7l-6 -2z" />
    <glyph glyph-name="mu" unicode="&#xb5;" horiz-adv-x="505" 
d="M442 433l11 -23v-50h-9v-195h-11q0 -12 -1 -24t-1 -21l-5 -11v-28h-15l-4 -9v-18h-19v-9h-14l-5 -10v-10h-18v-9h-28v-8h-89v8h-46v9h-27v10q-5 -1 -9.5 -1h-9.5q0 -20 -0.5 -38.5t-0.5 -37.5q-1 -25 -1 -60v-59l-38 17v-1h-62v496h-9v108h11q0 4 0.5 9.5t0.5 7.5l6 11v8
h62v-8h45l-4 -116l-4 -11v-9h-10v-170h10v-10h8v-9h10v-10h28v-9h19v-10h49v10h28v9h18v10h13v9l6 10v9h11q0 3 0.5 8.5t0.5 7.5l6 10v107h-9l3 153l6 11v6h90z" />
    <glyph glyph-name="paragraph" unicode="&#xb6;" horiz-adv-x="503" 
d="M112 721h50v11h247v-802l12 -21h16v-12h11v-85h-11v-13h-64l-28 23q0 1 -1.5 9.5t-3.5 18t-3.5 17.5t-1.5 9v377h-53v-318q0 2 1.5 -6t3.5 -15q2 -8 4 -8.5t0 -8.5h10v-74h-10v-11h-30v-13h-91v13h-11v85h11v13l32 -4v359h-20v10h-40v12h-20v11h-20v10h-21v13h-9v11h-10
v16q-6 6 -7 6l-3 13h-11v26q-6 6 -7 6l-3 13h-10v196h10v22h10v12h11v23h10v10h10v13h9v11h21v10h10v12z" />
    <glyph glyph-name="periodcentered" unicode="&#xb7;" horiz-adv-x="214" 
d="M64 485h30v8h19v-8h31v-7h7v-8h8v-14h7v-15h8v-50h-8v-21h-7v-8h-8v-6h-7v-9h-7v-6h-8v-9h-35v9h-22v6h-15v9h-8v6h-7v15h-8v56h8v30h7v7h8v8h7v7z" />
    <glyph glyph-name="cedilla" unicode="&#xb8;" horiz-adv-x="560" 
d="M302 -208v-3h-89v3h-14v4h-8v5h-5v6h-3v3h-4v4h-5v10h-4v21h-5v70h5v2l12 10l39 -2h15v-10h6v-25h4v-4h4v-6h14v-5h2v5h7v6h10v4h3v3h5v4h4v5h4v5h5v8h7l-2 12h-5v4h-5v10h-4v4h-4v13l-16 11l4 -4q-2 0 -8.5 0.5t-8.5 0.5v15l-36 24v54h85v-3h17v-12l10 -4l-3 2h11v-6h3
v-4h5v-5h4v-3h5v-5h3v-9h5v-8h5v-13h5v-14h3v-92h-3v-25h-5v-8h-5v-9h-5v-9h-3v-5h-5v-3h-4v-5h-5v-5h-3v-4h-4v-3h-9v-6h-5v-5h-12v-4h-14z" />
    <glyph glyph-name="onesuperior" unicode="&#xb9;" horiz-adv-x="271" 
d="M26 754h51v4h24v6h52v-6h5v-4h3v-274h5v-5h5v-4h70v-4h4v-85h-209v4h-10v81h5v4h10v4h37v-4h5l3 4v5h6v12h-6v168h-63v9h-5v75h5v5h3v5z" />
    <glyph glyph-name="ordmasculine" unicode="&#xba;" horiz-adv-x="370" 
d="M234 767v-11h32v-10h11v-11h10v-10h12v-21h9v-33h10v-104h-10v-22h-9v-21h-12v-12h-10v-9h-11v-12h-21v-10h-22v-11h-97v11h-21v10h-21v12h-12v9h-9v22h-12v22h-10v136h10v21h12v22h9v11h22v10h11v11h129zM210 662v10h-71v-10h-11v-11h-10v-22h-11v-11h11v-10h10v-11h11
v-10h20v-12h20v12h31v10h22v21h11v11h-11v12h-11v21h-11zM118 588v20h-6zM128 576v21h-7zM139 566v21h-6zM159 555v20h-7zM238 641l-6 20v-20h6zM139 692l-6 -20h6v20zM217 672l-7 20v-20h7zM146 478v-8h101v8h77v-8h9v-8h7v-83h-7v-16h-33v-8h-265v8h-8v8h-8v91h8v8h24v8
h95z" />
    <glyph glyph-name="guillemotright" unicode="&#xbb;" horiz-adv-x="612" 
d="M326 345v-71l4 -10l-227 -169l-5 11l-25 -14l-12 18l-4 -4l-46 76l10 5l-3 8l6 3l-4 10l65 38l6 -10l86 73l-85 74l-8 -10l-64 37l4 10l-6 4l3 8l-10 5l46 76l3 -4l13 18l26 -14q4 10 4 11l227 -169zM572 345v-71l4 -10l-228 -169l-5 11l-25 -14l-11 18l-5 -4l-45 76l9 5
l-3 8l6 3l-4 10l65 38l6 -10l87 73l-86 74l-8 -10l-64 37l4 10l-6 4l3 8l-9 5l45 76l4 -4l12 18l26 -14q4 10 4 11l228 -169z" />
    <glyph glyph-name="onequarter" unicode="&#xbc;" horiz-adv-x="674" 
d="M511 479h21v12h66v-12h12v-63h-12v-9h-10v-12h-21v-10h-22v-11h-20v-10h-22v-10h-21v-12h-22v-10h-21v-11h-20v-10h-21v-11h-11v-10h-31v-12h-22v-9h-22v-11h-20v-11h-12v-11h-20v-11h-21v-11h-32v-9h-22v-11h-22v-11h-20v-9h-11v-12h-21v-10h-21v-11h-21v-11h-24v11h-11
v11h-10v73h10v11h11v10h22v10h21v11h31v10h22v12h20v10h11v11h21v10h33v11h21v11h10v11h21v9h43v12h10v10h12v11h20v11h22v9h21v11h20v11h21v11h22v10h21v11h21v10zM88 776h84v12h88v-12h10v-31h10v-94h-10v-139h10v-21h21v-12h76v-10h10v-84h-279v10h-20v84h20v12h75v10h10
v150h-10v21h-40v-11h-45v11h-10v20h-11v63h11v21zM352 256h11v11h56v-11h10v-62h-10v-20h-11v-22h-10v-22h-11v-32h-10v-22h-12v-20h94v9h10v75h11v32h10v10h35v-10h11v-12h9v-73h12v-22h10v-9h43v-12h10v-10h11v-74h-11v-21h-53v-10h-10v-33h-12v-20h-9v-11h-46v11h-10v10
h-11v32h-10v21h-171v11h-10v10h-11v12h-10v93h10v32h11v11h10v21h11v22h11v31h11v11h10v32h12v21h9v10z" />
    <glyph glyph-name="onehalf" unicode="&#xbd;" horiz-adv-x="628" 
d="M238 783v-11h11v-11h10v-266h22v-9h73v-11h11v-11h11v-63h-11v-10h-278v10h-10v74h20v11h75v21h10v139h-10v31h-29v-11h-56v11h-10v10h-12v74h12v11h62v11h99zM577 507v-12h10v-84h-20v-10h-11v-10h-31v-11h-22v-11h-21v-11h-21v-11h-22v-9h-21v-11h-21v-11h-21v-10h-22
v-11h-21v-10h-10v-11h-22v-11h-20v-11h-32v-10h-11v-11h-22v-10h-31v-12h-21v-9h-21v-11h-11v-11h-22v-10h-20v-11h-11v-10h-45v10h-11v85h11v9h21v11h32v11h21v11h10v9h32v12h22v10h22v11h9v11h33v10h20v11h21v11h11v10h22v10h22v11h9v10h22v12h20v10h22v10h21v11h32v11h21
v11h11v11h22v9h9v12h56zM461 284v-11h31v-11h22v-11h11v-9h9v-12h12v-21h10v-20h11v-75h-11v-21h-10v-21h-12v-11h-9v-11h-22v-9h-11v-12h-21v-10h-10v-10h-33v-11h-20v-10h-11v-12h-21v-1h103v12h21v9h21v12h46v-12h10v-93h-10v-22h-21v-11h-46v11h-72v-11h-172v11h-20v11
h-11v83h11v21h10v12h10v10h21v11h11v11h32v11h21v9h11v11h22v11h21v10h10v11h10v10h21v12h12v10h10v11h11v11h-11v11h-10v10h-103v-10h-12v-11h-10v-21h-11v-22h-11v-9h-11v-12h-44v21h-10v63h10v32h10v21h11v12h10v9h22v11h21v11h32v11h109z" />
    <glyph glyph-name="threequarters" unicode="&#xbe;" horiz-adv-x="674" 
d="M511 479h21v12h66v-12h12v-63h-12v-9h-10v-12h-21v-10h-22v-11h-20v-10h-22v-10h-21v-12h-22v-10h-21v-11h-20v-10h-21v-11h-11v-10h-31v-12h-22v-9h-22v-11h-20v-11h-12v-11h-20v-11h-21v-11h-32v-9h-22v-11h-22v-11h-20v-9h-11v-12h-21v-10h-21v-11h-21v-11h-24v11h-11
v11h-10v73h10v11h11v10h22v10h21v11h31v10h22v12h20v10h11v11h21v10h33v11h21v11h10v11h21v9h43v12h10v10h12v11h20v11h22v9h21v11h20v11h21v11h22v10h21v11h21v10zM352 256h11v11h56v-11h10v-62h-10v-20h-11v-22h-10v-22h-11v-32h-10v-22h-12v-20h94v9h10v75h11v32h10v10
h35v-10h11v-12h9v-73h12v-22h10v-9h43v-12h10v-10h11v-74h-11v-21h-53v-10h-10v-33h-12v-20h-9v-11h-46v11h-10v10h-11v32h-10v21h-171v11h-10v10h-11v12h-10v93h10v32h11v11h10v21h11v22h11v31h11v11h10v32h12v21h9v10zM144 746h25v10h29v4h46v-4h28v-6h19v-4h11v-5h12v-3
h7v-6h5v-5h5v-9h7v-4h5v-19h6v-104h-6v-8h6v-5h6v-9h6v-11h6v-17h6v-89h-6v-15h-6v-14h-6v-9h-6v-9h-6v-5h-5v-6h-7v-4h-5v-4h-5v-5h-12v-6h-18v-3h-19v-6h-120v6h-20v3h-10v6h-12v5h-12v4h-6v10h-7v66h7v4h6v5h50v-5h13v-4h11v-4h24v-5h25v5l28 -1h1v9h7v5h6v4h6v11h7v8h4
v5h-4v5h-7v8h-12v5h-7v4h-11v4h-48v6h-5v5h-6v73l13 7h28v5l28 -1h1v14h7v9h-7v5h-5v5h-6v4h-6v5h-20v-5h-5v-4h-6v-5h-6v-9h-5v-9h-6v-6h-8v-4h-62v4h-5v81h5v14h7v4h5v11l17 -1v0v9z" />
    <glyph glyph-name="questiondown" unicode="&#xbf;" horiz-adv-x="426" 
d="M158 -66v9h-43v12h-10v10h-21v11h-11v11h-10v9h-12v12h-10v10h-11v32h-10v127h10v31h11v22h10v21h12v10h10v12h11v9h10v11h11v11h10v11h10v22h11v9h11v11h11v20h9v22h12v76h10v9h67v-9h10v-106h-10v-33h-11v-21h-10v-10h-11v-21h-10v-22h-22v-21h-11v-10h-10v-11h-11v-22
h-11v-21h-11v-21h-9v-43h9v-33h11v-21h22v-10h82v10h12v12h9v21h10v85h12v10h9v10h68v-10h9v-10h12v-117h-12v-10h-9v-21h-11v-21h-11v-12h-11v-20h-22v-11h-20v-10h-11v-12h-31v-9h-98zM179 507v10h-21v11h-22v21h-11v22h-10v72h10v22h11v21h22v10h108v-10h12v-11h9v-116
h-9v-10h-12v-21h-21v-11h-21v-10h-45z" />
    <glyph glyph-name="Agrave" unicode="&#xc0;" horiz-adv-x="740" 
d="M260 329h10v-9h146v9h11v13h-11v41h-10v33h-12v31h-9v22h-10v32h-12v20h-9v11h-20v-21h-9v-32h-12v-21h-10v-42h-11v-22h-11v-32h-11v-20h-10v-13zM438 321v-13l6 21h-17v-8h11zM356 532v10h4l-6 21v-31h2zM370 521l-7 20v-20h7zM270 299v21h-7zM321 733h11v10h45v-10h11
v-11h10v-20h10v-33h11v-21h10v-32h12v-32h10v-31h11v-32h10v-32h11v-31h10v-33h12v-21h9v-21h12v-21h10v-42h11v-22h10v-22h10v-42h11v-21h11v-32h11v-21h10v-21h11v-21h22v-11h31v-11h20v-84h-9v-10h-236v10h-33v73h11v11h43v11h31v33h-9v32h-12v20h-10v11h-11v11h-148v10
h-62v-10h-20v-11h-11v-42h-10v-33h-12v-1h12v-9h10v-11h63v-11h11v-72h-11v-12h-116v-10h-120v10h-20v84h11v11h21v11h20v9h11v12h10v31h12v11h9v32h11v31h11v32h11v22h10v22h12v21h9v42h11v21h11v21h11v33h10v20h10v32h11v43h10v31h11v32h10v22h12v42h10v42h21v11zM375 827
l13 -7l-6 -12l5 -3l-39 -68l-6 3q-1 -2 -2 -4.5t-1 -3.5l-6 4l-2.5 -5t-1.5 -4l-175 105l4 8l-22 13l10 18l-3 4l35 60l6 -4l1 1l7 4q1 2 2 3.5t1 2.5l58 -34l-4 -7l57 -33l2 4q1 1 1 3l71 -40z" />
    <glyph glyph-name="Aacute" unicode="&#xc1;" horiz-adv-x="740" 
d="M260 329h10v-9h146v9h11v13h-11v41h-10v33h-12v31h-9v22h-10v32h-12v20h-9v11h-20v-21h-9v-32h-12v-21h-10v-42h-11v-22h-11v-32h-11v-20h-10v-13zM438 321v-13l6 21h-17v-8h11zM356 532v10h4l-6 21v-31h2zM370 521l-7 20v-20h7zM270 299v21h-7zM321 733h11v10h45v-10h11
v-11h10v-20h10v-33h11v-21h10v-32h12v-32h10v-31h11v-32h10v-32h11v-31h10v-33h12v-21h9v-21h12v-21h10v-42h11v-22h10v-22h10v-42h11v-21h11v-32h11v-21h10v-21h11v-21h22v-11h31v-11h20v-84h-9v-10h-236v10h-33v73h11v11h43v11h31v33h-9v32h-12v20h-10v11h-11v11h-148v10
h-62v-10h-20v-11h-11v-42h-10v-33h-12v-1h12v-9h10v-11h63v-11h11v-72h-11v-12h-116v-10h-120v10h-20v84h11v11h21v11h20v9h11v12h10v31h12v11h9v32h11v31h11v32h11v22h10v22h12v21h9v42h11v21h11v21h11v33h10v20h10v32h11v43h10v31h11v32h10v22h12v42h10v42h21v11zM308 803
l4 4l-5 10l14 8l-4 9l69 40l4 -8l55 33q-3 6 -3 8l56 33l4 -7l6 4l3 -8l6 3l35 -60l-5 -4l12 -19l-23 -11q5 -8 5 -9l-176 -104l-4 8l-5 -3l-4 7l-6 -2z" />
    <glyph glyph-name="Acircumflex" unicode="&#xc2;" horiz-adv-x="740" 
d="M321 733h11v10h45v-10h11v-11h10v-20h10v-33h11v-21h10v-32h12v-32h10v-31h11v-32h10v-32h11v-31h10v-33h12v-21h9v-21h12v-21h10v-42h11v-22h10v-22h10v-42h11v-21h11v-32h11v-21h10v-21h11v-21h22v-11h31v-11h20v-84h-9v-10h-236v10h-33v73h11v11h43v11h31v33h-9v32
h-12v20h-10v11h-11v11h-148v10h-62v-10h-20v-11h-11v-42h-10v-33h-12v-1h12v-9h10v-11h63v-11h11v-72h-11v-12h-116v-10h-120v10h-20v84h11v11h21v11h20v9h11v12h10v31h12v11h9v32h11v31h11v32h11v22h10v22h12v21h9v42h11v21h11v21h11v33h10v20h10v32h11v43h10v31h11v32h10
v22h12v42h10v42h21v11zM260 329h10v-9h146v9h11v13h-11v41h-10v33h-12v31h-9v22h-10v32h-12v20h-9v11h-20v-21h-9v-32h-12v-21h-10v-42h-11v-22h-11v-32h-11v-20h-10v-13zM438 321v-13l6 21h-17v-8h11zM356 532v10h4l-6 21v-31h2zM370 521l-7 20v-20h7zM270 299v21h-7z
M355 926q2 2 6.5 4t5.5 2v-5l8 4v-6l1 1l89 -151l-6 -3l8 -14l-20 -11v-5l-39 -23l-1 5l-2 2l-6 -1l-37 61l6 3l-13 22q-5 -7 -6.5 -9t-7.5 -13q4 -3 6 -3l-36 -61l-6 1l-3 -2v-5l-40 23v5l-19 12l8 13l-7 3l90 151l1 -1v6l8 -4v5z" />
    <glyph glyph-name="Atilde" unicode="&#xc3;" horiz-adv-x="740" 
d="M180 871h31v11h120v-11h136v11h96v-11h12v-11h10v-94h-10v-21h-43v-11h-340v11h-12v10h-10v105h10v11zM260 329h10v-9h146v9h11v13h-11v41h-10v33h-12v31h-9v22h-10v32h-12v20h-9v11h-20v-21h-9v-32h-12v-21h-10v-42h-11v-22h-11v-32h-11v-20h-10v-13zM438 321v-13l6 21
h-17v-8h11zM356 532v10h4l-6 21v-31h2zM370 521l-7 20v-20h7zM270 299v21h-7zM321 733h11v10h45v-10h11v-11h10v-20h10v-33h11v-21h10v-32h12v-32h10v-31h11v-32h10v-32h11v-31h10v-33h12v-21h9v-21h12v-21h10v-42h11v-22h10v-22h10v-42h11v-21h11v-32h11v-21h10v-21h11v-21
h22v-11h31v-11h20v-84h-9v-10h-236v10h-33v73h11v11h43v11h31v33h-9v32h-12v20h-10v11h-11v11h-148v10h-62v-10h-20v-11h-11v-42h-10v-33h-12v-1h12v-9h10v-11h63v-11h11v-72h-11v-12h-116v-10h-120v10h-20v84h11v11h21v11h20v9h11v12h10v31h12v11h9v32h11v31h11v32h11v22
h10v22h12v21h9v42h11v21h11v21h11v33h10v20h10v32h11v43h10v31h11v32h10v22h12v42h10v42h21v11z" />
    <glyph glyph-name="Adieresis" unicode="&#xc4;" horiz-adv-x="740" 
d="M260 329h10v-9h146v9h11v13h-11v41h-10v33h-12v31h-9v22h-10v32h-12v20h-9v11h-20v-21h-9v-32h-12v-21h-10v-42h-11v-22h-11v-32h-11v-20h-10v-13zM438 321v-13l6 21h-17v-8h11zM356 532v10h4l-6 21v-31h2zM370 521l-7 20v-20h7zM270 299v21h-7zM321 733h11v10h45v-10h11
v-11h10v-20h10v-33h11v-21h10v-32h12v-32h10v-31h11v-32h10v-32h11v-31h10v-33h12v-21h9v-21h12v-21h10v-42h11v-22h10v-22h10v-42h11v-21h11v-32h11v-21h10v-21h11v-21h22v-11h31v-11h20v-84h-9v-10h-236v10h-33v73h11v11h43v11h31v33h-9v32h-12v20h-10v11h-11v11h-148v10
h-62v-10h-20v-11h-11v-42h-10v-33h-12v-1h12v-9h10v-11h63v-11h11v-72h-11v-12h-116v-10h-120v10h-20v84h11v11h21v11h20v9h11v12h10v31h12v11h9v32h11v31h11v32h11v22h10v22h12v21h9v42h11v21h11v21h11v33h10v20h10v32h11v43h10v31h11v32h10v22h12v42h10v42h21v11zM183 873
v10h10v11h33v10h23v-10h31v-11h12v-10h9v-106h-9v-21h-12v-10h-31v-11h-23v11h-33v22h-10v9h-11v106h11zM424 863v20h20v11h22v10h23v-10h32v-11h11v-10h10v-115h-10v-12h-11v-10h-11v-11h-55v11h-22v22h-9v31h-12v74h12z" />
    <glyph glyph-name="Aring" unicode="&#xc5;" horiz-adv-x="740" 
d="M260 329h10v-9h146v9h11v13h-11v41h-10v33h-12v31h-9v22h-10v32h-12v20h-9v11h-20v-21h-9v-32h-12v-21h-10v-42h-11v-22h-11v-32h-11v-20h-10v-13zM438 321v-13l6 21h-17v-8h11zM356 532v10h4l-6 21v-31h2zM370 521l-7 20v-20h7zM270 299v21h-7zM321 733h11v10h45v-10h11
v-11h10v-20h10v-33h11v-21h10v-32h12v-32h10v-31h11v-32h10v-32h11v-31h10v-33h12v-21h9v-21h12v-21h10v-42h11v-22h10v-22h10v-42h11v-21h11v-32h11v-21h10v-21h11v-21h22v-11h31v-11h20v-84h-9v-10h-236v10h-33v73h11v11h43v11h31v33h-9v32h-12v20h-10v11h-11v11h-148v10
h-62v-10h-20v-11h-11v-42h-10v-33h-12v-1h12v-9h10v-11h63v-11h11v-72h-11v-12h-116v-10h-120v10h-20v84h11v11h21v11h20v9h11v12h10v31h12v11h9v32h11v31h11v32h11v22h10v22h12v21h9v42h11v21h11v21h11v33h10v20h10v32h11v43h10v31h11v32h10v22h12v42h10v42h21v11zM433 948
l-15 -15q5 -4 8 -10q2 -3 5.5 -8t8.5 -11q0 -1 -0.5 -2.5t-0.5 -3.5q7 -7 7 -18v-5q0 7 7 7v-60q0 -17 -2 -18.5t-5 -3.5q0 -7 -1 -12.5t-6 -7.5q-2 -8 -7 -13q-5 2 -7 -5q-2 -4 -4.5 -7.5t-4.5 -3.5q-1 0 -2 1l-4 -8l16 -15h-13.5t-20.5 -0.5t-21 -0.5h-13h-27
q-2 0 -4.5 5.5t-5.5 10.5l4 -7h-4q-6 0 -8.5 1t-4.5 6q-4 0 -8 -0.5t-6 7.5h1h-1q-1 3 -1 11v-9q0 -2 1 -2q-3 0 -6 2.5t-4 8.5q-4 4 -5 12v1q-2 1 -3.5 2.5t-2.5 9.5q-2 -1 -7 -6v12t-0.5 17t-0.5 17v12v32q0 15 1.5 19t5.5 6q1 5 3 9t4 6q2 8 4 9.5t4 3.5l4 6q-8 6 -18 18
h160zM307 746q0 -2 1 -2q0 2 -0.5 4.5t-0.5 6.5v-9zM279 903v6v-6zM291 758q-2 0 -2 1q0 -1 2 -1zM381 860q-4 2 -4 6h-40q-1 -4 -6 -6l-7 -6v-8.5t-2 -4.5q0 -1 0.5 -1.5t0.5 -2.5q3 -2 4.5 -6.5t3.5 -8.5q0 6 -2 8q2 -2 2.5 -3t1.5 -2h1h4q1 0 1 0.5t1 0.5q6 0 7.5 -5
t2.5 -13q0 9 5 9q2 0 3 -1q5 7 10 8t7 1t2 -3q4 11 9 11q1 0 1 -0.5t1 -0.5v-4q1 11 5 15v1q-5 0 -7.5 2.5t-4.5 13.5zM320 839l2 2l-5 3v-5h-2l7 -35q2 2 2.5 7t0.5 11q0 9 -2 15q-2 2 -3 2zM381 866l-6 27l-1 -2q0 -11 0.5 -16.5t2.5 -8.5h4zM395 840v-14l7 21q-8 0 -9 -4
q0 -2 2 -3zM354 811q0 -6 0.5 -16t2.5 -12v30q3 3 1 3q-2 -1 -4 -5zM388 808q1 -1 1 8v8.5t-1 3.5v-20zM382 860v16l-1 -2v-14h1zM317 850q4 0 5 4zM338 816q-1 3 -5 9q0 -3 5 -9zM322 854h2v5q0 -3 -2 -5zM375 818l2 4q-2 -2 -2 -4z" />
    <glyph glyph-name="AE" unicode="&#xc6;" horiz-adv-x="919" 
d="M323 733h12v10h4v4h493v-11h11v-32h11v-85h-11v-56h-11v-32h-11v-11h-57v21h-12v60q-6 6 -7 6l-3 12h-22v10h-66v12l-157 -2l-65 -3v-20h11v-32h11v-31h11v-32h9v-32h12v-11h7v-16h11v-10h106v22h11v21h12v33h11v12h36v-12h9v-21h12v-53h-12v-197h-45v15q-3 2 -4.5 4
t-3.5 2l-3 13h-12v24q-2 2 -4 4.5t-4 2.5l-3 12h-9v9h-32v13h-31v-36h12v-22h9v-22h11v-42h11v-21h10v-32h12v-21h9v-21h11v-21h22v-7h43v13h44v9h20v11h12v23h10v44h13v32h10v11h46v-11h11v-21h12v-195h-12v-12h-11v-10h-22v-12h-34v12l-106 -3h-229v10h-33v73h11v11h42v11
h32v33h-10v32h-11v20h-11v11h-11v11h-147v10h-62v-10h-20v-11h-11v-42h-11v-33h-11v-1h11v-9h11v-11h63v-11h10v-72h-10v-12h-116v-10h-120v10h-21v84h11v11h21v11h20v9h11v12h11v31h11v11h9v32h12v31h10v32h12v22h10v22h11v21h10v42h11v21h10v21h12v33h9v20h10v32h12v43h9
v31h12v32h10v22h11v42h11v42h20v11zM263 329h9v-9h147v9h11v13h-11v41h-11v33h-11v31h-9v22h-11v32h-11v20h-10v11h-19v-21h-10v-32h-11v-21h-11v-42h-11v-22h-10v-32h-12v-20h-9v-13zM440 321v-13l7 21h-17v-8h10zM358 532v10h5l-7 21v-31h2zM372 521l-6 20v-20h6zM272 299
v21h-6z" />
    <glyph glyph-name="Ccedilla" unicode="&#xc7;" horiz-adv-x="584" 
d="M375 733v-11h54v-11h95v-9h10v-22h11v-62h-11v-65h11v-63h-11v-11h-10v-10h-56v10h-10v22h-11v53h-10v21h-12v10h-9v11h-12v11h-21v11h-113v-11h-21v-11h-22v-11h-11v-10h-11v-11h-11v-22h-9v-10h-12v-21h-10v-32h-9v-42h-12v-172h12v-40h9v-33h10v-11h12v-21h9v-11h11
v-10h11v-12h22v-9h20v-11h22v-11h82v11h21v11h21v9h12v12h9v21h12v10h10v43h11v31h10v12h10v9h46v-9h21v-180h-11v-11h-10v-10h-11v-12h-22v-10h-10v-9h-21v-12h-22v-10h-42v-11h-3l18 -67h-5l17 -66l-12 -6v-12l-7 -1q1 -4 1 -8l-51 -14l-2 8l-17 -4l-11 36l-9 -3l-29 127
h-8v10h-54v11h-32v10h-21v12h-21v9h-10v10h-11v12h-10v10h-12v11h-9v21h-11v11h-11v11h-11v31h-11v22h-11v31h-9v54h-12v189h12v43h9v32h11v32h11v21h11v21h11v11h11v20h9v12h12v10h10v11h11v10h10v11h10v11h21v11h11v9h22v11h31v11h130z" />
    <glyph glyph-name="Egrave" unicode="&#xc8;" horiz-adv-x="618" 
d="M23 711h10v11h512v-11h11v-31h10v-84h-10v-54h-11v-31h-10v-10h-56v20h-12v54h-9v21h-22v11h-63v11h-146v-11h-11v-161h11v-10h102v22h12v20h10v32h12v11h34v-11h10v-21h11v-52h-11v-192h-44v12h-12v21h-10v21h-12v22h-9v9h-31v12h-62v-21h-11v-12h-11v-170h11v-21h11
v-11h178v11h42v9h20v12h12v21h10v43h11v31h11v10h45v-10h10v-21h12v-189h-12v-12h-10v-10h-21v-11h-35v11h-446v10h-9v12h-12v61h12v11h20v11h32v11h12v9h9v480h-21v11h-52v9h-12v12h-10v72zM382 825l14 -8l-6 -11l5 -4l-39 -68l-7 3q-1 -2 -2 -4.5t-1 -3.5l-5 4
q-1 -2 -1 -2.5t-1 -2.5t-2 -3l-175 104l3 8l-21 13l10 18l-4 4l36 60l6 -4l1 1l6 4q1 2 2.5 4t1.5 3l58 -34l-4 -8l56 -33q1 2 2 4.5t1 3.5l72 -41z" />
    <glyph glyph-name="Eacute" unicode="&#xc9;" horiz-adv-x="618" 
d="M23 711h10v11h512v-11h11v-31h10v-84h-10v-54h-11v-31h-10v-10h-56v20h-12v54h-9v21h-22v11h-63v11h-146v-11h-11v-161h11v-10h102v22h12v20h10v32h12v11h34v-11h10v-21h11v-52h-11v-192h-44v12h-12v21h-10v21h-12v22h-9v9h-31v12h-62v-21h-11v-12h-11v-170h11v-21h11
v-11h178v11h42v9h20v12h12v21h10v43h11v31h11v10h45v-10h10v-21h12v-189h-12v-12h-10v-10h-21v-11h-35v11h-446v10h-9v12h-12v61h12v11h20v11h32v11h12v9h9v480h-21v11h-52v9h-12v12h-10v72zM172 803l5 4l-6 10l14 8l-4 9l69 40l4 -8l56 33l-4 8l57 33l3 -7l6 4l4 -8l5 3
l35 -60l-4 -4l11 -19l-23 -11q5 -8 5 -9l-176 -104l-3 8l-6 -3l-4 7l-5 -2z" />
    <glyph glyph-name="Ecircumflex" unicode="&#xca;" horiz-adv-x="618" 
d="M23 711h10v11h512v-11h11v-31h10v-84h-10v-54h-11v-31h-10v-10h-56v20h-12v54h-9v21h-22v11h-63v11h-146v-11h-11v-161h11v-10h102v22h12v20h10v32h12v11h34v-11h10v-21h11v-52h-11v-192h-44v12h-12v21h-10v21h-12v22h-9v9h-31v12h-62v-21h-11v-12h-11v-170h11v-21h11
v-11h178v11h42v9h20v12h12v21h10v43h11v31h11v10h45v-10h10v-21h12v-189h-12v-12h-10v-10h-21v-11h-35v11h-446v10h-9v12h-12v61h12v11h20v11h32v11h12v9h9v480h-21v11h-52v9h-12v12h-10v72zM314 928q2 2 7 4t6 2v-5l7 4v-6l1 1l90 -151l-7 -3l9 -15l-20 -10v-5l-40 -23
l-1 4l-2 3l-5 -2l-37 62l6 3l-14 22q-4 -7 -5.5 -9t-8.5 -13q6 -3 7 -3l-36 -61l-7 1l-2 -3v-4l-40 23v5l-19 12l8 13l-7 3l90 151l1 -1v6l7 -4v5z" />
    <glyph glyph-name="Edieresis" unicode="&#xcb;" horiz-adv-x="618" 
d="M23 711h10v11h512v-11h11v-31h10v-84h-10v-54h-11v-31h-10v-10h-56v20h-12v54h-9v21h-22v11h-63v11h-146v-11h-11v-161h11v-10h102v22h12v20h10v32h12v11h34v-11h10v-21h11v-52h-11v-192h-44v12h-12v21h-10v21h-12v22h-9v9h-31v12h-62v-21h-11v-12h-11v-170h11v-21h11
v-11h178v11h42v9h20v12h12v21h10v43h11v31h11v10h45v-10h10v-21h12v-189h-12v-12h-10v-10h-21v-11h-35v11h-446v10h-9v12h-12v61h12v11h20v11h32v11h12v9h9v480h-21v11h-52v9h-12v12h-10v72zM136 877v11h10v11h33v9h23v-9h31v-11h12v-11h9v-105h-9v-21h-12v-10h-31v-12h-23
v12h-33v21h-10v10h-11v105h11zM377 868v20h20v11h22v9h23v-9h32v-11h11v-11h10v-115h-10v-11h-11v-10h-11v-12h-55v12h-22v21h-9v31h-12v75h12z" />
    <glyph glyph-name="Igrave" unicode="&#xcc;" horiz-adv-x="540" 
d="M33 722h319v11h23v-11h73v-11h12v-9h10v-53h-10v-31h-54v-11h-96v-11h-9v-469h9v-9h22v-11h149v-11h11v-11h11v-73h-22v-10h-406v10h-10v12h-10v72h10v11h21v11h66v-11h19v11h22v21h10v423h11v2h-11v32h-10v11h-85v11h-75v9h-11v75h11v20zM280 823l13 -8l-5 -11l5 -4
l-39 -68l-7 3q-1 -2 -2 -4.5t-1 -3.5l-5 4q-1 -2 -2.5 -4.5t-1.5 -3.5l-175 104l3 8l-21 13l10 18l-4 4l36 60l6 -4l1 1l6 4q1 2 2.5 4t1.5 3l58 -34l-4 -8l56 -33q1 2 2 4.5t1 3.5l72 -41z" />
    <glyph glyph-name="Iacute" unicode="&#xcd;" horiz-adv-x="540" 
d="M33 722h319v11h23v-11h73v-11h12v-9h10v-53h-10v-31h-54v-11h-96v-11h-9v-469h9v-9h22v-11h149v-11h11v-11h11v-73h-22v-10h-406v10h-10v12h-10v72h10v11h21v11h66v-11h19v11h22v21h10v423h11v2h-11v32h-10v11h-85v11h-75v9h-11v75h11v20zM198 803l5 4l-6 10l14 8l-3 9
l69 40l3 -8l56 33l-4 8l57 33l4 -7l5 4l4 -8l6 3l35 -60l-5 -4l11 -19l-22 -11q4 -10 4 -9l-175 -104l-4 8l-6 -3l-3 7l-6 -2z" />
    <glyph glyph-name="Icircumflex" unicode="&#xce;" horiz-adv-x="540" 
d="M33 722h319v11h23v-11h73v-11h12v-9h10v-53h-10v-31h-54v-11h-96v-11h-9v-469h9v-9h22v-11h149v-11h11v-11h11v-73h-22v-10h-406v10h-10v12h-10v72h10v11h21v11h66v-11h19v11h22v21h10v423h11v2h-11v32h-10v11h-85v11h-75v9h-11v75h11v20zM249 934q2 2 6.5 4t5.5 2v-5
l8 4v-6l1 1l90 -151l-7 -4l8 -14l-19 -10v-5l-40 -24l-1 5l-2 3l-6 -2l-36 61l5 3l-13 23q-2 -4 -3.5 -6l-3 -4t-3 -4.5t-4.5 -8.5q6 -3 7 -3l-36 -60l-7 1l-3 -3v-5l-39 24v5l-19 12l7 12l-6 4l89 151l1 -1v6l8 -4v5z" />
    <glyph glyph-name="Idieresis" unicode="&#xcf;" horiz-adv-x="540" 
d="M33 722h319v11h23v-11h73v-11h12v-9h10v-53h-10v-31h-54v-11h-96v-11h-9v-469h9v-9h22v-11h149v-11h11v-11h11v-73h-22v-10h-406v10h-10v12h-10v72h10v11h21v11h66v-11h19v11h22v21h10v423h11v2h-11v32h-10v11h-85v11h-75v9h-11v75h11v20zM81 876v11h10v11h33v10h23v-10
h31v-11h12v-11h9v-105h-9v-21h-12v-10h-31v-12h-23v12h-33v21h-10v10h-11v105h11zM322 867v20h21v11h21v10h23v-10h32v-11h11v-11h10v-115h-10v-11h-11v-10h-10v-12h-56v12h-22v21h-9v31h-12v75h12z" />
    <glyph glyph-name="Eth" unicode="&#xd0;" horiz-adv-x="652" 
d="M43 409h26v10h51v102h10v11h-10v64h-12v11h-31v11h-42v9h-12v75h12v9h10v11h88v-11h104v11h34v-11h105v-9h32v-11h22v-11h21v-11h21v-10h11v-11h9v-10h12v-12h10v-10h11v-10h10v-11h11v-21h10v-12h12v-20h9v-32h11v-43h11v-52h11v-137h-11v-64h-11v-31h-11v-33h-9v-22
h-12v-20h-10v-11h-11v-11h-10v-10h-11v-21h-22v-12h-9v-10h-11v-9h-21v-12h-12v-10h-63v-11h-320v11h-11v10h-10v73h21v11h32v11h20v11h12v174h-67v9h-10v8h-7v93h7v7zM490 351h11v1h-11v73h-11v33h-9v32h-11v11h-11v20h-10v11h-12v22h-21v10h-10v11h-11v10h-10v11h-42v11
h-94v-11h-10v-11h-11v-176h56v10h80v-10h9v-7h8v-84h-8v-17h-34v-9h-111v-174h11v-11h31v-11h51v11h31v11h33v9h21v12h22v21h9v10h12v11h10v22h11v22h11v31h9v31h11v64zM207 265v12l-6 -20h16v8h-10zM455 521l-7 20v-20h7zM444 532l-6 21v-21h6zM412 564l-7 21v-21h7z
M402 575l-7 20v-20h7zM390 585l-6 21v-21h6zM381 596l-7 21v-21h7zM338 607l-6 20v-20h6zM353 389v20h-7zM362 381v21h-7zM259 75v21h-6zM228 86v21h-7zM466 501l-7 21v-21h7z" />
    <glyph glyph-name="Ntilde" unicode="&#xd1;" horiz-adv-x="662" 
d="M124 874h32v11h119v-11h136v11h96v-11h12v-11h10v-94h-10v-21h-43v-11h-340v11h-12v10h-10v105h10v11zM24 722h10v11h77v-11h96v-11h11v-20h9v-22h12v-21h10v-10h11v-32h10v-22h10v-10h11v-21h10v-22h11v-21h11v-21h11v-11h10v-11h12v-21h9v-21h11v-21h11v-11h11v-21h9
v-10h12v-21h10v-21h10v-12h11v-10h10v-22h20v214h-11v85h-11v21h-11v11h-41v11h-21v9h-22v84h11v11h235v-11h11v-84h-11v-9h-21v-11h-21v-138h-10v-171h10v-286h-10v-10h-21v-11h-46v11h-10v10h-11v12h-11v19h-11v22h-10v21h-12v22h-9v20h-10v22h-12v33h-9v9h-11v32h-11v11
h-11v22h-10v10h-11v21h-10v21h-12v21h-10v12h-11v20h-10v21h-11v22h-10v11h-10v21h-11v21h-11v21h-11v11h-9v21h-20v-10h-11v-245h11v-96h11v-21h11v-12h32v-9h41v-11h11v-11h10v-84h-62v-10h-183v10h-22v21h-10v52h10v11h11v11h11v11h11v9h9v12h22v468h-10v11h-54v9h-10v95
z" />
    <glyph glyph-name="Ograve" unicode="&#xd2;" horiz-adv-x="628" 
d="M467 351h12v54h-12v64h-9v42h-11v10h-11v21h-11v22h-10v21h-10v11h-22v11h-20v11h-22v9h-32v12h-30v-12h-31v-9h-32v-11h-11v-11h-9v-11h-12v-21h-10v-22h-11v-21h-11v-31h-11v-43h-9v-149h9v-42h11v-31h11v-22h11v-22h10v-11h12v-10h9v-11h11v-10h22v-12h21v-9h31v-11
h19v11h42v9h21v12h22v10h11v11h10v21h10v11h11v21h11v21h11v42h9v75zM453 521l-6 20v-20h6zM412 596l-7 21v-21h7zM390 607l-7 20v-20h7zM369 618l-6 21v-21h6zM348 627l-7 21v-21h7zM315 639l-6 20v-20h6zM184 149v21h-6zM196 140v20h-7zM205 128v21h-6zM216 118v21h-6z
M238 107v20h-6zM259 97v21h-7zM290 86v21h-7zM234 743h31v12h47v-12h64v-10h42v-11h20v-11h11v-9h11v-11h21v-11h11v-21h10v-11h12v-10h9v-12h11v-20h11v-32h11v-21h9v-43h12v-52h10v-170h-10v-53h-12v-52h-9v-22h-11v-21h-11v-21h-11v-22h-9v-11h-22v-10h-11v-11h-10v-10
h-11v-12h-11v-10h-21v-9h-21v-12h-64v-10h-109v10h-42v12h-21v9h-22v10h-21v12h-10v10h-11v21h-10v11h-10v11h-11v20h-11v12h-11v32h-9v31h-12v42h-10v222h10v75h12v20h9v33h11v11h11v32h11v10h10v11h10v21h21v11h11v11h22v9h10v11h21v11h42v10zM325 830l13 -7l-6 -12l5 -3
l-38 -68l-7 2q-3 -3 -3 -7l-6 4q-1 -2 -2 -5t-1 -4l-176 105l4 7l-22 14l11 18l-4 3l36 61l5 -4l1 1l7 4q1 2 2.5 3.5t1.5 2.5l57 -34l-4 -7l57 -33l2 4t1 3l72 -40z" />
    <glyph glyph-name="Oacute" unicode="&#xd3;" horiz-adv-x="628" 
d="M467 351h12v54h-12v64h-9v42h-11v10h-11v21h-11v22h-10v21h-10v11h-22v11h-20v11h-22v9h-32v12h-30v-12h-31v-9h-32v-11h-11v-11h-9v-11h-12v-21h-10v-22h-11v-21h-11v-31h-11v-43h-9v-149h9v-42h11v-31h11v-22h11v-22h10v-11h12v-10h9v-11h11v-10h22v-12h21v-9h31v-11
h19v11h42v9h21v12h22v10h11v11h10v21h10v11h11v21h11v21h11v42h9v75zM453 521l-6 20v-20h6zM412 596l-7 21v-21h7zM390 607l-7 20v-20h7zM369 618l-6 21v-21h6zM348 627l-7 21v-21h7zM315 639l-6 20v-20h6zM184 149v21h-6zM196 140v20h-7zM205 128v21h-6zM216 118v21h-6z
M238 107v20h-6zM259 97v21h-7zM290 86v21h-7zM234 743h31v12h47v-12h64v-10h42v-11h20v-11h11v-9h11v-11h21v-11h11v-21h10v-11h12v-10h9v-12h11v-20h11v-32h11v-21h9v-43h12v-52h10v-170h-10v-53h-12v-52h-9v-22h-11v-21h-11v-21h-11v-22h-9v-11h-22v-10h-11v-11h-10v-10
h-11v-12h-11v-10h-21v-9h-21v-12h-64v-10h-109v10h-42v12h-21v9h-22v10h-21v12h-10v10h-11v21h-10v11h-10v11h-11v20h-11v12h-11v32h-9v31h-12v42h-10v222h10v75h12v20h9v33h11v11h11v32h11v10h10v11h10v21h21v11h11v11h22v9h10v11h21v11h42v10zM265 826l2 2l-4 11l69 39
l3 -7l56 33q-4 8 -4 7l57 33l4 -6l5 3l4 -7l6 3l35 -61l-5 -3l11 -19l-22 -12l4 -8l-175 -104l-4 8l-6 -3l-3 6l-6 -1l-39 68l12 11v7z" />
    <glyph glyph-name="Ocircumflex" unicode="&#xd4;" horiz-adv-x="628" 
d="M234 743h31v12h47v-12h64v-10h42v-11h20v-11h11v-9h11v-11h21v-11h11v-21h10v-11h12v-10h9v-12h11v-20h11v-32h11v-21h9v-43h12v-52h10v-170h-10v-53h-12v-52h-9v-22h-11v-21h-11v-21h-11v-22h-9v-11h-22v-10h-11v-11h-10v-10h-11v-12h-11v-10h-21v-9h-21v-12h-64v-10
h-109v10h-42v12h-21v9h-22v10h-21v12h-10v10h-11v21h-10v11h-10v11h-11v20h-11v12h-11v32h-9v31h-12v42h-10v222h10v75h12v20h9v33h11v11h11v32h11v10h10v11h10v21h21v11h11v11h22v9h10v11h21v11h42v10zM467 351h12v54h-12v64h-9v42h-11v10h-11v21h-11v22h-10v21h-10v11h-22
v11h-20v11h-22v9h-32v12h-30v-12h-31v-9h-32v-11h-11v-11h-9v-11h-12v-21h-10v-22h-11v-21h-11v-31h-11v-43h-9v-149h9v-42h11v-31h11v-22h11v-22h10v-11h12v-10h9v-11h11v-10h22v-12h21v-9h31v-11h19v11h42v9h21v12h22v10h11v11h10v21h10v11h11v21h11v21h11v42h9v75z
M453 521l-6 20v-20h6zM412 596l-7 21v-21h7zM390 607l-7 20v-20h7zM369 618l-6 21v-21h6zM348 627l-7 21v-21h7zM315 639l-6 20v-20h6zM184 149v21h-6zM196 140v20h-7zM205 128v21h-6zM216 118v21h-6zM238 107v20h-6zM259 97v21h-7zM290 86v21h-7zM295 931q2 2 6.5 4t5.5 2
v-5l8 4v-6v1l90 -151l-6 -4l8 -14l-20 -10v-5l-39 -23l-1 4l-2 3l-6 -2l-37 62l6 2l-13 23q-5 -7 -6.5 -9.5t-7.5 -13.5q3 -2 6 -2l-36 -61l-6 1l-3 -3v-4l-40 23v5l-19 12l8 12l-7 4l90 151l1 -1v6l7 -4v5z" />
    <glyph glyph-name="Otilde" unicode="&#xd5;" horiz-adv-x="628" 
d="M88 874h31v11h120v-11h136v11h96v-11h11v-11h11v-94h-11v-21h-42v-11h-341v11h-11v10h-10v105h10v11zM467 351h12v54h-12v64h-9v42h-11v10h-11v21h-11v22h-10v21h-10v11h-22v11h-20v11h-22v9h-32v12h-30v-12h-31v-9h-32v-11h-11v-11h-9v-11h-12v-21h-10v-22h-11v-21h-11
v-31h-11v-43h-9v-149h9v-42h11v-31h11v-22h11v-22h10v-11h12v-10h9v-11h11v-10h22v-12h21v-9h31v-11h19v11h42v9h21v12h22v10h11v11h10v21h10v11h11v21h11v21h11v42h9v75zM453 521l-6 20v-20h6zM412 596l-7 21v-21h7zM390 607l-7 20v-20h7zM369 618l-6 21v-21h6zM348 627
l-7 21v-21h7zM315 639l-6 20v-20h6zM184 149v21h-6zM196 140v20h-7zM205 128v21h-6zM216 118v21h-6zM238 107v20h-6zM259 97v21h-7zM290 86v21h-7zM234 743h31v12h47v-12h64v-10h42v-11h20v-11h11v-9h11v-11h21v-11h11v-21h10v-11h12v-10h9v-12h11v-20h11v-32h11v-21h9v-43
h12v-52h10v-170h-10v-53h-12v-52h-9v-22h-11v-21h-11v-21h-11v-22h-9v-11h-22v-10h-11v-11h-10v-10h-11v-12h-11v-10h-21v-9h-21v-12h-64v-10h-109v10h-42v12h-21v9h-22v10h-21v12h-10v10h-11v21h-10v11h-10v11h-11v20h-11v12h-11v32h-9v31h-12v42h-10v222h10v75h12v20h9v33
h11v11h11v32h11v10h10v11h10v21h21v11h11v11h22v9h10v11h21v11h42v10z" />
    <glyph glyph-name="Odieresis" unicode="&#xd6;" horiz-adv-x="628" 
d="M467 351h12v54h-12v64h-9v42h-11v10h-11v21h-11v22h-10v21h-10v11h-22v11h-20v11h-22v9h-32v12h-30v-12h-31v-9h-32v-11h-11v-11h-9v-11h-12v-21h-10v-22h-11v-21h-11v-31h-11v-43h-9v-149h9v-42h11v-31h11v-22h11v-22h10v-11h12v-10h9v-11h11v-10h22v-12h21v-9h31v-11
h19v11h42v9h21v12h22v10h11v11h10v21h10v11h11v21h11v21h11v42h9v75zM453 521l-6 20v-20h6zM412 596l-7 21v-21h7zM390 607l-7 20v-20h7zM369 618l-6 21v-21h6zM348 627l-7 21v-21h7zM315 639l-6 20v-20h6zM184 149v21h-6zM196 140v20h-7zM205 128v21h-6zM216 118v21h-6z
M238 107v20h-6zM259 97v21h-7zM290 86v21h-7zM234 743h31v12h47v-12h64v-10h42v-11h20v-11h11v-9h11v-11h21v-11h11v-21h10v-11h12v-10h9v-12h11v-20h11v-32h11v-21h9v-43h12v-52h10v-170h-10v-53h-12v-52h-9v-22h-11v-21h-11v-21h-11v-22h-9v-11h-22v-10h-11v-11h-10v-10
h-11v-12h-11v-10h-21v-9h-21v-12h-64v-10h-109v10h-42v12h-21v9h-22v10h-21v12h-10v10h-11v21h-10v11h-10v11h-11v20h-11v12h-11v32h-9v31h-12v42h-10v222h10v75h12v20h9v33h11v11h11v32h11v10h10v11h10v21h21v11h11v11h22v9h10v11h21v11h42v10zM130 875v10h9v11h33v10h24
v-10h31v-11h11v-10h10v-106h-10v-21h-11v-10h-31v-12h-24v12h-33v21h-9v10h-12v106h12zM370 865v20h21v11h22v10h22v-10h32v-11h12v-10h9v-116h-9v-11h-12v-10h-10v-12h-56v12h-21v21h-10v32h-11v74h11z" />
    <glyph glyph-name="multiply" unicode="&#xd7;" horiz-adv-x="429" 
d="M381 274l30 -21l-7 -8l5 -3l-55 -78l-9 6l-6 -9l-9 6l-6 -9l-116 81q-28 -20 -61 -42.5t-60 -41.5v13l-15 -11v12l-8 -6l-56 79l5 3l-6 7l30 22l-6 10l56 40q-14 9 -27 18.5t-23 16.5l6 9l-34 23l12 18l-8 6l48 72l7 -7l6 7l10 -6l6 10l87 -62l-7 -8l38 -27l38 27l-6 8
l92 65v-13l10 7l7 -7l7 5l48 -71l-8 -6l13 -18l-35 -23q2 -3 3.5 -6t2.5 -4l-51 -34l58 -41z" />
    <glyph glyph-name="Oslash" unicode="&#xd8;" horiz-adv-x="628" 
d="M409 798h11v10h57v-10h9v-11h12v-84h-12v-21h-5v-2h11v-21h10v-11h12v-10h9v-12h11v-20h11v-32h11v-21h9v-43h12v-52h10v-170h-10v-53h-12v-52h-9v-22h-11v-21h-11v-21h-11v-22h-9v-11h-22v-10h-11v-11h-10v-10h-11v-12h-11v-10h-21v-9h-21v-12h-64v-10h-109v10h-2v-20
h-10v-42h-11v-43h-10v-10h-11v-11h-32v-11h-25v11h-9v11h-11v73h11v42h9v31h-5v12h-10v10h-11v21h-10v11h-10v11h-11v20h-11v12h-11v32h-9v31h-12v42h-10v222h10v75h12v20h9v33h11v11h11v32h11v10h10v11h10v21h21v11h11v11h22v9h10v11h21v11h42v10h31v12h47v-12h64v-10h13
v11h10v33h10v21zM341 627h-32v12h-30v-12h-31v-9h-32v-11h-11v-11h-9v-11h-12v-21h-10v-22h-11v-21h-11v-31h-11v-43h-9v-149h9v-42h11v-31h11v-22h11v-22h10v-11h4v13h10v31h11v31h10v33h12v22h9v21h10v31h12v43h9v31h11v21h11v33h11v31h11v31h11v33h9v21h12v22h-6v9z
M357 618v-10l7 20h-17l-6 20v-21h6v-9h10zM196 140v30h-8v-30l4 11zM184 149v21h-6zM315 639l-6 20v-20h6zM467 351h12v54h-12v64h-9v42h-11v10h-11v21h-11v13h-3v-32h-9v-22h-11v-21h-11v-41h-9v-33h-12v-31h-10v-21h-11v-33h-10v-31h-11v-22h-11v-31h-11v-33h-10v-21h-12
v-41h-9v-22h-11v-2h26v-11h19v11h42v9h21v12h22v10h11v11h10v21h10v11h11v21h11v21h11v42h9v75zM259 97v2h5v19h-5v9h-12l4 -14l-4 -14h11zM433 555v30l-4 -13l-4 13v-30h8zM290 86v21h-7zM453 521l-6 20v-20h6z" />
    <glyph glyph-name="Ugrave" unicode="&#xd9;" 
d="M24 732h22v10h122v-10h53v10h25v-10h33v-11h10v-52h-10v-23h-11v-10h-44v-11h-11v-34h-11v-189h11v-243h11v-11h10v-10h12v-13h10v-10h23v-11h21v-11h76v11h44v11h21v10h11v13h11v10h12v22h10v421h-10v34h-23v11h-32v10h-11v12h-12v63h12v11h221v-11h11v-85h-22v-11h-32
v-23h-10v-44h-13v-430h-10v-32h-11v-22h-11v-22h-12v-12h-10v-11h-22v-11h-12v-10h-32v-11h-22v-12h-190v12h-21v11h-22v10h-23v11h-11v15q-6 6 -8 6l-2 12h-13v22h-10v34h-11v496h-11v11h-10v11h-44v10h-22v86zM375 825l13 -7l-6 -11l5 -4l-39 -68l-6 3q-1 -2 -2 -4.5
t-1 -3.5l-6 4l-2.5 -5t-1.5 -4l-175 105l4 8l-22 13l10 18l-3 4l36 60l5 -4l1 1l7 4q1 2 2.5 4t1.5 3l57 -34l-4 -8l57 -33q1 2 2 4.5t1 3.5l71 -41z" />
    <glyph glyph-name="Uacute" unicode="&#xda;" 
d="M24 732h22v10h122v-10h53v10h25v-10h33v-11h10v-52h-10v-23h-11v-10h-44v-11h-11v-34h-11v-189h11v-243h11v-11h10v-10h12v-13h10v-10h23v-11h21v-11h76v11h44v11h21v10h11v13h11v10h12v22h10v421h-10v34h-23v11h-32v10h-11v12h-12v63h12v11h221v-11h11v-85h-22v-11h-32
v-23h-10v-44h-13v-430h-10v-32h-11v-22h-11v-22h-12v-12h-10v-11h-22v-11h-12v-10h-32v-11h-22v-12h-190v12h-21v11h-22v10h-23v11h-11v15q-6 6 -8 6l-2 12h-13v22h-10v34h-11v496h-11v11h-10v11h-44v10h-22v86zM317 803l5 4l-6 10l14 8l-3 9l69 40l3 -8l56 33l-4 8l57 33
l4 -7l5 4l4 -8l6 3l35 -60l-5 -4l11 -19l-22 -11q4 -10 4 -9l-175 -104l-4 8l-6 -3l-3 7l-6 -2z" />
    <glyph glyph-name="Ucircumflex" unicode="&#xdb;" 
d="M24 732h22v10h122v-10h53v10h25v-10h33v-11h10v-52h-10v-23h-11v-10h-44v-11h-11v-34h-11v-189h11v-243h11v-11h10v-10h12v-13h10v-10h23v-11h21v-11h76v11h44v11h21v10h11v13h11v10h12v22h10v421h-10v34h-23v11h-32v10h-11v12h-12v63h12v11h221v-11h11v-85h-22v-11h-32
v-23h-10v-44h-13v-430h-10v-32h-11v-22h-11v-22h-12v-12h-10v-11h-22v-11h-12v-10h-32v-11h-22v-12h-190v12h-21v11h-22v10h-23v11h-11v15q-6 6 -8 6l-2 12h-13v22h-10v34h-11v496h-11v11h-10v11h-44v10h-22v86zM346 930q2 2 6.5 4t5.5 2v-5l7 4v-6l1 1l90 -151l-7 -4l9 -14
l-20 -10v-5l-40 -23l-1 4l-1 3l-6 -2l-37 62l6 2l-13 23q-5 -7 -6.5 -9t-8.5 -14q8 -2 7 -2l-36 -61l-6 1l-3 -3v-4l-40 23v5l-19 12l8 12l-7 4l90 151l1 -1v6l7 -4v5z" />
    <glyph glyph-name="Udieresis" unicode="&#xdc;" 
d="M24 732h22v10h122v-10h53v10h25v-10h33v-11h10v-52h-10v-23h-11v-10h-44v-11h-11v-34h-11v-189h11v-243h11v-11h10v-10h12v-13h10v-10h23v-11h21v-11h76v11h44v11h21v10h11v13h11v10h12v22h10v421h-10v34h-23v11h-32v10h-11v12h-12v63h12v11h221v-11h11v-85h-22v-11h-32
v-23h-10v-44h-13v-430h-10v-32h-11v-22h-11v-22h-12v-12h-10v-11h-22v-11h-12v-10h-32v-11h-22v-12h-190v12h-21v11h-22v10h-23v11h-11v15q-6 6 -8 6l-2 12h-13v22h-10v34h-11v496h-11v11h-10v11h-44v10h-22v86zM173 875v10h9v11h33v10h24v-10h31v-11h11v-10h10v-106h-10
v-21h-11v-10h-31v-12h-24v12h-33v21h-9v10h-11v106h11zM413 865v20h21v11h22v10h23v-10h32v-11h11v-10h9v-116h-9v-11h-11v-10h-11v-12h-55v12h-22v21h-10v32h-11v74h11z" />
    <glyph glyph-name="Yacute" unicode="&#xdd;" 
d="M24 742h22v13h89v-13h20v13h69v-13h55v-21h11v-52h-11v-11h-11v-12h-44v-13h10v-22h12v-22h10v-12h12v-21h11v-11h11v-22h10v-22h11v-23h12v-10h10v-11h12v-23h19v23h12v11h10v10h11v23h12v22h11v22h10v22h12v22h10v10h11v37h-33v10h-21v12h-12v74h12v10h165v13h46v-13
h21v-84h-11v-12h-10v-10h-33v-22h-10v-12h-13v-11h-10v-21h-11v-23h-11v-22h-12v-11h-10v-10h-12v-33h-10v-12h-12v-22h-11v-11h-10v-21h-11v-23h-11v-11h-11v-23h-11v-21h-12v-189h12v-23h99v-11h22v-11h11v-64h-11v-21h-34v-11h-35v11h-64v-11h-102v11h-98v21h-10v52h10
v23h22v11h56v10h10v13h10v168h-10v21h-10v11h-12v33h-10v11h-12v15q-6 6 -8 6l-3 12h-11v16q-6 6 -8 6l-2 12h-12v22h-10v14q-8 6 -10 6l-2 13h-11v21h-11v11h-10v22h-13v12h-10v21h-10v15q-3 2 -5 4t-4 2l-3 13h-10v11h-44v10h-22v96zM313 804l4 4l-5 10l14 8l-4 9l69 40
l4 -8l55 33l-4 8l57 33l4 -7l6 4l3 -8l6 3l35 -60l-5 -4l11 -19l-22 -11q5 -8 5 -9l-176 -104l-4 8l-5 -3l-4 7l-6 -2z" />
    <glyph glyph-name="Thorn" unicode="&#xde;" horiz-adv-x="628" 
d="M464 377h10v62q-3 2 -4.5 3.5t-3.5 1.5l-2 13h-12v10h-10v11h-10v11h-13v12h-21v10h-23v12h-31v-12h-24v12h-63v-12h-11v-212h11v-10h96v10h45v11h21v11h23v22h10v12h12v22zM459 467l-7 21v-21h7zM449 478l-7 21v-21h7zM438 489l-6 20v-20h6zM426 501l-7 21v-21h7z
M404 511l-6 21v-21h6zM382 523l-7 20v-20h7zM327 523l-7 20v-20h7zM257 268v21h-7zM34 723h11v10l177 9q9 0 14 -7.5t7.5 -18.5t2.5 -22v-17q0 -7 -0.5 -14t-0.5 -13q0 -3 -0.5 -3.5t-0.5 0.5t0 0.5v-3.5q19 -2 36 -2.5t37 -0.5q42 -2 83.5 -5.5t86.5 -19.5v-8h12v-11h22
v-10h11v-12h11v-11h10v-22h12v-12h11v-22h11v-172h-11v-23h-11v-21h-12v-23h-10v-11h-11v-11h-11v-12h-22v-10h-22v-11h-22v-11h-44v-11h-33v-12h-132v-32h-11v-10h11v-23h21v-11h77v-11h22v-12h12v-73h-12v-11h-33v-12h-89v12h-21v-12h-166v12h-12v84h12v12h10v11h55v11h11
v10h11v472q-3 2 -4.5 4t-3.5 2l-3 12h-21v11h-42v-11h-36v22h-11v74h11v12z" />
    <glyph glyph-name="germandbls" unicode="&#xdf;" horiz-adv-x="481" 
d="M339 172v24h-10v29h-10v20h-10v10h-10v10h-9v10h-10v10h-21v10h-19v20l-22 33q0 1 0.5 9.5t0.5 9.5q2 9 6.5 24.5t-1.5 41.5h16v11h19v9h10v20h11v19h10v20h-10v28h-11v11h-10v10h-19v10h-40v9h-56v-9h-19v-20h-10v-442h11l-9 -108h-94v265h11v29h-11v257h2v117h228v-9
h50v-9h19v-10h10v-10h19v-20h10v-10h10v-20h10v-49h10v-52h-10v-37h-10v-20h-10v-20h-10v-10h-9v-9h-10v-11h-10v-9h29v-9h10v-10h20v-9h10v-10h9v-11h10v-19h11v-10h10v-30h8l-4 -119l-4 -10v-19h-10v-20h-11v-20h-10v-10h-9v-10h-10v-10h-20v-10h-10v-4l-50 -30v-14h-20
v-10h-39v-11h-24v110h11v11h20v9h10v11h26l-5 -7l37 41h3v19h10v19h9z" />
    <glyph glyph-name="agrave" unicode="&#xe0;" horiz-adv-x="606" 
d="M357 170h11v42h-11v10h-131v-10h-33v-11h-20v-10h-20v-11h-11v-9h-9v-22h-11v-1h11v-21h20v-9h20v-11h112v11h21v9h20v11h21v10h10v22zM233 97h-5l7 -20v30h-2v-10zM153 98v20h-7zM173 87v20h-6zM363 222l-6 21v-21h6zM181 511h52v11h158v-11h20v-9h21v-11h11v-11h10v-10
h12v-20h9v-155h-9v-177h26v9h45v-9h10v-11h11v-71h-11v-11h-42v-10h-30v-11h-85v11h-11v10h-21v11h-8v-11h-30v-10h-43v-11h-156v11h-22v10h-20v11h-21v9h-11v21h-9v21h-11v113h11v20h9v22h11v11h10v10h20v11h22v9h20v11h31v10h42v11h62v10h24v-10h38v10h31v11h11v10h10v42
h-10v10h-11v11h-10v11h-21v10h-70v-10h-21v-11h-20v-11h-10v-10h-12v-31h-9v-10h-11v-11h-64v11h-11v10h-11v93h11v20h22v10h20v11h20v11h21v9zM325 606l13 -8l-5 -11l4 -3l-37 -67l-7 3l-2 -4t-1 -3l-5 3q-1 -2 -2.5 -4.5t-1.5 -3.5l-171 102l3 8l-21 13l10 17l-4 4l36 59
l5 -4l1 1l6 4q1 2 2.5 3.5t1.5 2.5l56 -33l-3 -7l55 -33q1 2 2 4.5t1 3.5l70 -40z" />
    <glyph glyph-name="aacute" unicode="&#xe1;" horiz-adv-x="606" 
d="M357 170h11v42h-11v10h-131v-10h-33v-11h-20v-10h-20v-11h-11v-9h-9v-22h-11v-1h11v-21h20v-9h20v-11h112v11h21v9h20v11h21v10h10v22zM233 97h-5l7 -20v30h-2v-10zM153 98v20h-7zM173 87v20h-6zM363 222l-6 21v-21h6zM181 511h52v11h158v-11h20v-9h21v-11h11v-11h10v-10
h12v-20h9v-155h-9v-177h26v9h45v-9h10v-11h11v-71h-11v-11h-42v-10h-30v-11h-85v11h-11v10h-21v11h-8v-11h-30v-10h-43v-11h-156v11h-22v10h-20v11h-21v9h-11v21h-9v21h-11v113h11v20h9v22h11v11h10v10h20v11h22v9h20v11h31v10h42v11h62v10h24v-10h38v10h31v11h11v10h10v42
h-10v10h-11v11h-10v11h-21v10h-70v-10h-21v-11h-20v-11h-10v-10h-12v-31h-9v-10h-11v-11h-64v11h-11v10h-11v93h11v20h22v10h20v11h20v11h21v9zM247 587l5 4l-6 10l14 9l-4 8l67 39l4 -8l55 32l-4 8l55 32l4 -6l5 3l4 -7l6 3l34 -59l-5 -4l11 -18l-22 -11q5 -8 5 -9
l-172 -101l-3 7l-6 -3l-4 7l-5 -2z" />
    <glyph glyph-name="acircumflex" unicode="&#xe2;" horiz-adv-x="606" 
d="M181 511h52v11h158v-11h20v-9h21v-11h11v-11h10v-10h12v-20h9v-155h-9v-177h26v9h45v-9h10v-11h11v-71h-11v-11h-42v-10h-30v-11h-85v11h-11v10h-21v11h-8v-11h-30v-10h-43v-11h-156v11h-22v10h-20v11h-21v9h-11v21h-9v21h-11v113h11v20h9v22h11v11h10v10h20v11h22v9h20
v11h31v10h42v11h62v10h24v-10h38v10h31v11h11v10h10v42h-10v10h-11v11h-10v11h-21v10h-70v-10h-21v-11h-20v-11h-10v-10h-12v-31h-9v-10h-11v-11h-64v11h-11v10h-11v93h11v20h22v10h20v11h20v11h21v9zM357 170h11v42h-11v10h-131v-10h-33v-11h-20v-10h-20v-11h-11v-9h-9v-22
h-11v-1h11v-21h20v-9h20v-11h112v11h21v9h20v11h21v10h10v22zM233 97h-5l7 -20v30h-2v-10zM153 98v20h-7zM173 87v20h-6zM363 222l-6 21v-21h6zM291 715q2 1 6.5 3t5.5 2v-4l8 3v-5v1l88 -148l-6 -4l8 -13l-19 -11v-4l-39 -23l-1 4l-2 3l-5 -2l-36 60l5 3l-13 22
q-4 -7 -5.5 -9t-8.5 -13q6 -3 7 -3l-35 -59l-7 1l-2 -3v-4l-39 23v4l-19 12l8 12l-7 4l88 148l1 -1v5l7 -3v4z" />
    <glyph glyph-name="atilde" unicode="&#xe3;" horiz-adv-x="606" 
d="M101 654h31v11h117v-11h133v11h94v-11h11v-10h10v-93h-10v-20h-42v-11h-333v11h-11v9h-10v104h10v10zM357 170h11v42h-11v10h-131v-10h-33v-11h-20v-10h-20v-11h-11v-9h-9v-22h-11v-1h11v-21h20v-9h20v-11h112v11h21v9h20v11h21v10h10v22zM233 97h-5l7 -20v30h-2v-10z
M153 98v20h-7zM173 87v20h-6zM363 222l-6 21v-21h6zM181 511h52v11h158v-11h20v-9h21v-11h11v-11h10v-10h12v-20h9v-155h-9v-177h26v9h45v-9h10v-11h11v-71h-11v-11h-42v-10h-30v-11h-85v11h-11v10h-21v11h-8v-11h-30v-10h-43v-11h-156v11h-22v10h-20v11h-21v9h-11v21h-9v21
h-11v113h11v20h9v22h11v11h10v10h20v11h22v9h20v11h31v10h42v11h62v10h24v-10h38v10h31v11h11v10h10v42h-10v10h-11v11h-10v11h-21v10h-70v-10h-21v-11h-20v-11h-10v-10h-12v-31h-9v-10h-11v-11h-64v11h-11v10h-11v93h11v20h22v10h20v11h20v11h21v9z" />
    <glyph glyph-name="adieresis" unicode="&#xe4;" horiz-adv-x="606" 
d="M357 170h11v42h-11v10h-131v-10h-33v-11h-20v-10h-20v-11h-11v-9h-9v-22h-11v-1h11v-21h20v-9h20v-11h112v11h21v9h20v11h21v10h10v22zM233 97h-5l7 -20v30h-2v-10zM153 98v20h-7zM173 87v20h-6zM363 222l-6 21v-21h6zM181 511h52v11h158v-11h20v-9h21v-11h11v-11h10v-10
h12v-20h9v-155h-9v-177h26v9h45v-9h10v-11h11v-71h-11v-11h-42v-10h-30v-11h-85v11h-11v10h-21v11h-8v-11h-30v-10h-43v-11h-156v11h-22v10h-20v11h-21v9h-11v21h-9v21h-11v113h11v20h9v22h11v11h10v10h20v11h22v9h20v11h31v10h42v11h62v10h24v-10h38v10h31v11h11v10h10v42
h-10v10h-11v11h-10v11h-21v10h-70v-10h-21v-11h-20v-11h-10v-10h-12v-31h-9v-10h-11v-11h-64v11h-11v10h-11v93h11v20h22v10h20v11h20v11h21v9zM122 655v10h9v11h32v9h23v-9h31v-11h11v-10h9v-104h-9v-20h-11v-10h-31v-11h-23v11h-32v21h-9v9h-12v104h12zM357 645v20h20v11
h21v9h22v-9h32v-11h11v-10h9v-113h-9v-11h-11v-10h-10v-11h-55v11h-21v21h-9v31h-11v72h11z" />
    <glyph glyph-name="aring" unicode="&#xe5;" horiz-adv-x="606" 
d="M357 170h11v42h-11v10h-131v-10h-33v-11h-20v-10h-20v-11h-11v-9h-9v-22h-11v-1h11v-21h20v-9h20v-11h112v11h21v9h20v11h21v10h10v22zM233 97h-5l7 -20v30h-2v-10zM153 98v20h-7zM173 87v20h-6zM363 222l-6 21v-21h6zM181 511h52v11h158v-11h20v-9h21v-11h11v-11h10v-10
h12v-20h9v-155h-9v-177h26v9h45v-9h10v-11h11v-71h-11v-11h-42v-10h-30v-11h-85v11h-11v10h-21v11h-8v-11h-30v-10h-43v-11h-156v11h-22v10h-20v11h-21v9h-11v21h-9v21h-11v113h11v20h9v22h11v11h10v10h20v11h22v9h20v11h31v10h42v11h62v10h24v-10h38v10h31v11h11v10h10v42
h-10v10h-11v11h-10v11h-21v10h-70v-10h-21v-11h-20v-11h-10v-10h-12v-31h-9v-10h-11v-11h-64v11h-11v10h-11v93h11v20h22v10h20v11h20v11h21v9zM375 744l-15 -15q5 -2 8 -10q2 -2 5.5 -7t8.5 -11q0 -1 -0.5 -2.5t-0.5 -3.5q2 -2 4.5 -7t2.5 -10v-5q0 7 6 7v-59
q0 -17 -1.5 -18.5t-4.5 -3.5q0 -16 -7 -19q-2 -8 -7 -13q-2 2 -4 -0.5t-3 -4.5q-2 -4 -4 -7.5t-4 -3.5q-1 0 -2 1q-2 -2 -2.5 -3.5t-2.5 -3.5l16 -15h-12.5t-20.5 -0.5t-20.5 -0.5h-13.5h-25q-2 0 -5 5.5t-6 10.5l4 -7h-4q-5 0 -8 1t-5 6q-4 -1 -8 -0.5t-5 17.5v-9
q0 -2 1 -2q-10 0 -11 11q-1 2 -2 4.5t-2 7.5v1q-3 1 -4.5 2.5t-2.5 8.5q-1 0 -6 -5q0 8 -0.5 28t-0.5 28v32q0 14 1.5 18.5t4.5 5.5q1 5 3 9t6 6q1 7 2.5 8.5l3.5 3.5l4 7q-4 2 -8 6.5t-10 10.5h157zM252 555v-10v10zM225 700v6v-6zM236 559q-2 0 -2 1q0 -1 2 -1zM324 658
l-2 2t-2 4h-39q-1 -2 -2.5 -3.5l-2.5 -2.5l-8 -6q0 -11 -2 -13q0 -1 0.5 -1.5t0.5 -2.5q3 -2 5 -6l4 -8v4t-2 4q2 -2 2 -3t1 -3h1q3 0 4 1q1 0 1 0.5t1 0.5q6 0 7.5 -5t2.5 -12q0 8 5 8q1 0 2 -1q6 7 10.5 8t6.5 1t2 -3q5 11 9 11q1 0 1 -0.5t1 -0.5v-4q1 6 2 9.5t2 5.5v1
q-4 0 -6.5 2.5t-4.5 12.5zM264 637l2 2l-4 4v-6h-2l6 -34q2 2 2.5 7t0.5 11q0 10 -2 14q-2 2 -3 2zM324 664l-6 27l-1 -3q0 -11 0.5 -16t2.5 -8h4zM338 638v-13l7 20q-8 0 -10 -3q2 -3 3 -4zM298 610v-15.5t2 -11.5v29q3 3 1 3q-1 -1 -3 -5zM331 607q1 -1 1 8q0 10 -1 12
v-20zM325 658v16q-1 -1 -1 -2v-1v-13h1zM262 648q3 0 4 4zM282 615q-2 4 -5 8q0 -2 5 -8zM266 652h2v5q0 -3 -2 -5zM318 617l2 4q-2 -2 -2 -4z" />
    <glyph glyph-name="ae" unicode="&#xe6;" horiz-adv-x="936" 
d="M523 504h21v11h158v-11h20v-9h21v-10h11v-11h19v-10h12v-10h9v-10h11v-22h10v-11h11v-20h10v-30h11v-125h-11v-9h-31v-11h-269v-10h-53v-22h11v-21h10v-10h11v-11h9v-10h22v-11h21v-9h41v-11h70v11h63v9h31v11h30v10h54v-10h11v-72h-11v-10h-9v-11h-21v-9h-21v-12h-42
v-10h-41v-11h-52v-10h-116v10h-42v11h-31v7h-1v-11h-85v11h-11v10h-21v11h-7v-11h-31v-10h-42v-11h-157v11h-21v10h-20v11h-22v9h-11v21h-9v21h-11v113h11v20h9v22h11v11h11v10h20v11h21v9h20v11h32v10h41v11h62v10h24v-10h39v10h30v11h14v13h7v39h-10v10h-11v11h-9v11h-21
v10h-70v-10h-22v-11h-20v-11h-10v-10h-11v-31h-9v-10h-11v-11h-65v11h-10v10h-11v93h11v20h21v10h20v11h21v11h20v9h53v11h157v-11h21v-9h21v-11h11v-11h10v-10h1v4h20v11h21v10h21v9zM363 170h5v42h-5v10h-131v-10h-32v-11h-20v-10h-21v-11h-11v-9h-9v-22h-11v-1h11v-21h20
v-9h21v-11h111v11h21v9h21v11h21v10h9v22zM374 164v-15l7 21h-13v-6h6zM240 97h-5l6 -20v30h-1v-10zM159 98v20h-6zM180 87v20h-7zM370 222l-7 21v-21h7zM741 340h-11v10h-10v11h-11v21h-20v10h-11v11h-32v10h-68v-10h-21v-11h-11v-10h-10v-11h-12v-10h-9v-11h-11v-10h-10
v-20h-11v-11h154v9h93v11h11v11zM741 320h16l-5 15l5 14h-16v-29zM685 403l-7 20v-20h7zM653 413l-7 20v-20h7zM726 361l-6 21v-21h6zM695 392l-6 20v-20h6zM737 350l-7 21v-21h7z" />
    <glyph glyph-name="ccedilla" unicode="&#xe7;" horiz-adv-x="560" 
d="M370 522v-11h30v-9h20v-11h11v-11h11v-10h9v-10h11v-21h10v-52h11v-61h-11v-21h-10v-10h-64v10h-21v21h-11v62h-9v10h-11v11h-32v11h-70v-11h-20v-11h-21v-10h-10v-11h-12v-9h-9v-11h-11v-10h-10v-21h-11v-31h-9v-75h9v-30h11v-9h10v-21h11v-12h9v-10h22v-11h21v-9h52
v-11h48v11h63v9h20v11h31v10h66v-10h9v-72h-9v-10h-11v-11h-21v-9h-30v-11h-22v-10h-50v-11h-32l15 -51h-6q2 -14 3.5 -26.5t4.5 -22.5l-3 -13v-10l-6 -1q1 -3 1 -6l-53 -15l-1 8l-13 -3l-9 31l-7 -2l-27 101h-36v10h-42v11h-32v10h-9v11h-10v9h-11v11h-10v10h-11v11h-10v21
h-11v21h-10v30h-11v31h-9v114h9v62h11v20h10v21h11v21h10v11h11v10h10v11h11v10h10v10h9v10h21v11h11v11h31v9h32v11h148z" />
    <glyph glyph-name="egrave" unicode="&#xe8;" horiz-adv-x="572" 
d="M398 347h-11v10h-10v11h-11v20h-20v10h-10v11h-33v11h-68v-11h-21v-11h-11v-10h-10v-11h-11v-9h-9v-11h-12v-10h-10v-21h-11v-11h154v10h93v11h11v11zM398 326h16l-5 15l5 15h-16v-30zM342 409l-6 21v-21h6zM310 420l-7 20v-20h7zM384 368l-7 20v-20h7zM352 398l-6 21
v-21h6zM394 357l-7 20v-20h7zM180 511h21v11h158v-11h20v-9h21v-11h11v-11h20v-10h11v-10h9v-10h11v-21h10v-11h11v-21h10v-30h11v-124h-11v-10h-31v-11h-269v-10h-53v-22h11v-20h10v-10h12v-12h9v-10h21v-11h21v-9h42v-11h70v11h62v9h31v11h30v10h55v-10h11v-72h-11v-10
h-10v-11h-21v-9h-21v-11h-41v-10h-42v-11h-52v-10h-116v10h-42v11h-31v10h-20v11h-11v9h-10v11h-20v10h-11v21h-11v11h-10v21h-11v52h-9v133h9v52h11v20h10v21h11v21h11v11h11v10h9v21h10v10h11v10h20v11h22v11h20v9zM318 610l13 -7l-5 -11l4 -4l-38 -66l-6 3q-1 -2 -2 -4.5
t-1 -3.5l-5 4q-1 -2 -2.5 -4.5t-1.5 -3.5l-172 102l4 7l-21 13l10 18l-4 4l35 59l6 -4l1 1l6 3q1 2 2.5 4t1.5 3l56 -33l-3 -8l55 -32l2 4q1 1 1 3l70 -39z" />
    <glyph glyph-name="eacute" unicode="&#xe9;" horiz-adv-x="572" 
d="M398 347h-11v10h-10v11h-11v20h-20v10h-10v11h-33v11h-68v-11h-21v-11h-11v-10h-10v-11h-11v-9h-9v-11h-12v-10h-10v-21h-11v-11h154v10h93v11h11v11zM398 326h16l-5 15l5 15h-16v-30zM342 409l-6 21v-21h6zM310 420l-7 20v-20h7zM384 368l-7 20v-20h7zM352 398l-6 21
v-21h6zM394 357l-7 20v-20h7zM180 511h21v11h158v-11h20v-9h21v-11h11v-11h20v-10h11v-10h9v-10h11v-21h10v-11h11v-21h10v-30h11v-124h-11v-10h-31v-11h-269v-10h-53v-22h11v-20h10v-10h12v-12h9v-10h21v-11h21v-9h42v-11h70v11h62v9h31v11h30v10h55v-10h11v-72h-11v-10
h-10v-11h-21v-9h-21v-11h-41v-10h-42v-11h-52v-10h-116v10h-42v11h-31v10h-20v11h-11v9h-10v11h-20v10h-11v21h-11v11h-10v21h-11v52h-9v133h9v52h11v20h10v21h11v21h11v11h11v10h9v21h10v10h11v10h20v11h22v11h20v9zM199 581l-17 18l25 14l-3 7l67 38l4 -7l54 32q-3 6 -3 8
l55 32l4 -7l5 4l4 -7l5 3l34 -59l-4 -4l11 -19l-22 -11q4 -5 4 -8l-171 -101l-4 7l-5 -3l-4 7l-6 -2z" />
    <glyph glyph-name="ecircumflex" unicode="&#xea;" horiz-adv-x="572" 
d="M180 511h21v11h158v-11h20v-9h21v-11h11v-11h20v-10h11v-10h9v-10h11v-21h10v-11h11v-21h10v-30h11v-124h-11v-10h-31v-11h-269v-10h-53v-22h11v-20h10v-10h12v-12h9v-10h21v-11h21v-9h42v-11h70v11h62v9h31v11h30v10h55v-10h11v-72h-11v-10h-10v-11h-21v-9h-21v-11h-41
v-10h-42v-11h-52v-10h-116v10h-42v11h-31v10h-20v11h-11v9h-10v11h-20v10h-11v21h-11v11h-10v21h-11v52h-9v133h9v52h11v20h10v21h11v21h11v11h11v10h9v21h10v10h11v10h20v11h22v11h20v9zM398 347h-11v10h-10v11h-11v20h-20v10h-10v11h-33v11h-68v-11h-21v-11h-11v-10h-10
v-11h-11v-9h-9v-11h-12v-10h-10v-21h-11v-11h154v10h93v11h11v11zM398 326h16l-5 15l5 15h-16v-30zM342 409l-6 21v-21h6zM310 420l-7 20v-20h7zM384 368l-7 20v-20h7zM352 398l-6 21v-21h6zM394 357l-7 20v-20h7zM282 710q2 2 6.5 4t5.5 2v-5l8 4v-6l1 1l87 -148l-6 -3
l8 -14l-19 -10v-5l-39 -23l-1 5l-2 3l-5 -2l-36 60l5 2l-13 23l-3 -6t-2.5 -4t-3.5 -4.5t-5 -8.5q8 -2 7 -2l-35 -59l-7 1l-2 -3v-5l-39 23v5l-19 12l8 12l-7 3l88 148l1 -1v6l7 -4v5z" />
    <glyph glyph-name="edieresis" unicode="&#xeb;" horiz-adv-x="572" 
d="M398 347h-11v10h-10v11h-11v20h-20v10h-10v11h-33v11h-68v-11h-21v-11h-11v-10h-10v-11h-11v-9h-9v-11h-12v-10h-10v-21h-11v-11h154v10h93v11h11v11zM398 326h16l-5 15l5 15h-16v-30zM342 409l-6 21v-21h6zM310 420l-7 20v-20h7zM384 368l-7 20v-20h7zM352 398l-6 21
v-21h6zM394 357l-7 20v-20h7zM180 511h21v11h158v-11h20v-9h21v-11h11v-11h20v-10h11v-10h9v-10h11v-21h10v-11h11v-21h10v-30h11v-124h-11v-10h-31v-11h-269v-10h-53v-22h11v-20h10v-10h12v-12h9v-10h21v-11h21v-9h42v-11h70v11h62v9h31v11h30v10h55v-10h11v-72h-11v-10
h-10v-11h-21v-9h-21v-11h-41v-10h-42v-11h-52v-10h-116v10h-42v11h-31v10h-20v11h-11v9h-10v11h-20v10h-11v21h-11v11h-10v21h-11v52h-9v133h9v52h11v20h10v21h11v21h11v11h11v10h9v21h10v10h11v10h20v11h22v11h20v9zM110 655v10h9v11h32v9h23v-9h31v-11h11v-10h9v-104h-9
v-20h-11v-10h-31v-11h-23v11h-32v21h-9v9h-11v104h11zM345 645v20h20v11h21v9h23v-9h31v-11h11v-10h9v-113h-9v-11h-11v-10h-10v-11h-55v11h-21v21h-9v31h-11v72h11z" />
    <glyph glyph-name="igrave" unicode="&#xec;" horiz-adv-x="550" 
d="M118 507h94v11h53v-11h21v-30h11v-71h-11v-282h11v-10h21v-11h165v-10h21v-82h-10v-11h-20v-10h-66v10h-319v-10h-32v10h-21v21h-11v52h11v20h10v10h104v11h20v10h21v271h-32v11h-59v-11h-54v11h-10v10h-11v71h11v11h82v9zM273 611l13 -7l-6 -11l5 -4l-38 -66l-7 3
q-2 -4 -2 -8l-6 4q-1 -2 -2.5 -4.5t-1.5 -3.5l-171 102l4 7l-22 13l10 18l-3 3l35 59l5 -3l1 1l7 3l2 4t1 3l57 -33l-4 -8l55 -32l2 4t1 3l70 -39z" />
    <glyph glyph-name="iacute" unicode="&#xed;" horiz-adv-x="550" 
d="M118 507h94v11h53v-11h21v-30h11v-71h-11v-282h11v-10h21v-11h165v-10h21v-82h-10v-11h-20v-10h-66v10h-319v-10h-32v10h-21v21h-11v52h11v20h10v10h104v11h20v10h21v271h-32v11h-59v-11h-54v11h-10v10h-11v71h11v11h82v9zM194 589l5 4l-6 10l14 8l-4 9l68 38l3 -7l55 32
l-4 8l55 32l4 -7l6 4l3 -7l6 3l34 -59l-5 -4l11 -19l-22 -11q5 -7 5 -8l-172 -101l-3 7l-6 -3l-3 7l-6 -2z" />
    <glyph glyph-name="icircumflex" unicode="&#xee;" horiz-adv-x="550" 
d="M118 507h94v11h53v-11h21v-30h11v-71h-11v-282h11v-10h21v-11h165v-10h21v-82h-10v-11h-20v-10h-66v10h-319v-10h-32v10h-21v21h-11v52h11v20h10v10h104v11h20v10h21v271h-32v11h-59v-11h-54v11h-10v10h-11v71h11v11h82v9zM243 705q2 1 6.5 3t5.5 2v-5l7 4v-5l1 1
l88 -148l-6 -4l8 -14l-20 -10v-4l-38 -23l-1 4l-2 3l-6 -2l-36 60l6 3l-13 22q-4 -7 -5.5 -9t-8.5 -13q6 -3 7 -3l-35 -59l-7 1l-3 -3v-4l-38 23v4l-19 12l8 12l-7 4l88 148l1 -1v5l7 -4v5z" />
    <glyph glyph-name="idieresis" unicode="&#xef;" horiz-adv-x="550" 
d="M118 507h94v11h53v-11h21v-30h11v-71h-11v-282h11v-10h21v-11h165v-10h21v-82h-10v-11h-20v-10h-66v10h-319v-10h-32v10h-21v21h-11v52h11v20h10v10h104v11h20v10h21v271h-32v11h-59v-11h-54v11h-10v10h-11v71h11v11h82v9zM71 655v10h9v11h32v9h23v-9h31v-11h11v-10h9
v-104h-9v-20h-11v-10h-31v-11h-23v11h-32v21h-9v9h-11v104h11zM306 645v20h20v11h21v9h22v-9h32v-11h11v-10h9v-113h-9v-11h-11v-10h-10v-11h-55v11h-21v21h-9v31h-11v72h11z" />
    <glyph glyph-name="eth" unicode="&#xf0;" horiz-adv-x="516" 
d="M109 587l8 5l-3 6l21 12l-3 8l38 21h-22v11h-41v10h-21v21h-11v50h11v21h42v12h33v-12h42v-10h30v-11h21v-9h22v-10h20v-11l15 9q-3 6 -3 9l70 41l3 -8q2 0 4 1.5t4 2.5l4 -7l6 3l37 -66l-5 -3l8 -13l-30 -17l4 -8l-35 -20v-7h11v-10h10v-22h11v-10h9v-20h12v-20h10v-43
h11v-41h9v-42h11v-226h-11v-53h-9v-21h-11v-21h-10v-21h-12v-9h-9v-21h-11v-10h-21v-11h-10v-10h-20v-11h-31v-10h-32v-11h-76v11h-50v10h-22v11h-20v10h-10v11h-21v10h-11v21h-10v9h-11v21h-10v32h-9v31h-11v154h11v32h9v21h10v21h11v21h10v9h11v10h10v12h11v9h10v11h20v10
h33v11h126v-11h21v-10h20v-11h18v12h-9v21h-11v21h-11v20h-11v21h-9v20h-11v11h-10v3l-109 -62l-4 7l-7 -5l-4 7l-7 -2zM120 224h10v-63h11v-11h9v-20h11v-10h10v-11h21v-9h21v-11h20v-11h30v11h30v11h20v9h11v11h11v21h11v20h9v22h10v94h-10v10h-9v11h-11v20h-22v10h-9v11
h-11v10h-21v12h-59v-12h-21v-10h-21v-11h-10v-10h-11v-20h-9v-11h-11v-42h-10v-21zM141 130v20h-6zM161 100v20h-6zM171 89v20h-6zM192 79v21h-7zM213 69v20h-7zM233 58v20h-6zM361 287l-6 20v-20h6zM352 298l-6 20v-20h6zM320 328l-7 21v-21h7zM311 339l-7 21v-21h7z
M300 349l-7 21v-21h7zM278 361l-6 20v-20h6z" />
    <glyph glyph-name="ntilde" unicode="&#xf1;" 
d="M136 667h30v11h117v-11h133v11h94v-11h11v-10h11v-92h-11v-21h-41v-11h-333v11h-11v10h-10v103h10v10zM307 507h31v11h106v-11h11v-9h19v-11h22v-10h11v-9h9v-12h11v-21h10v-30h11v-291h10v-11h53v-10h19v-93h-19v-10h-97v10h-103v21h-10v52h10v9h11v11h9v10h11v11h10
v124h9v52h-9v53h-10v21h-11v9h-9v12h-11v10h-21v11h-59v-11h-22v-10h-30v-12h-21v-9h-32v-21h-10v-93h-11v-75h11v-61h10v-11h53v-10h21v-11h9v-9h10v-52h-10v-10h-9v-11h-210v11h-11v10h-10v52h10v20h11v10h20v11h10v271h-10v10h-73v11h-10v71h10v10h21v11h52v9h75v-9h11
v-11h9v-19h29v9h11v10h21v11h41v9z" />
    <glyph glyph-name="ograve" unicode="&#xf2;" horiz-adv-x="584" 
d="M429 249h11v11h-11v42h-10v21h-11v9h-9v32h-10v9h-12v12h-9v10h-21v11h-21v10h-112v-10h-21v-11h-9v-10h-11v-12h-10v-9h-11v-21h-10v-31h-11v-41h-10v-33h10v-42h11v-10h10v-20h11v-10h10v-11h11v-10h9v-11h11v-10h21v-11h31v-10h50v10h30v11h21v10h20v11h12v10h10v21h9
v20h11v21h10v42zM414 332l-6 20v-20h6zM395 373l-6 21v-21h6zM384 385l-7 20v-20h7zM375 395l-7 20v-20h7zM353 406l-6 20v-20h6zM332 416l-6 20v-20h6zM142 166v20h-6zM163 136v20h-7zM173 124v21h-7zM184 114v21h-7zM193 103v21h-6zM204 94v20h-6zM225 83v20h-6zM256 73
v20h-7zM191 518h43v10h84v-10h52v-11h31v-9h31v-11h10v-10h11v-9h9v-12h11v-10h10v-21h12v-11h10v-20h11v-21h9v-52h11v-113h-11v-32h-9v-51h-11v-21h-10v-10h-12v-11h-10v-9h-11v-11h-9v-10h-21v-12h-11v-9h-9v-11h-22v-10h-20v-11h-42v-10h-116v10h-32v11h-30v10h-21v11
h-11v9h-21v12h-9v10h-10v11h-11v20h-10v21h-12v31h-9v21h-11v175h11v31h9v21h12v20h10v11h11v21h10v10h20v12h10v9h11v10h21v11h21v9h20v11zM298 606l13 -8l-5 -11l4 -3l-38 -67l-6 3l-2 -4t-1 -3l-5 3q-1 -2 -2.5 -4.5t-1.5 -3.5l-172 102l4 8l-21 13l10 17l-4 4l35 59
l6 -4l1 1l6 4q1 2 2.5 3.5t1.5 2.5l56 -33l-3 -7l55 -33l10 8l62 -41z" />
    <glyph glyph-name="oacute" unicode="&#xf3;" horiz-adv-x="584" 
d="M429 249h11v11h-11v42h-10v21h-11v9h-9v32h-10v9h-12v12h-9v10h-21v11h-21v10h-112v-10h-21v-11h-9v-10h-11v-12h-10v-9h-11v-21h-10v-31h-11v-41h-10v-33h10v-42h11v-10h10v-20h11v-10h10v-11h11v-10h9v-11h11v-10h21v-11h31v-10h50v10h30v11h21v10h20v11h12v10h10v21h9
v20h11v21h10v42zM414 332l-6 20v-20h6zM395 373l-6 21v-21h6zM384 385l-7 20v-20h7zM375 395l-7 20v-20h7zM353 406l-6 20v-20h6zM332 416l-6 20v-20h6zM142 166v20h-6zM163 136v20h-7zM173 124v21h-7zM184 114v21h-7zM193 103v21h-6zM204 94v20h-6zM225 83v20h-6zM256 73
v20h-7zM191 518h43v10h84v-10h52v-11h31v-9h31v-11h10v-10h11v-9h9v-12h11v-10h10v-21h12v-11h10v-20h11v-21h9v-52h11v-113h-11v-32h-9v-51h-11v-21h-10v-10h-12v-11h-10v-9h-11v-11h-9v-10h-21v-12h-11v-9h-9v-11h-22v-10h-20v-11h-42v-10h-116v10h-32v11h-30v10h-21v11
h-11v9h-21v12h-9v10h-10v11h-11v20h-10v21h-12v31h-9v21h-11v175h11v31h9v21h12v20h10v11h11v21h10v10h20v12h10v9h11v10h21v11h21v9h20v11zM235 589l4 4l-5 10l13 8l-3 9l67 38l4 -7l54 32l-4 8l56 32l3 -7l6 4l4 -7l5 3l34 -59l-4 -4l11 -19l-22 -11l4 -8l-171 -101l-4 7
l-5 -3l-4 7l-6 -2z" />
    <glyph glyph-name="ocircumflex" unicode="&#xf4;" horiz-adv-x="584" 
d="M191 518h43v10h84v-10h52v-11h31v-9h31v-11h10v-10h11v-9h9v-12h11v-10h10v-21h12v-11h10v-20h11v-21h9v-52h11v-113h-11v-32h-9v-51h-11v-21h-10v-10h-12v-11h-10v-9h-11v-11h-9v-10h-21v-12h-11v-9h-9v-11h-22v-10h-20v-11h-42v-10h-116v10h-32v11h-30v10h-21v11h-11v9
h-21v12h-9v10h-10v11h-11v20h-10v21h-12v31h-9v21h-11v175h11v31h9v21h12v20h10v11h11v21h10v10h20v12h10v9h11v10h21v11h21v9h20v11zM429 249h11v11h-11v42h-10v21h-11v9h-9v32h-10v9h-12v12h-9v10h-21v11h-21v10h-112v-10h-21v-11h-9v-10h-11v-12h-10v-9h-11v-21h-10v-31
h-11v-41h-10v-33h10v-42h11v-10h10v-20h11v-10h10v-11h11v-10h9v-11h11v-10h21v-11h31v-10h50v10h30v11h21v10h20v11h12v10h10v21h9v20h11v21h10v42zM414 332l-6 20v-20h6zM395 373l-6 21v-21h6zM384 385l-7 20v-20h7zM375 395l-7 20v-20h7zM353 406l-6 20v-20h6zM332 416
l-6 20v-20h6zM142 166v20h-6zM163 136v20h-7zM173 124v21h-7zM184 114v21h-7zM193 103v21h-6zM204 94v20h-6zM225 83v20h-6zM256 73v20h-7zM285 716q2 2 6.5 4t5.5 2v-5l8 4v-5h1l87 -147l-6 -4l8 -14l-19 -10v-4l-39 -23l-1 4l-2 3l-5 -2l-36 60l5 3l-13 22q-4 -7 -5.5 -9
t-8.5 -13q6 -3 7 -3l-35 -59l-7 1l-2 -3v-4l-39 23v4l-19 12l8 12l-7 4l88 147h1v5l7 -4v5z" />
    <glyph glyph-name="otilde" unicode="&#xf5;" horiz-adv-x="584" 
d="M80 670h30v11h117v-11h133v11h94v-11h11v-10h10v-92h-10v-20h-41v-11h-333v11h-11v9h-11v103h11v10zM429 249h11v11h-11v42h-10v21h-11v9h-9v32h-10v9h-12v12h-9v10h-21v11h-21v10h-112v-10h-21v-11h-9v-10h-11v-12h-10v-9h-11v-21h-10v-31h-11v-41h-10v-33h10v-42h11
v-10h10v-20h11v-10h10v-11h11v-10h9v-11h11v-10h21v-11h31v-10h50v10h30v11h21v10h20v11h12v10h10v21h9v20h11v21h10v42zM414 332l-6 20v-20h6zM395 373l-6 21v-21h6zM384 385l-7 20v-20h7zM375 395l-7 20v-20h7zM353 406l-6 20v-20h6zM332 416l-6 20v-20h6zM142 166v20h-6z
M163 136v20h-7zM173 124v21h-7zM184 114v21h-7zM193 103v21h-6zM204 94v20h-6zM225 83v20h-6zM256 73v20h-7zM191 518h43v10h84v-10h52v-11h31v-9h31v-11h10v-10h11v-9h9v-12h11v-10h10v-21h12v-11h10v-20h11v-21h9v-52h11v-113h-11v-32h-9v-51h-11v-21h-10v-10h-12v-11h-10
v-9h-11v-11h-9v-10h-21v-12h-11v-9h-9v-11h-22v-10h-20v-11h-42v-10h-116v10h-32v11h-30v10h-21v11h-11v9h-21v12h-9v10h-10v11h-11v20h-10v21h-12v31h-9v21h-11v175h11v31h9v21h12v20h10v11h11v21h10v10h20v12h10v9h11v10h21v11h21v9h20v11z" />
    <glyph glyph-name="odieresis" unicode="&#xf6;" horiz-adv-x="584" 
d="M429 249h11v11h-11v42h-10v21h-11v9h-9v32h-10v9h-12v12h-9v10h-21v11h-21v10h-112v-10h-21v-11h-9v-10h-11v-12h-10v-9h-11v-21h-10v-31h-11v-41h-10v-33h10v-42h11v-10h10v-20h11v-10h10v-11h11v-10h9v-11h11v-10h21v-11h31v-10h50v10h30v11h21v10h20v11h12v10h10v21h9
v20h11v21h10v42zM414 332l-6 20v-20h6zM395 373l-6 21v-21h6zM384 385l-7 20v-20h7zM375 395l-7 20v-20h7zM353 406l-6 20v-20h6zM332 416l-6 20v-20h6zM142 166v20h-6zM163 136v20h-7zM173 124v21h-7zM184 114v21h-7zM193 103v21h-6zM204 94v20h-6zM225 83v20h-6zM256 73
v20h-7zM191 518h43v10h84v-10h52v-11h31v-9h31v-11h10v-10h11v-9h9v-12h11v-10h10v-21h12v-11h10v-20h11v-21h9v-52h11v-113h-11v-32h-9v-51h-11v-21h-10v-10h-12v-11h-10v-9h-11v-11h-9v-10h-21v-12h-11v-9h-9v-11h-22v-10h-20v-11h-42v-10h-116v10h-32v11h-30v10h-21v11
h-11v9h-21v12h-9v10h-10v11h-11v20h-10v21h-12v31h-9v21h-11v175h11v31h9v21h12v20h10v11h11v21h10v10h20v12h10v9h11v10h21v11h21v9h20v11zM111 657v11h9v11h32v9h24v-9h30v-11h11v-11h9v-103h-9v-20h-11v-10h-30v-11h-24v11h-32v21h-9v9h-11v103h11zM346 648v20h20v11h22
v9h22v-9h31v-11h11v-11h9v-112h-9v-11h-11v-10h-10v-11h-54v11h-22v21h-9v30h-11v73h11z" />
    <glyph glyph-name="divide" unicode="&#xf7;" horiz-adv-x="470" 
d="M31 349h31v11h120v-11h136v11h96v-11h12v-9h10v-95h-10v-21h-43v-11h-340v11h-12v10h-10v106h10v9zM172 202h20v11h45v-11h31v-10h22v-21h11v-84h-11v-11h-11v-11h-11v-9h-87v9h-9v11h-12v32h-10v51h10v22h12v21zM172 499h9v11h78v-11h9v-10h22v-32h11v-52h-11v-31h-11
v-12h-20v-10h-78v10h-9v12h-12v31h-10v52h10v32h12v10z" />
    <glyph glyph-name="oslash" unicode="&#xf8;" horiz-adv-x="584" 
d="M386 586h12v8h57v-8h10v-9h11v-72h-11v-15h-10v-17h-2v-5h9v-12h11v-10h10v-21h12v-11h10v-20h11v-21h9v-52h11v-113h-11v-32h-9v-51h-11v-21h-10v-10h-12v-11h-10v-9h-11v-11h-9v-10h-21v-12h-11v-9h-9v-11h-22v-10h-20v-11h-42v-10h-116v3h-9v-23h-10v-33h-12v-32h-10
v-7h-11v-9h-33v-8h-25v8h-9v9h-12v63h12v33h9v24h12v23h-17v12h-9v10h-10v11h-11v20h-10v21h-12v31h-9v21h-11v175h11v31h9v21h12v20h10v11h11v21h10v10h20v12h10v9h11v10h21v11h21v9h20v11h43v10h84v-10h35v12h12v16h11v25h10v15zM300 394v22h-86v-10h-21v-11h-9v-10h-11
v-12h-10v-9h-11v-21h-10v-31h-11v-41h-10v-33h10v-42h11v-10h10v-20h11v-10h10v-10h7v24h10v25h12v15h9v16h12v24h12v32h9v24h12v16h10v25h12v23h11v24h11zM321 416l3 8l-14 10v-15h-10v-3h21zM163 136v20h-7zM173 125v21h-7zM142 166v20h-6zM214 436l-6 -20h6v20zM429 249
h11v11h-11v42h-10v21h-11v9h-9v32h-6l-2 5h-2v-16h-11v-16h-12v-31h-9v-25h-12v-24h-11v-15h-11v-25h-10v-23h-11v-17h-11v-23h-12v-25h-10v-16h-12v-20h49v10h30v11h21v10h20v11h12v10h10v21h9v20h11v21h10v42zM256 73v9h1v11h-1v10h-27l2 -39l16 3v15h6zM399 369v25
l-13 -7l5 -18h8zM414 332l-6 20v-20h6z" />
    <glyph glyph-name="ugrave" unicode="&#xf9;" 
d="M58 500h72v10h66v-10h9v-155h-9v-147h9v-30h11v-10h10v-21h11v-11h21v-10h31v-11h79v11h22v10h30v11h11v10h10v11h11v218h-11v11h-10v10h-52v11h-11v71h11v10h52v11h52v10h44v-10h10v-31h11v-93h-11v-229h11v-10h21v-11h51v-21h10v-61h-10v-10h-41v-11h-21v-10h-31v-11
h-44v11h-22v10h-9v11h-19v-11h-31v-10h-30v-11h-53v-9h-74v9h-32v11h-21v10h-9v11h-11v10h-21v21h-10v11h-11v30h-10v63h-11v50h11v12h-11v50h11v11h-11v95h-10v10h-51v11h-11v10h-10v51h10v20h21v11zM341 609l13 -8l-6 -11l5 -4l-38 -66l-7 3q-2 -4 -2 -8l-6 4
q-1 -2 -2.5 -4.5t-1.5 -3.5l-171 102l4 8l-22 12l11 18l-4 4l35 59l5 -4l1 1l7 4q1 2 2 3.5t1 2.5l57 -33l-4 -7l55 -33q1 2 2 4.5t1 3.5l70 -40z" />
    <glyph glyph-name="uacute" unicode="&#xfa;" 
d="M58 500h72v10h66v-10h9v-155h-9v-147h9v-30h11v-10h10v-21h11v-11h21v-10h31v-11h79v11h22v10h30v11h11v10h10v11h11v218h-11v11h-10v10h-52v11h-11v71h11v10h52v11h52v10h44v-10h10v-31h11v-93h-11v-229h11v-10h21v-11h51v-21h10v-61h-10v-10h-41v-11h-21v-10h-31v-11
h-44v11h-22v10h-9v11h-19v-11h-31v-10h-30v-11h-53v-9h-74v9h-32v11h-21v10h-9v11h-11v10h-21v21h-10v11h-11v30h-10v63h-11v50h11v12h-11v50h11v11h-11v95h-10v10h-51v11h-11v10h-10v51h10v20h21v11zM272 589l5 4l-5 10l13 8l-3 9l67 38l4 -7l54 32l-4 8l56 32l3 -7l6 4
l4 -7l5 3l34 -59l-4 -4l11 -19l-22 -11l4 -8l-171 -101l-4 7l-6 -3l-3 7l-6 -2z" />
    <glyph glyph-name="ucircumflex" unicode="&#xfb;" 
d="M58 500h72v10h66v-10h9v-155h-9v-147h9v-30h11v-10h10v-21h11v-11h21v-10h31v-11h79v11h22v10h30v11h11v10h10v11h11v218h-11v11h-10v10h-52v11h-11v71h11v10h52v11h52v10h44v-10h10v-31h11v-93h-11v-229h11v-10h21v-11h51v-21h10v-61h-10v-10h-41v-11h-21v-10h-31v-11
h-44v11h-22v10h-9v11h-19v-11h-31v-10h-30v-11h-53v-9h-74v9h-32v11h-21v10h-9v11h-11v10h-21v21h-10v11h-11v30h-10v63h-11v50h11v12h-11v50h11v11h-11v95h-10v10h-51v11h-11v10h-10v51h10v20h21v11zM305 714q2 2 6.5 3.5t5.5 1.5v-4l7 3v-5l1 1l88 -148l-7 -4l8 -13
l-19 -10v-5l-39 -23l-1 4l-1 3l-6 -2l-36 60l6 3l-13 22q-5 -7 -6.5 -9t-7.5 -13l6 -3l-35 -59l-6 1l-3 -3v-4l-39 23v5l-18 12l7 11l-6 4l87 148l1 -1v5l8 -3v4z" />
    <glyph glyph-name="udieresis" unicode="&#xfc;" 
d="M58 500h72v10h66v-10h9v-155h-9v-147h9v-30h11v-10h10v-21h11v-11h21v-10h31v-11h79v11h22v10h30v11h11v10h10v11h11v218h-11v11h-10v10h-52v11h-11v71h11v10h52v11h52v10h44v-10h10v-31h11v-93h-11v-229h11v-10h21v-11h51v-21h10v-61h-10v-10h-41v-11h-21v-10h-31v-11
h-44v11h-22v10h-9v11h-19v-11h-31v-10h-30v-11h-53v-9h-74v9h-32v11h-21v10h-9v11h-11v10h-21v21h-10v11h-11v30h-10v63h-11v50h11v12h-11v50h11v11h-11v95h-10v10h-51v11h-11v10h-10v51h10v20h21v11zM142 652v10h10v11h32v9h23v-9h30v-11h11v-10h10v-103h-10v-21h-11v-10
h-30v-11h-23v11h-32v21h-10v10h-11v103h11zM378 643v19h20v11h21v9h22v-9h32v-11h11v-10h9v-113h-9v-11h-11v-10h-11v-11h-54v11h-21v21h-9v31h-12v73h12z" />
    <glyph glyph-name="yacute" unicode="&#xfd;" horiz-adv-x="650" 
d="M38 497h61v11h23v-11h9v11h33v-11h83v-9h21v-72h-11v-10h-30v-10h-11v-1h11v-22h9v-20h11v-21h10v-21h11v-21h10v-21h9v-9h12v-32h10v-21h11v-10h9v-11h8v11h11v10h10v32h11v30h10v21h11v21h10v31h10v31h10v33h-51v10h-11v10h-10v51h10v20h93v11h128v-11h10v-20h9v-51h-9
v-20h-31v-10h-32v-11h-10v-22h-11v-30h-9v-31h-11v-22h-10v-30h-11v-21h-10v-31h-11v-11h-10v-30h-10v-21h-10v-21h-10v-31h-11v-11h-10v-20h-12v-22h-9v-9h-11v-32h-10v-21h-11v-20h-9v-20h-11v-32h-10v-21h-12v-10h-9v-21h-10v-20h-21v-11h-11v-10h-20v-11h-11v-10h-41
v-10h-55v10h-30v10h-11v11h-10v71h10v21h11v11h74v-11h39v11h22v20h9v21h11v11h10v20h11v21h10v20h10v21h11v32h-11v21h-10v21h-10v21h-11v10h-10v20h-11v21h-9v11h-11v21h-11v10h-11v21h-9v30h-11v22h-10v20h-11v21h-9v20h-11v22h-11v11h-10v10h-61v20h-12v51h12v20z
M275 553l4 4l-5 10l13 8l-3 9l67 38l4 -7l54 32l-4 8l56 32l3 -6l6 3l4 -7l5 3l34 -59l-4 -4l11 -19l-22 -11l4 -8l-171 -101l-4 7l-5 -3l-4 7l-6 -2z" />
    <glyph glyph-name="thorn" unicode="&#xfe;" horiz-adv-x="628" 
d="M119 725h20v9h76v-9h10v-21h11v-52h-11v-102h-10v-64h10v-10h19v10h51v9h117v-9h31v-10h21v-11h11v-10h20v-11h11v-10h9v-11h11v-21h10v-9h11v-21h9v-21h11v-62h10v-114h-10v-41h-11v-31h-9v-21h-11v-11h-10v-9h-11v-11h-9v-10h-11v-11h-11v-10h-20v-11h-10v-10h-32v-11
h-31v-10h-147v10h-33l7 -15l-10 -3l11 -31l-12 -4l10 -29l-8 -3l13 -39l-10 -3l15 -41l-9 -3l4 -9l-11 -3l3 -9l-29 -11q2 -3 2.5 -6.5t0.5 -4.5l-25 -8l-4 9l-8 -3l-4 10l-8 -3l-26 64l11 4l-14 39l8 3l-11 29l11 4l-11 29l10 4l-9 28l9 4l-6 20l8 4v104q1 4 -3.5 19
t-15.5 33h19v50l-10 21l14 5l-14 41l8 3l-9 28l9 3l-6 20l8 3l-11 30l11 4l-9 30l8 3l-9 28l8 3l-11 30l10 4l-7 19l10 4l-9 30l7 2l-11 31l11 3l-11 28l10 4l-2 6h-5v10h-62v12h-11v10h-10v51h10v21h20v10h53v11h10zM471 279h-9v21h-11v20h-10v11h-11v10h-10v11h-11v9h-9
v12h-33v10h-100v-10h-21v-12h-21v-20h-10v-218h10v-11h11v-10h10v-11h41v-10h71v10h20v11h22v10h9v11h21v21h11v10h10v20h11v21h9v84zM483 248v-10l6 20h-18v-10h12zM447 331l-6 20v-20h6zM436 341l-6 20v-20h6zM426 352l-6 21v-21h6zM415 361l-6 21v-21h6zM406 373l-6 20
v-20h6zM246 71v20h-7zM225 91v21h-6zM236 82v20h-6zM374 383l-7 20v-20h7zM287 61v20h-6z" />
    <glyph glyph-name="ydieresis" unicode="&#xff;" horiz-adv-x="650" 
d="M38 497h61v11h23v-11h9v11h33v-11h83v-9h21v-72h-11v-10h-30v-10h-11v-1h11v-22h9v-20h11v-21h10v-21h11v-21h10v-21h9v-9h12v-32h10v-21h11v-10h9v-11h8v11h11v10h10v32h11v30h10v21h11v21h10v31h10v31h10v33h-51v10h-11v10h-10v51h10v20h93v11h128v-11h10v-20h9v-51h-9
v-20h-31v-10h-32v-11h-10v-22h-11v-30h-9v-31h-11v-22h-10v-30h-11v-21h-10v-31h-11v-11h-10v-30h-10v-21h-10v-21h-10v-31h-11v-11h-10v-20h-12v-22h-9v-9h-11v-32h-10v-21h-11v-20h-9v-20h-11v-32h-10v-21h-12v-10h-9v-21h-10v-20h-21v-11h-11v-10h-20v-11h-11v-10h-41
v-10h-55v10h-30v10h-11v11h-10v71h10v21h11v11h74v-11h39v11h22v20h9v21h11v11h10v20h11v21h10v20h10v21h11v32h-11v21h-10v21h-10v21h-11v10h-10v20h-11v21h-9v11h-11v21h-11v10h-11v21h-9v30h-11v22h-10v20h-11v21h-9v20h-11v22h-11v11h-10v10h-61v20h-12v51h12v20z
M156 645v11h9v11h32v9h23v-9h31v-11h11v-11h9v-103h-9v-20h-11v-10h-31v-11h-23v11h-32v21h-9v9h-11v103h11zM391 636v20h20v11h21v9h22v-9h32v-11h11v-11h9v-112h-9v-11h-11v-10h-10v-11h-55v11h-21v21h-9v30h-11v73h11z" />
    <glyph glyph-name="Amacron" unicode="&#x100;" horiz-adv-x="740" 
d="M260 329h10v-9h146v9h11v13h-11v41h-10v33h-12v31h-9v22h-10v32h-12v20h-9v11h-20v-21h-9v-32h-12v-21h-10v-42h-11v-22h-11v-32h-11v-20h-10v-13zM438 321v-13l6 21h-17v-8h11zM356 532v10h4l-6 21v-31h2zM370 521l-7 20v-20h7zM270 299v21h-7zM321 733h11v10h45v-10h11
v-11h10v-20h10v-33h11v-21h10v-32h12v-32h10v-31h11v-32h10v-32h11v-31h10v-33h12v-21h9v-21h12v-21h10v-42h11v-22h10v-22h10v-42h11v-21h11v-32h11v-21h10v-21h11v-21h22v-11h31v-11h20v-84h-9v-10h-236v10h-33v73h11v11h43v11h31v33h-9v32h-12v20h-10v11h-11v11h-148v10
h-62v-10h-20v-11h-11v-42h-10v-33h-12v-1h12v-9h10v-11h63v-11h11v-72h-11v-12h-116v-10h-120v10h-20v84h11v11h21v11h20v9h11v12h10v31h12v11h9v32h11v31h11v32h11v22h10v22h12v21h9v42h11v21h11v21h11v33h10v20h10v32h11v43h10v31h11v32h10v22h12v42h10v42h21v11zM115 833
h31v11h120v-11h211v11h97v-11h11v-10h10v-57h-10v-21h-42v-11h-416v11h-12v10h-10v68h10v10z" />
    <glyph glyph-name="amacron" unicode="&#x101;" horiz-adv-x="606" 
d="M357 170h11v42h-11v10h-131v-10h-33v-11h-20v-10h-20v-11h-11v-9h-9v-22h-11v-1h11v-21h20v-9h20v-11h112v11h21v9h20v11h21v10h10v22zM233 97h-5l7 -20v30h-2v-10zM153 98v20h-7zM173 87v20h-6zM363 222l-6 21v-21h6zM181 511h52v11h158v-11h20v-9h21v-11h11v-11h10v-10
h12v-20h9v-155h-9v-177h26v9h45v-9h10v-11h11v-71h-11v-11h-42v-10h-30v-11h-85v11h-11v10h-21v11h-8v-11h-30v-10h-43v-11h-156v11h-22v10h-20v11h-21v9h-11v21h-9v21h-11v113h11v20h9v22h11v11h10v10h20v11h22v9h20v11h31v10h42v11h62v10h24v-10h38v10h31v11h11v10h10v42
h-10v10h-11v11h-10v11h-21v10h-70v-10h-21v-11h-20v-11h-10v-10h-12v-31h-9v-10h-11v-11h-64v11h-11v10h-11v93h11v20h22v10h20v11h20v11h21v9zM65 631h31v11h117v-11h206v11h94v-11h11v-10h11v-56h-11v-20h-41v-11h-407v11h-11v9h-10v67h10v10z" />
    <glyph glyph-name="Abreve" unicode="&#x102;" horiz-adv-x="740" 
d="M260 329h10v-9h146v9h11v13h-11v41h-10v33h-12v31h-9v22h-10v32h-12v20h-9v11h-20v-21h-9v-32h-12v-21h-10v-42h-11v-22h-11v-32h-11v-20h-10v-13zM438 321v-13l6 21h-17v-8h11zM356 532v10h4l-6 21v-31h2zM370 521l-7 20v-20h7zM270 299v21h-7zM321 733h11v10h45v-10h11
v-11h10v-20h10v-33h11v-21h10v-32h12v-32h10v-31h11v-32h10v-32h11v-31h10v-33h12v-21h9v-21h12v-21h10v-42h11v-22h10v-22h10v-42h11v-21h11v-32h11v-21h10v-21h11v-21h22v-11h31v-11h20v-84h-9v-10h-236v10h-33v73h11v11h43v11h31v33h-9v32h-12v20h-10v11h-11v11h-148v10
h-62v-10h-20v-11h-11v-42h-10v-33h-12v-1h12v-9h10v-11h63v-11h11v-72h-11v-12h-116v-10h-120v10h-20v84h11v11h21v11h20v9h11v12h10v31h12v11h9v32h11v31h11v32h11v22h10v22h12v21h9v42h11v21h11v21h11v33h10v20h10v32h11v43h10v31h11v32h10v22h12v42h10v42h21v11zM433 822
v-4q0 -16 -1 -18.5t-5 -4.5q0 -7 -2 -12.5t-9 -5.5l-3 -9q-1 -2 -1 -4q-2 2 -4 -0.5t-3 -5.5q-2 -4 -4.5 -7.5t-4.5 -3.5q1 0 -2 3q-2 -6 -6 -7l18 -17h-13.5t-20.5 -0.5t-21 -0.5h-13h-27q-1 0 -3 3t-4 7q1 -1 0 -1q-4 0 -8 1t-7 6h-3q-6 0 -8 1t-4 6q-3 0 -6 2t-4 8
q-2 1 -3 3.5t-2 10.5q-2 -2 -4 -2.5t-2 15.5q-2 -1 -4 -1h-2l-6 76l25 19h3q0 -1 1 -1h3h3l4 -2h6q2 0 5.5 -0.5t5.5 -0.5v-34q2 -1 3.5 -2.5t3.5 -6.5l2 -3h1q2 0 5 -6.5t6 -11.5q0 10 -4 11q4 0 6 2q5 0 7 -9q1 0 9 -2l-2 1q3 0 4 -1q5 8 8.5 9t5.5 1q7 0 5 -5l3 4
q0 8 4 13.5t12 7.5v32q2 0 8 0.5t6 3.5l27 1v-7l3 -1l-1 1l21 -7zM416 777q3 1 3 12zM330 800v-3l2 -3zM301 741l3 -5z" />
    <glyph glyph-name="abreve" unicode="&#x103;" horiz-adv-x="606" 
d="M357 170h11v42h-11v10h-131v-10h-33v-11h-20v-10h-20v-11h-11v-9h-9v-22h-11v-1h11v-21h20v-9h20v-11h112v11h21v9h20v11h21v10h10v22zM233 97h-5l7 -20v30h-2v-10zM153 98v20h-7zM173 87v20h-6zM363 222l-6 21v-21h6zM181 511h52v11h158v-11h20v-9h21v-11h11v-11h10v-10
h12v-20h9v-155h-9v-177h26v9h45v-9h10v-11h11v-71h-11v-11h-42v-10h-30v-11h-85v11h-11v10h-21v11h-8v-11h-30v-10h-43v-11h-156v11h-22v10h-20v11h-21v9h-11v21h-9v21h-11v113h11v20h9v22h11v11h10v10h20v11h22v9h20v11h31v10h42v11h62v10h24v-10h38v10h31v11h11v10h10v42
h-10v10h-11v11h-10v11h-21v10h-70v-10h-21v-11h-20v-11h-10v-10h-12v-31h-9v-10h-11v-11h-64v11h-11v10h-11v93h11v20h22v10h20v11h20v11h21v9zM397 598v-3q0 -16 -1 -18t-5 -4q0 -8 -2 -13t-8 -5l-3 -9q-1 -2 -1 -4q-5 2 -7 -5q-6 -11 -9 -11l-2 2q-2 -5 -6 -6l18 -17
h-13.5t-20.5 -0.5t-20.5 -0.5h-12.5h-26q-2 0 -3.5 3l-3.5 7q1 -1 0 -1q-4 0 -8 0.5t-7 5.5h-3q-5 0 -7.5 1t-4.5 7q-2 0 -5 1.5t-4 8.5q-2 1 -3 3t-2 10q-2 -2 -4 -2.5t-2 14.5h-5l-7 74l25 19h3q0 -1 1 -1h2h3q1 -1 2 -1t1.5 -0.5t1.5 -0.5h5q2 0 6 -0.5t5 -0.5v-33
q2 -2 3.5 -3t3.5 -6l2 -3h1q2 0 5 -6.5t6 -11.5q0 10 -4 10q4 0 6 2q4 0 7 -8q2 0 8 -2l-2 1q3 0 4 -1q5 7 8.5 8t5.5 1q5 0 5 -4l2 3q0 17 16 22v30q2 0 8 0.5t6 4.5l27 1v-8l2 -1l-1 1l21 -6zM381 555q2 2 2 11zM297 577v-3l2 -2zM271 515l-3 5z" />
    <glyph glyph-name="Aogonek" unicode="&#x104;" horiz-adv-x="740" 
d="M557 -211v3h-14v4h-12v5h-4v6h-10v3h-4v4h-3v5h-5v5h-4v3h-5v5h-3v9h-5v9h-5v8h-5v25h-3v92h3v14h5v13h-34v10h-33v73h11v11h43v11h31v33h-9v32h-12v20h-10v11h-11v11h-148v10h-62v-10h-20v-11h-11v-42h-10v-33h-12v-1h12v-9h10v-11h63v-11h11v-72h-11v-12h-116v-10h-120
v10h-20v84h11v11h21v11h20v9h11v12h10v31h12v11h9v32h11v31h11v32h11v22h10v22h12v21h9v42h11v21h11v21h11v33h10v20h10v32h11v43h10v31h11v32h10v22h12v42h10v42h21v11h11v10h45v-10h11v-11h10v-20h10v-33h11v-21h10v-32h12v-32h10v-31h11v-32h10v-32h11v-31h10v-33h12v-21
h9v-21h12v-21h10v-42h11v-22h10v-22h10v-42h11v-21h11v-32h11v-21h10v-21h11v-21h22v-11h31v-11h20v-84h-9v-10l-59 -3l4 4l-33 -22v-15h-17l4 4l-16 -12v-13h-4v-4h-4v-10h-5v-4h-8l2 -12h6v-8h5v-5h4v-5h4v-4h5v-3h3v-4h10v-6h7v-5h2v5h14v6h4v4h4v25h6v7l16 5l39 -2h11
v-10h5v-70h-5v-21h-4v-10h-5v-4h-4v-3h-3v-6h-12l-1 -5v-4h-14v-3h-89zM260 329h10v-9h146v9h11v13h-11v41h-10v33h-12v31h-9v22h-10v32h-12v20h-9v11h-20v-21h-9v-32h-12v-21h-10v-42h-11v-22h-11v-32h-11v-20h-10v-13zM438 321v-13l6 21h-17v-8h11zM356 532v10h4l-6 21
v-31h2zM370 521l-7 20v-20h7zM270 299v21h-7z" />
    <glyph glyph-name="aogonek" unicode="&#x105;" horiz-adv-x="606" 
d="M422 -207v4h-14v4h-11v4h-4v6h-10v4h-3v3h-4v5h-5v5h-3v3h-5v5h-4v8h-4v9h-5v8h-4v25h-4v90h4v13h4v13h5v8h4v8h4v5h5v2h-11v11h-8v-11h-30v-10h-43v-11h-156v11h-22v10h-20v11h-21v9h-11v21h-9v21h-11v113h11v20h9v22h11v11h10v10h20v11h22v9h20v11h31v10h42v11h62v10
h24v-10h38v10h31v11h11v10h10v42h-10v10h-11v11h-10v11h-21v10h-70v-10h-21v-11h-20v-11h-10v-10h-12v-31h-9v-10h-11v-11h-64v11h-11v10h-11v93h11v20h22v10h20v11h20v11h21v9h52v11h158v-11h20v-9h21v-11h11v-11h10v-10h12v-20h9v-155h-9v-177h26v9h45v-9h10v-11h11v-71
h-11v-11h-42v-10h-7v-10l-35 -23v-15h-17l4 3l-16 -11v-12h-3v-5h-5v-9h-5v-4h-7l2 -12h5v-8h5v-5h5v-5h3v-3h5v-4h4v-4h9v-5h7v-5h2v5h13v5h4v4h4v25h6v6l15 6l39 -3h10v-9h6v-68h-6v-21h-3v-10h-5v-3h-4v-4h-3v-6h-12l-1 -4v-4h-13v-4h-88zM357 170h11v42h-11v10h-131v-10
h-33v-11h-20v-10h-20v-11h-11v-9h-9v-22h-11v-1h11v-21h20v-9h20v-11h112v11h21v9h20v11h21v10h10v22zM233 97h-5l7 -20v30h-2v-10zM153 98v20h-7zM173 87v20h-6zM363 222l-6 21v-21h6z" />
    <glyph glyph-name="Cacute" unicode="&#x106;" horiz-adv-x="584" 
d="M214 722h31v11h130v-11h54v-11h95v-9h10v-22h11v-62h-11v-65h11v-63h-11v-11h-10v-10h-56v10h-10v22h-11v53h-10v21h-12v10h-9v11h-12v11h-21v11h-113v-11h-21v-11h-22v-11h-11v-10h-11v-11h-11v-22h-9v-10h-12v-21h-10v-32h-9v-42h-12v-172h12v-40h9v-33h10v-11h12v-21
h9v-11h11v-10h11v-12h22v-9h20v-11h22v-11h82v11h21v11h21v9h12v12h9v21h12v10h10v43h11v31h10v12h10v9h46v-9h21v-180h-11v-11h-10v-10h-11v-12h-22v-10h-10v-9h-21v-12h-22v-10h-42v-11h-42v-10h-76v10h-54v11h-32v10h-21v12h-21v9h-10v10h-11v12h-10v10h-12v11h-9v21h-11
v11h-11v11h-11v31h-11v22h-11v31h-9v54h-12v189h12v43h9v32h11v32h11v21h11v21h11v11h11v20h9v12h12v10h10v11h11v10h10v11h10v11h21v11h11v9h22v11zM280 789l5 3l-6 11l14 8l-4 9l69 39l4 -7l56 33q-4 8 -4 7l57 33l3 -6l6 4l4 -8l5 3l35 -60l-4 -4l11 -19l-23 -11
q5 -8 5 -9l-175 -104l-4 8l-6 -3l-4 7l-5 -2z" />
    <glyph glyph-name="cacute" unicode="&#x107;" horiz-adv-x="560" 
d="M190 511h32v11h148v-11h30v-9h20v-11h11v-11h11v-10h9v-10h11v-21h10v-52h11v-61h-11v-21h-10v-10h-64v10h-21v21h-11v62h-9v10h-11v11h-32v11h-70v-11h-20v-11h-21v-10h-10v-11h-12v-9h-9v-11h-11v-10h-10v-21h-11v-31h-9v-75h9v-30h11v-9h10v-21h11v-12h9v-10h22v-11
h21v-9h52v-11h48v11h63v9h20v11h31v10h66v-10h9v-72h-9v-10h-11v-11h-21v-9h-30v-11h-22v-10h-50v-11h-33v-10h-136v10h-42v11h-32v10h-9v11h-10v9h-11v11h-10v10h-11v11h-10v21h-11v21h-10v30h-11v31h-9v114h9v62h11v20h10v21h11v21h10v11h11v10h10v11h11v10h10v10h9v10h21
v11h11v11h31v9zM238 584l4 3l-5 11l14 8l-4 8l67 39l4 -8l54 33l-2 4t-1 3l55 32l4 -6l5 4l4 -8l5 3l35 -59l-5 -4l11 -18l-22 -11q1 -3 4 -6q1 -1 1 -2l-172 -102l-4 7l-5 -2l-4 6l-5 -2z" />
    <glyph glyph-name="Ccaron" unicode="&#x10c;" horiz-adv-x="584" 
d="M214 722h31v11h130v-11h54v-11h95v-9h10v-22h11v-62h-11v-65h11v-63h-11v-11h-10v-10h-56v10h-10v22h-11v53h-10v21h-12v10h-9v11h-12v11h-21v11h-113v-11h-21v-11h-22v-11h-11v-10h-11v-11h-11v-22h-9v-10h-12v-21h-10v-32h-9v-42h-12v-172h12v-40h9v-33h10v-11h12v-21
h9v-11h11v-10h11v-12h22v-9h20v-11h22v-11h82v11h21v11h21v9h12v12h9v21h12v10h10v43h11v31h10v12h10v9h46v-9h21v-180h-11v-11h-10v-10h-11v-12h-22v-10h-10v-9h-21v-12h-22v-10h-42v-11h-42v-10h-76v10h-54v11h-32v10h-21v12h-21v9h-10v10h-11v12h-10v10h-12v11h-9v21h-11
v11h-11v11h-11v31h-11v22h-11v31h-9v54h-12v189h12v43h9v32h11v32h11v21h11v21h11v11h11v20h9v12h12v10h10v11h11v10h10v11h10v11h21v11h11v9h22v11zM344 725l-1 4l-6 -3l-1 5l-90 151l7 3l-6 10l17 15v5l40 24v-6l2 -3l6 3l37 -61l-7 -4l14 -22q4 7 6 9.5t9 13.5l-4 2t-3 1
l35 55l7 4l3 3v5l40 -24l-1 -5l20 -12l-8 -13l7 -3l-90 -151h-1v-5l-7 4l-13 1z" />
    <glyph glyph-name="ccaron" unicode="&#x10d;" horiz-adv-x="560" 
d="M190 511h32v11h148v-11h30v-9h20v-11h11v-11h11v-10h9v-10h11v-21h10v-52h11v-61h-11v-21h-10v-10h-64v10h-21v21h-11v62h-9v10h-11v11h-32v11h-70v-11h-20v-11h-21v-10h-10v-11h-12v-9h-9v-11h-11v-10h-10v-21h-11v-31h-9v-75h9v-30h11v-9h10v-21h11v-12h9v-10h22v-11
h21v-9h52v-11h48v11h63v9h20v11h31v10h66v-10h9v-72h-9v-10h-11v-11h-21v-9h-30v-11h-22v-10h-50v-11h-33v-10h-136v10h-42v11h-32v10h-9v11h-10v9h-11v11h-10v10h-11v11h-10v21h-11v21h-10v30h-11v31h-9v114h9v62h11v20h10v21h11v21h10v11h11v10h10v11h11v10h10v10h9v10h21
v11h11v11h31v9zM301 510l-1 4l-6 -3l-1 4l-88 148l7 3l-6 10l17 15v4l39 23v-5l2 -3l6 3l36 -60l-6 -4l13 -21q5 7 6.5 9t7.5 13q-2 1 -3.5 2t-2.5 1l34 54l7 4l3 3v4l39 -23l-1 -4l19 -12l-7 -13l6 -3l-87 -148h-1v-4l-8 4h-12z" />
    <glyph glyph-name="Dcaron" unicode="&#x10e;" horiz-adv-x="652" 
d="M490 351h11v1h-11v73h-11v33h-9v32h-11v11h-11v20h-10v11h-12v22h-21v10h-10v11h-11v10h-10v11h-42v11h-94v-11h-10v-11h-11v-467h11v-11h31v-11h51v11h31v11h33v9h21v12h22v21h9v10h12v11h10v22h11v22h11v31h9v31h11v64zM207 265v12l-6 -20h16v8h-10zM455 521l-7 20v-20
h7zM444 532l-6 21v-21h6zM412 564l-7 21v-21h7zM402 575l-7 20v-20h7zM390 585l-6 21v-21h6zM381 596l-7 21v-21h7zM338 607l-6 20v-20h6zM259 75v21h-6zM228 86v21h-7zM466 501l-7 21v-21h7zM35 711h10v11h88v-11h104v11h34v-11h105v-9h32v-11h22v-11h21v-11h21v-10h11v-11
h9v-10h12v-12h10v-10h11v-10h10v-11h11v-21h10v-12h12v-20h9v-32h11v-43h11v-52h11v-137h-11v-64h-11v-31h-11v-33h-9v-22h-12v-20h-10v-11h-11v-11h-10v-10h-11v-21h-22v-12h-9v-10h-11v-9h-21v-12h-12v-10h-63v-11h-320v11h-11v10h-10v73h21v11h32v11h20v11h12v403h10v11
h-10v64h-12v11h-31v11h-42v9h-12v75h12v9zM257 712l-1 4l-6 -3l-1 5l-90 151l7 3l-6 10l17 15v5l40 23v-5l3 -3l5 3l37 -62l-7 -3l15 -22q4 7 5.5 9.5t8.5 13.5q-4 2 -7 2l35 56l8 4l2 3v4l40 -23l-1 -5l20 -12l-8 -13l7 -3l-90 -151h-1v-5l-7 4l-12 1z" />
    <glyph glyph-name="dcaron" unicode="&#x10f;" horiz-adv-x="717" 
d="M124 242h10v-42h11v-19h10v-11h11v-22h9v-10h11v-11h10v-9h21v-11h73v-10h7v10h41v11h22v9h11v11h9v93h11v105h-11v41h-20v11h-22v10h-30v11h-59v-11h-32v-10h-21v-11h-21v-20h-9v-10h-11v-11h-10v-21h-11v-31h-10v-42zM145 160v21h-7zM155 149v21h-7zM175 118v20h-6z
M186 107v20h-6zM196 98v20h-6zM217 87v20h-7zM290 77v20h-7zM366 388l-6 21v-21h6zM345 398l-7 21v-21h7zM314 409l-6 21v-21h6zM380 740h32v10h65v-31h9v-82h-9v-1h9v-71h-9v-417h9v-21h53v-9h21v-82h-11v-11h-42v-10h-30v-11h-76v11h-39v-11h-41v-10h-148v10h-20v11h-21
v10h-11v11h-20v9h-11v11h-10v10h-11v21h-9v11h-11v21h-10v41h-11v165h11v31h10v31h11v22h9v9h11v11h10v10h11v11h10v10h10v10h21v10h20v11h21v11h179v-11h18v125h-31v10h-52v82h11v11h21v10h51v11zM518 741h31v11h44v-11h31v-10h21v-20h10v-73h-10v-63h-11v-165h-10v-10h-11
v-10h-64v10h-10v10h-11v63h-10v102h-11v54h-9v91h9v11h11v10z" />
    <glyph glyph-name="Dcroat" unicode="&#x110;" horiz-adv-x="652" 
d="M43 409h26v10h51v102h10v11h-10v64h-12v11h-31v11h-42v9h-12v75h12v9h10v11h88v-11h104v11h34v-11h105v-9h32v-11h22v-11h21v-11h21v-10h11v-11h9v-10h12v-12h10v-10h11v-10h10v-11h11v-21h10v-12h12v-20h9v-32h11v-43h11v-52h11v-137h-11v-64h-11v-31h-11v-33h-9v-22
h-12v-20h-10v-11h-11v-11h-10v-10h-11v-21h-22v-12h-9v-10h-11v-9h-21v-12h-12v-10h-63v-11h-320v11h-11v10h-10v73h21v11h32v11h20v11h12v174h-67v9h-10v8h-7v93h7v7zM490 351h11v1h-11v73h-11v33h-9v32h-11v11h-11v20h-10v11h-12v22h-21v10h-10v11h-11v10h-10v11h-42v11
h-94v-11h-10v-11h-11v-176h56v10h80v-10h9v-7h8v-84h-8v-17h-34v-9h-111v-174h11v-11h31v-11h51v11h31v11h33v9h21v12h22v21h9v10h12v11h10v22h11v22h11v31h9v31h11v64zM207 265v12l-6 -20h16v8h-10zM455 521l-7 20v-20h7zM444 532l-6 21v-21h6zM412 564l-7 21v-21h7z
M402 575l-7 20v-20h7zM390 585l-6 21v-21h6zM381 596l-7 21v-21h7zM338 607l-6 20v-20h6zM353 389v20h-7zM362 381v21h-7zM259 75v21h-6zM228 86v21h-7zM466 501l-7 21v-21h7z" />
    <glyph glyph-name="dcroat" unicode="&#x111;" horiz-adv-x="607" 
d="M378 740h32v10h65v-31h9v-82h-9v-1h9v-17h66v-9h9v-8h7v-82h-7v-17h-33v-8h-51v-347h9v-21h53v-9h21v-82h-11v-11h-42v-10h-30v-11h-76v11h-38v-11h-42v-10h-147v10h-21v11h-21v10h-11v11h-19v9h-11v11h-11v10h-11v21h-9v11h-11v21h-10v41h-11v165h11v31h10v31h11v22h9v9
h11v11h11v10h11v11h9v10h10v10h21v10h20v11h22v11h74v1h-9v9h-7v90h7v8h25v9h76v7h-53v82h11v11h21v10h51v11zM368 616v-6h10v6h-10zM378 491v4h-17v-4h17zM122 242h10v-42h11v-19h10v-11h11v-22h9v-10h11v-11h11v-9h20v-11h73v-10h7v10h42v11h21v9h11v11h9v93h11v105h-11
v41h-20v11h-21v10h-31v11h-59v-11h-32v-10h-20v-11h-22v-20h-9v-10h-11v-11h-10v-21h-11v-31h-10v-42zM143 160v21h-7zM153 149v21h-6zM173 118v20h-6zM184 107v20h-6zM195 98v20h-7zM215 87v20h-7zM288 77v20h-7zM364 388l-6 21v-21h6zM343 398l-6 21v-21h6zM313 409l-7 21
v-21h7z" />
    <glyph glyph-name="Emacron" unicode="&#x112;" horiz-adv-x="618" 
d="M23 711h10v11h512v-11h11v-31h10v-84h-10v-54h-11v-31h-10v-10h-56v20h-12v54h-9v21h-22v11h-63v11h-146v-11h-11v-161h11v-10h102v22h12v20h10v32h12v11h34v-11h10v-21h11v-52h-11v-192h-44v12h-12v21h-10v21h-12v22h-9v9h-31v12h-62v-21h-11v-12h-11v-170h11v-21h11
v-11h178v11h42v9h20v12h12v21h10v43h11v31h11v10h45v-10h10v-21h12v-189h-12v-12h-10v-10h-21v-11h-35v11h-446v10h-9v12h-12v61h12v11h20v11h32v11h12v9h9v480h-21v11h-52v9h-12v12h-10v72zM58 821h31v11h120v-11h211v11h96v-11h12v-11h10v-56h-10v-21h-43v-11h-416v11h-11
v9h-11v68h11v11z" />
    <glyph glyph-name="emacron" unicode="&#x113;" horiz-adv-x="572" 
d="M398 347h-11v10h-10v11h-11v20h-20v10h-10v11h-33v11h-68v-11h-21v-11h-11v-10h-10v-11h-11v-9h-9v-11h-12v-10h-10v-21h-11v-11h154v10h93v11h11v11zM398 326h16l-5 15l5 15h-16v-30zM342 409l-6 21v-21h6zM310 420l-7 20v-20h7zM384 368l-7 20v-20h7zM352 398l-6 21
v-21h6zM394 357l-7 20v-20h7zM180 511h21v11h158v-11h20v-9h21v-11h11v-11h20v-10h11v-10h9v-10h11v-21h10v-11h11v-21h10v-30h11v-124h-11v-10h-31v-11h-269v-10h-53v-22h11v-20h10v-10h12v-12h9v-10h21v-11h21v-9h42v-11h70v11h62v9h31v11h30v10h55v-10h11v-72h-11v-10
h-10v-11h-21v-9h-21v-11h-41v-10h-42v-11h-52v-10h-116v10h-42v11h-31v10h-20v11h-11v9h-10v11h-20v10h-11v21h-11v11h-10v21h-11v52h-9v133h9v52h11v20h10v21h11v21h11v11h11v10h9v21h10v10h11v10h20v11h22v11h20v9zM45 624h31v11h117v-11h206v11h94v-11h11v-10h11v-55h-11
v-20h-41v-12h-407v12h-11v9h-10v66h10v10z" />
    <glyph glyph-name="Edotaccent" unicode="&#x116;" horiz-adv-x="618" 
d="M23 711h10v11h512v-11h11v-31h10v-84h-10v-54h-11v-31h-10v-10h-56v20h-12v54h-9v21h-22v11h-63v11h-146v-11h-11v-161h11v-10h102v22h12v20h10v32h12v11h34v-11h10v-21h11v-52h-11v-192h-44v12h-12v21h-10v21h-12v22h-9v9h-31v12h-62v-21h-11v-12h-11v-170h11v-21h11
v-11h178v11h42v9h20v12h12v21h10v43h11v31h11v10h45v-10h10v-21h12v-189h-12v-12h-10v-10h-21v-11h-35v11h-446v10h-9v12h-12v61h12v11h20v11h32v11h12v9h9v480h-21v11h-52v9h-12v12h-10v72zM255 931h42v11h23v-11h43v-10h11v-12h10v-20h12v-22h10v-52h-10v-31h-12v-11h-10
v-10h-11v-11h-10v-11h-11v-11h-45v11h-31v11h-21v11h-12v10h-10v21h-11v63h11v43h10v9h12v12h10v10z" />
    <glyph glyph-name="edotaccent" unicode="&#x117;" horiz-adv-x="572" 
d="M398 347h-11v10h-10v11h-11v20h-20v10h-10v11h-33v11h-68v-11h-21v-11h-11v-10h-10v-11h-11v-9h-9v-11h-12v-10h-10v-21h-11v-11h154v10h93v11h11v11zM398 326h16l-5 15l5 15h-16v-30zM342 409l-6 21v-21h6zM310 420l-7 20v-20h7zM384 368l-7 20v-20h7zM352 398l-6 21
v-21h6zM394 357l-7 20v-20h7zM180 511h21v11h158v-11h20v-9h21v-11h11v-11h20v-10h11v-10h9v-10h11v-21h10v-11h11v-21h10v-30h11v-124h-11v-10h-31v-11h-269v-10h-53v-22h11v-20h10v-10h12v-12h9v-10h21v-11h21v-9h42v-11h70v11h62v9h31v11h30v10h55v-10h11v-72h-11v-10
h-10v-11h-21v-9h-21v-11h-41v-10h-42v-11h-52v-10h-116v10h-42v11h-31v10h-20v11h-11v9h-10v11h-20v10h-11v21h-11v11h-10v21h-11v52h-9v133h9v52h11v20h10v21h11v21h11v11h11v10h9v21h10v10h11v10h20v11h22v11h20v9zM226 725h41v11h23v-11h41v-10h11v-11h10v-21h11v-21h11
v-51h-11v-30h-11v-11h-10v-9h-11v-11h-9v-11h-11v-11h-44v11h-30v11h-21v11h-11v9h-10v21h-11v61h11v42h10v10h11v11h10v10z" />
    <glyph glyph-name="Eogonek" unicode="&#x118;" horiz-adv-x="618" 
d="M290 -211v3h-14v4h-12v5h-4v6h-10v3h-4v4h-3v5h-5v5h-4v3h-5v5h-3v9h-5v9h-5v8h-4v25h-4v92h4v14h4v13h-162v10h-9v12h-12v61h12v11h20v11h32v11h12v9h9v480h-21v11h-52v9h-12v12h-10v72h10v11h512v-11h11v-31h10v-84h-10v-54h-11v-31h-10v-10h-56v20h-12v54h-9v21h-22
v11h-63v11h-146v-11h-11v-161h11v-10h102v22h12v20h10v32h12v11h34v-11h10v-21h11v-52h-11v-192h-44v12h-12v21h-10v21h-12v22h-9v9h-31v12h-62v-21h-11v-12h-11v-170h11v-21h11v-11h178v11h42v9h20v12h12v21h10v43h11v31h11v10h45v-10h10v-21h12v-189h-12v-12h-10v-10h-21
v-11h-35v11l-140 -3l3 4l-33 -22v-15h-17l4 4l-16 -12v-13h-4v-4h-4v-10h-5v-4h-8l2 -12h6v-8h5v-5h4v-5h4v-4h5v-3h4v-4h9v-6h8v-5h2v5h13v6h4v4h4v25h6v7l16 5l40 -2h10v-10h6v-70h-6v-21h-4v-10h-5v-4h-3v-3h-4v-6h-11l-2 -5v-4h-14v-3h-89z" />
    <glyph glyph-name="eogonek" unicode="&#x119;" horiz-adv-x="572" 
d="M285 -207v4h-14v4h-11v4h-5v6h-9v4h-3v3h-4v5h-5v5h-3v3h-5v5h-4v8h-4v9h-5v8h-5v25h-3v90h3v13h5v5h-2v10h-42v11h-31v10h-20v11h-11v9h-10v11h-20v10h-11v21h-11v11h-10v21h-11v52h-9v133h9v52h11v20h10v21h11v21h11v11h11v10h9v21h10v10h11v10h20v11h22v11h20v9h21v11
h158v-11h20v-9h21v-11h11v-11h20v-10h11v-10h9v-10h11v-21h10v-11h11v-21h10v-30h11v-124h-11v-10h-31v-11h-269v-10h-53v-22h11v-20h10v-10h12v-12h9v-10h21v-11h21v-9h42v-11h70v11h62v9h31v11h30v10h55v-10h11v-72h-11v-10h-10v-11h-21v-9h-21v-11h-41v-10h-42v-11h-21
l-33 -22v-15h-17l4 3l-16 -11v-12h-4v-5h-4v-9h-5v-4h-7l2 -12h5v-8h5v-5h4v-5h4v-3h5v-4h3v-4h10v-5h7v-5h2v5h13v5h4v4h4v25h6v6l15 6l39 -3h10v-9h6v-68h-6v-21h-4v-10h-4v-3h-4v-4h-4v-6h-11l-1 -4v-4h-13v-4h-88zM398 347h-11v10h-10v11h-11v20h-20v10h-10v11h-33v11
h-68v-11h-21v-11h-11v-10h-10v-11h-11v-9h-9v-11h-12v-10h-10v-21h-11v-11h154v10h93v11h11v11zM398 326h16l-5 15l5 15h-16v-30zM342 409l-6 21v-21h6zM310 420l-7 20v-20h7zM384 368l-7 20v-20h7zM352 398l-6 21v-21h6zM394 357l-7 20v-20h7z" />
    <glyph glyph-name="Ecaron" unicode="&#x11a;" horiz-adv-x="618" 
d="M23 711h10v11h512v-11h11v-31h10v-84h-10v-54h-11v-31h-10v-10h-56v20h-12v54h-9v21h-22v11h-63v11h-146v-11h-11v-161h11v-10h102v22h12v20h10v32h12v11h34v-11h10v-21h11v-52h-11v-192h-44v12h-12v21h-10v21h-12v22h-9v9h-31v12h-62v-21h-11v-12h-11v-170h11v-21h11
v-11h178v11h42v9h20v12h12v21h10v43h11v31h11v10h45v-10h10v-21h12v-189h-12v-12h-10v-10h-21v-11h-35v11h-446v10h-9v12h-12v61h12v11h20v11h32v11h12v9h9v480h-21v11h-52v9h-12v12h-10v72zM292 717l-1 4l-7 -3l-1 5l-89 151l6 2l-5 11l17 15v5l39 23v-5l3 -3l6 3l36 -62
l-6 -4l14 -21q5 7 6.5 9t7.5 13q-2 1 -3.5 2t-2.5 1l34 56l8 4l3 2v5l39 -23v-5l19 -12l-7 -14l6 -2l-89 -151h-1v-5l-8 4l-12 1z" />
    <glyph glyph-name="ecaron" unicode="&#x11b;" horiz-adv-x="572" 
d="M398 347h-11v10h-10v11h-11v20h-20v10h-10v11h-33v11h-68v-11h-21v-11h-11v-10h-10v-11h-11v-9h-9v-11h-12v-10h-10v-21h-11v-11h154v10h93v11h11v11zM398 326h16l-5 15l5 15h-16v-30zM342 409l-6 21v-21h6zM310 420l-7 20v-20h7zM384 368l-7 20v-20h7zM352 398l-6 21
v-21h6zM394 357l-7 20v-20h7zM180 511h21v11h158v-11h20v-9h21v-11h11v-11h20v-10h11v-10h9v-10h11v-21h10v-11h11v-21h10v-30h11v-124h-11v-10h-31v-11h-269v-10h-53v-22h11v-20h10v-10h12v-12h9v-10h21v-11h21v-9h42v-11h70v11h62v9h31v11h30v10h55v-10h11v-72h-11v-10
h-10v-11h-21v-9h-21v-11h-41v-10h-42v-11h-52v-10h-116v10h-42v11h-31v10h-20v11h-11v9h-10v11h-20v10h-11v21h-11v11h-10v21h-11v52h-9v133h9v52h11v20h10v21h11v21h11v11h11v10h9v21h10v10h11v10h20v11h22v11h20v9zM278 507l-1 4l-7 -3l-1 5l-87 147l6 3l-5 10l16 15v5
l39 23v-6l3 -3l5 3l36 -60l-6 -4l14 -21q4 7 5.5 9t7.5 13q-3 3 -6 3l34 55l7 3l3 3v5l39 -23l-1 -5l19 -12l-7 -13l7 -3l-88 -147h-1v-5l-7 4l-12 1z" />
    <glyph glyph-name="Gbreve" unicode="&#x11e;" horiz-adv-x="640" 
d="M215 722h31v11h151v-11h54v-11h95v-9h10v-22h12v-84h-12v-106h-10v-21h-21v-11h-24v11h-22v21h-10v52h-11v22h-10v21h-11v11h-11v11h-21v11h-21v9h-92v-9h-22v-11h-32v-11h-10v-11h-11v-10h-10v-11h-11v-10h-11v-22h-11v-21h-10v-21h-12v-21h-9v-53h-10v-118h10v-54h9
v-31h12v-10h10v-22h11v-21h11v-11h21v-10h11v-12h10v-9h32v-11h22v-11h82v11h21v11h22v9h20v12h11v64h-11v11h-11v10h-85v11h-9v85h20v9h236v-9h11v-85h-11v-11h-20v-10h-22v-159h-11v-12h-52v-10h-22v-9h-22v-12h-21v-10h-31v-11h-33v-10h-66v10h-63v11h-22v10h-31v12h-21
v9h-12v10h-9v12h-11v10h-11v11h-9v10h-12v22h-10v20h-11v12h-10v21h-11v42h-10v75h-12v147h12v64h10v53h11v20h10v22h11v22h10v20h12v12h9v10h11v11h11v10h9v11h22v11h11v11h22v9h21v11zM416 830v-4q0 -15 -1 -17.5t-6 -4.5q0 -8 -2 -13t-8 -5q-2 -8 -3 -10t-1 -3
q-3 2 -5 -0.5t-3 -5.5q-4 -11 -8 -11q-1 0 -1 1t-1 1l-3.5 -3.5t-3.5 -2.5l18 -17h-13t-21 -0.5t-20.5 -0.5h-13.5h-26q-2 0 -4 3l-4 6q1 -1 0 -1q-3 0 -7.5 1t-7.5 6h-3q-5 0 -7.5 1t-4.5 7q-3 0 -5.5 1.5t-3.5 8.5q-5 2 -6 13q-2 -2 -4 -2t-2 15q-1 -1 -3 -1h-2l-7 77
l26 19h3l6 -1q1 -1 2 -1t1.5 -0.5t1.5 -0.5h5q2 0 6 -0.5t6 -0.5v-34q2 -2 3.5 -3t2.5 -6l2 -3h1q3 0 6 -6.5t6 -11.5q0 9 -4 10q5 0 5 2q4 0 8 -8q2 0 8 -2l-1 1q2 0 3 -1q5 7 9 8t6 1q6 0 4 -5l3 4q0 17 16 22v31q2 0 8 0.5t6 4.5l28 1v-8l2 -1v1l20 -6zM399 786q3 1 3 11
zM313 808v-2l2 -3zM284 750l2 -6z" />
    <glyph glyph-name="gbreve" unicode="&#x11f;" horiz-adv-x="606" 
d="M451 -75h9v10h11v22h-11v11h-9v10h-21v9h-21v11h-247v-11h-9v-9h-11v-10h-10v-11h-11v-21h-10v-11h10v-21h11v-11h10v-9h20v-11h53v-10h132v10h32v11h30v9h21v11h10v10h11v11zM264 -148h-4l6 -20v31h-2v-11zM457 -22l-6 20v-20h6zM436 -13l-6 20v-20h6zM416 -2l-7 20v-20
h7zM132 -127v20h-7zM142 -136v20h-7zM162 -148v21h-6zM215 -158v21h-7zM466 -32l-6 20v-20h6zM460 -95l6 20h-6v-20zM153 299h9v-21h11v-12h10v-9h11v-11h31v-10h80v10h20v11h22v21h11v21h10v41h-10v21h-11v21h-11v11h-20v10h-21v11h-70v-11h-21v-10h-21v-11h-10v-21h-11
v-21h-9v-41zM173 246v20h-6zM183 237v20h-6zM194 226v20h-6zM225 216v20h-7zM343 393l-7 20v-20h7zM323 403l-7 20v-20h7zM301 414l-6 20v-20h6zM160 495h31v11h127v-11h31v-10h32v-10h20v-11h125v-9h10v-22h11v-51h-11v-9h-10v-12h-73v-103h-11v-21h-11v-20h-9v-22h-10v-11
h-11v-9h-20v-11h-22v-10h-30v-11h-93v-10h-21v-9h-11v-12h-10v-11h228v-11h62v-9h21v-11h10v-10h11v-11h21v-10h10v-145h-10v-20h-11v-22h-10v-9h-11v-11h-10v-10h-21v-10h-11v-11h-20v-9h-31v-11h-30v-11h-54v-11h-94v11h-95v11h-30v11h-21v9h-21v11h-10v10h-11v21h-9v9
h-11v33h-10v82h10v30h11v11h9v20h11v11h10v10h11v83h10v21h10v11h11v9h10v2h-10v9h-11v11h-10v22h-10v9h-11v32h-10v134h10v30h11v22h10v11h10v9h21v11h11v10h20v10zM345 611v-3q0 -16 -1 -18t-6 -4q0 -8 -2 -13t-8 -5l-3 -9q-1 -2 -1 -4q-2 2 -4 -0.5t-3 -4.5
q-6 -11 -8 -11l-2 2l-3.5 -3.5t-3.5 -2.5l18 -17h-12.5t-20.5 -0.5t-20.5 -0.5h-12.5h-26q-2 0 -4 3t-4 7q1 -1 0 -1q-3 0 -7.5 0.5t-6.5 5.5h-3q-6 0 -8 1t-4 6q-8 0 -9 11q-2 1 -3.5 3t-2.5 9q-2 -1 -3.5 -1.5t-1.5 14.5q-2 -1 -4 -1h-2l-6 75l24 19h3q0 -1 1 -1h3h3l4 -2
h6q2 0 5.5 -0.5t5.5 -0.5v-33q2 -2 3.5 -3t2.5 -6l2 -3h1q3 0 5.5 -6.5t5.5 -11.5q0 9 -4 10q4 0 6 2q5 0 7 -8q1 0 9 -2l-2 1q3 0 4 -1q5 7 8 8t5 1q7 0 5 -4l3 3q0 17 15 22v30q2 0 8 0.5t6 4.5l27 1v-8l3 -1l-1 1l20 -6zM328 568q3 1 3 11zM244 590v-3l2 -2zM216 533
l2 -6z" />
    <glyph glyph-name="Gcommaaccent" unicode="&#x122;" horiz-adv-x="640" 
d="M298 -208h-17v4h-5v6h-6v69h6v27h5v54h5v33h6v5h6v5h39v-5h6v-5h6v-87h4v-33h6v-57h-6v-12h-10v-4h-16v-7h-29v7zM215 722h31v11h151v-11h54v-11h95v-9h10v-22h12v-84h-12v-106h-10v-21h-21v-11h-24v11h-22v21h-10v52h-11v22h-10v21h-11v11h-11v11h-21v11h-21v9h-92v-9
h-22v-11h-32v-11h-10v-11h-11v-10h-10v-11h-11v-10h-11v-22h-11v-21h-10v-21h-12v-21h-9v-53h-10v-118h10v-54h9v-31h12v-10h10v-22h11v-21h11v-11h21v-10h11v-12h10v-9h32v-11h22v-11h82v11h21v11h22v9h20v12h11v64h-11v11h-11v10h-85v11h-9v85h20v9h236v-9h11v-85h-11v-11
h-20v-10h-22v-159h-11v-12h-52v-10h-22v-9h-22v-12h-21v-10h-31v-11h-33v-10h-66v10h-63v11h-22v10h-31v12h-21v9h-12v10h-9v12h-11v10h-11v11h-9v10h-12v22h-10v20h-11v12h-10v21h-11v42h-10v75h-12v147h12v64h10v53h11v20h10v22h11v22h10v20h12v12h9v10h11v11h11v10h9v11
h22v11h11v11h22v9h21v11z" />
    <glyph glyph-name="gcommaaccent" unicode="&#x123;" horiz-adv-x="606" 
d="M248 -420h-17v5h-4v6h-6v67h6v27h4v52h6v32h5v5h6v6h39v-6h5v-5h6v-84h4v-33h6v-56h-6v-11h-10v-5h-16v-6h-28v6zM451 -75h9v10h11v22h-11v11h-9v10h-21v9h-21v11h-247v-11h-9v-9h-11v-10h-10v-11h-11v-21h-10v-11h10v-21h11v-11h10v-9h20v-11h53v-10h132v10h32v11h30v9
h21v11h10v10h11v11zM264 -148h-4l6 -20v31h-2v-11zM457 -22l-6 20v-20h6zM436 -13l-6 20v-20h6zM416 -2l-7 20v-20h7zM132 -127v20h-7zM142 -136v20h-7zM162 -148v21h-6zM215 -158v21h-7zM466 -32l-6 20v-20h6zM460 -95l6 20h-6v-20zM153 299h9v-21h11v-12h10v-9h11v-11h31
v-10h80v10h20v11h22v21h11v21h10v41h-10v21h-11v21h-11v11h-20v10h-21v11h-70v-11h-21v-10h-21v-11h-10v-21h-11v-21h-9v-41zM173 246v20h-6zM183 237v20h-6zM194 226v20h-6zM225 216v20h-7zM343 393l-7 20v-20h7zM323 403l-7 20v-20h7zM301 414l-6 20v-20h6zM160 495h31v11
h127v-11h31v-10h32v-10h20v-11h125v-9h10v-22h11v-51h-11v-9h-10v-12h-73v-103h-11v-21h-11v-20h-9v-22h-10v-11h-11v-9h-20v-11h-22v-10h-30v-11h-93v-10h-21v-9h-11v-12h-10v-11h228v-11h62v-9h21v-11h10v-10h11v-11h21v-10h10v-145h-10v-20h-11v-22h-10v-9h-11v-11h-10
v-10h-21v-10h-11v-11h-20v-9h-31v-11h-30v-11h-54v-11h-94v11h-95v11h-30v11h-21v9h-21v11h-10v10h-11v21h-9v9h-11v33h-10v82h10v30h11v11h9v20h11v11h10v10h11v83h10v21h10v11h11v9h10v2h-10v9h-11v11h-10v22h-10v9h-11v32h-10v134h10v30h11v22h10v11h10v9h21v11h11v10h20
v10z" />
    <glyph glyph-name="Imacron" unicode="&#x12a;" horiz-adv-x="555" 
d="M47 722h319v11h23v-11h74v-11h11v-9h10v-53h-10v-31h-54v-11h-95v-11h-10v-469h10v-9h22v-11h149v-11h10v-11h11v-73h-21v-10h-407v10h-9v12h-11v72h11v11h20v11h66v-11h19v11h22v21h10v423h12v2h-12v32h-10v11h-85v11h-75v9h-11v75h11v20zM32 821h32v11h119v-11h212v11
h96v-11h11v-11h11v-56h-11v-21h-42v-11h-416v11h-12v9h-10v68h10v11z" />
    <glyph glyph-name="imacron" unicode="&#x12b;" horiz-adv-x="566" 
d="M133 507h94v11h53v-11h21v-30h12v-71h-12v-282h12v-10h20v-11h165v-10h21v-82h-10v-11h-20v-10h-66v10h-319v-10h-32v10h-21v21h-11v52h11v20h10v10h104v11h20v10h22v271h-33v11h-59v-11h-54v11h-10v10h-11v71h11v11h82v9zM35 626h30v11h118v-11h206v11h94v-11h11v-10h10
v-55h-10v-21h-41v-11h-407v11h-11v10h-10v66h10v10z" />
    <glyph glyph-name="Iogonek" unicode="&#x12e;" horiz-adv-x="540" 
d="M233 -211v3h-14v4h-11v5h-5v6h-10v3h-3v4h-4v5h-5v5h-4v3h-4v5h-4v9h-5v9h-4v8h-5v25h-4v92h4v14h5v13h-85v10h-10v12h-10v72h10v11h21v11h66v-11h19v11h22v21h10v423h11v2h-11v32h-10v11h-85v11h-75v9h-11v75h11v20h319v11h23v-11h73v-11h12v-9h10v-53h-10v-31h-54v-11
h-96v-11h-9v-469h9v-9h22v-11h149v-11h11v-11h11v-73h-22v-10l-178 -3l4 4l-33 -22v-15h-17l3 4l-16 -12v-13h-3v-4h-5v-10h-5v-4h-7l2 -12h5v-8h5v-5h5v-5h3v-4h5v-3h4v-4h9v-6h8v-5h2v5h13v6h5v4h3v25h6v7l16 5l40 -2h10v-10h6v-70h-6v-21h-4v-10h-4v-4h-4v-3h-4v-6h-11
l-2 -5v-4h-13v-3h-90z" />
    <glyph glyph-name="iogonek" unicode="&#x12f;" horiz-adv-x="550" 
d="M228 -207v4h-14v4h-11v4h-4v6h-9v4h-4v3h-4v5h-4v5h-4v3h-5v5h-3v8h-5v9h-5v8h-4v25h-4v90h4v13h4v11h-67v-10h-32v10h-21v21h-11v52h11v20h10v10h104v11h20v10h21v271h-32v11h-59v-11h-54v11h-10v10h-11v71h11v11h82v9h94v11h53v-11h21v-30h11v-71h-11v-282h11v-10h21
v-11h165v-10h21v-82h-10v-11h-20v-10h-66v10h-111l3 4l-32 -23v-14h-17l4 3l-16 -11v-12h-3v-5h-5v-9h-5v-4h-7l2 -12h5v-8h5v-5h5v-5h3v-3h5v-4h4v-4h9v-5h7v-5h2v5h13v5h5v4h3v25h6v6l16 6l38 -3h10v-9h6v-68h-6v-21h-3v-10h-5v-3h-4v-4h-3v-6h-11l-2 -4v-4h-13v-4h-88z
M203 700l19 15v11h64v-10h21v-11h11v-10h10v-103h-10v-10h-11v-11h-10v-9h-11v-11h-21v-11h-43v11h-31v11h-11v9h-10v103h10v21h11v10h16z" />
    <glyph glyph-name="Idotaccent" unicode="&#x130;" horiz-adv-x="540" 
d="M33 722h319v11h23v-11h73v-11h12v-9h10v-53h-10v-31h-54v-11h-96v-11h-9v-469h9v-9h22v-11h149v-11h11v-11h11v-73h-22v-10h-406v10h-10v12h-10v72h10v11h21v11h66v-11h19v11h22v21h10v423h11v2h-11v32h-10v11h-85v11h-75v9h-11v75h11v20zM206 914h42v11h23v-11h42v-10
h12v-12h10v-20h11v-22h11v-52h-11v-31h-11v-11h-10v-10h-12v-11h-9v-10h-11v-12h-45v12h-31v10h-22v11h-11v10h-10v21h-12v63h12v43h10v9h11v12h11v10z" />
    <glyph glyph-name="dotlessi" unicode="&#x131;" horiz-adv-x="550" 
d="M118 507h94v11h53v-11h21v-30h11v-71h-11v-282h11v-10h21v-11h165v-10h21v-82h-10v-11h-20v-10h-66v10h-319v-10h-32v10h-21v21h-11v52h11v20h10v10h104v11h20v10h21v271h-32v11h-59v-11h-54v11h-10v10h-11v71h11v11h82v9z" />
    <glyph glyph-name="Kcommaaccent" unicode="&#x136;" horiz-adv-x="718" 
d="M327 -194h-17v4h-5v6h-5v69h5v27h5v54h6v33h5v5h6v5h40v-5h5v-5h6v-87h5v-33h5v-57h-5v-12h-11v-4h-16v-7h-29v7zM34 722h33v11h23v-11h41v11h23v-11h117v-11h11v-72h-11v-12h-43v-9h-10v-22h-12v-22h12v-116h-12v0h12v-22h10v-11h19v11h10v10h12v12h9v9h11v11h11v11h9
v11h12v10h10v11h11v10h11v22h11v9h9v22h12v11h10v11h11v12h-21v9h-21v84h9v11h33v11h23v-11h51v11h87v-11h33v-20h9v-63h-9v-12h-12v-9h-31v-11h-21v-11h-12v-11h-9v-10h-11v-11h-11v-10h-11v-12h-11v-21h-9v-10h-11v-10h-11v-11h-11v-11h-9v-10h-12v-11h-10v-11h-11v-22
h-10v-9h-11v-11h-11v-11h-21v-1h10v-10h11v-21h11v-11h11v-10h10v-12h11v-9h10v-12h12v-10h9v-11h11v-22h11v-9h11v-12h9v-19h11v-12h11v-10h11v-11h11v-11h9v-11h12v-21h10v-10h11v-12h10v-9h42v-11h44v-11h9v-11h11v-73h-11v-10h-21v-11h-34v11h-96v10h-21v12h-10v9h-11
v10h-11v22h-9v11h-11v21h-11v11h-11v20h-10v12h-11v10h-10v11h-12v11h-9v20h-11v11h-11v11h-11v21h-10v10h-12v12h-9v10h-11v11h-11v10h-9v11h-22v10h-8v-10h-21v-172h10v-9h21v-11h42v-11h12v-11h10v-73h-22v-10h-224v10h-12v21h-10v52h10v11h12v11h21v11h21v9h11v480h-11
v11h-64v9h-11v22h-10v53h10v20z" />
    <glyph glyph-name="kcommaaccent" unicode="&#x137;" horiz-adv-x="696" 
d="M345 -196h-17v4h-5v6h-5v67h5v27h5v52h6v33h5v4h6v6h38v-6h6v-4h5v-85h5v-32h6v-57h-6v-11h-10v-4h-16v-7h-28v7zM121 737h41v9h43v-9h22v-166h-11v-270h11v-11h7v11h11v11h10v9h11v10h21v11h10v10h10v11h11v10h9v11h11v10h10v11h11v11h-11v71h11v11h200v-11h11v-10h9
v-61h-9v-10h-33v-11h-21v-10h-20v-12h-21v-9h-20v-11h-11v-10h-9v-11h-21v-9h-11v-11h-10v-10h-12v-23h12v-20h10v-10h11v-11h10v-21h11v-10h9v-11h11v-10h10v-11h10v-9h11v-10h10v-21h11v-11h20v-10h10v-11h20v11h73v-21h12v-52h-12v-20h-19v-10h-11v-11h-30v-10h-76v10
h-21v11h-11v10h-10v11h-10v9h-11v12h-9v10h-11v11h-10v9h-11v11h-10v21h-11v10h-10v21h-11v10h-10v20h-11v11h-9v10h-11v22h-28v-11h-11v-11h-10v-10h-11v-11h-9v-9h-11v-11h-11v-32h11v-21h11v-10h41v-11h21v-9h10v-62h-10v-11h-145v-10h-56v10h-9v11h-11v62h11v20h20v10
h11v176h11v11h-11v115h11v124h-11v84h-72v9h-11v22h-11v51h11v10h11v11h50v10h22v11z" />
    <glyph glyph-name="Lacute" unicode="&#x139;" horiz-adv-x="674" 
d="M24 722h21v11h289v-11h22v-20h9v-53h-9v-10h-12v-12h-21v-9h-53v-11h-10v-11h-11v-12h11v-147h-11v-298h11v-21h21v-11h104v11h84v9h32v12h22v53h9v64h11v9h67v-9h11v-149h10v-74h-10v-31h-22v-11h-88v11h-434v10h-21v21h-11v52h11v11h11v11h10v11h64v9h9v447h11v22h-11
v11h-9v11h-96v9h-21v95zM154 785l5 4l-6 10l14 9l-4 8l69 40l4 -8l56 33l-4 8l56 33l4 -7l6 4l4 -8l5 3l35 -60l-5 -4l12 -19l-23 -11q5 -8 5 -9l-176 -103l-3 7l-6 -3l-4 7l-5 -2z" />
    <glyph glyph-name="lacute" unicode="&#x13a;" horiz-adv-x="528" 
d="M148 737h53v9h74v-9h11v-83h9v-52h-9v-238h-11v-74h11v-114h-11v-41h11v-21h20v-11h135v-10h21v-11h10v-9h11v-52h-11v-21h-31v-10h-66v10h-206v114h11v10h10v22h-10v71h10v396h-10v9h-61v-9h-85v9h-10v83h10v11h42v10h72v11zM199 798l-17 18l25 14l-3 6l67 39l4 -7
l54 32q-3 6 -3 7l55 33l4 -7l5 4l4 -7l5 2l35 -59l-5 -3l11 -19l-22 -11q4 -7 4 -8l-171 -102l-4 8l-5 -3l-4 6l-5 -1z" />
    <glyph glyph-name="Lcommaaccent" unicode="&#x13b;" horiz-adv-x="674" 
d="M310 -198h-17v5h-5v5h-6v69h6v27h5v54h5v33h6v5h6v6h39v-6h6v-5h5v-87h5v-33h6v-57h-6v-11h-10v-5h-16v-7h-29v7zM24 722h21v11h289v-11h22v-20h9v-53h-9v-10h-12v-12h-21v-9h-53v-11h-10v-11h-11v-12h11v-147h-11v-298h11v-21h21v-11h104v11h84v9h32v12h22v53h9v64h11v9
h67v-9h11v-149h10v-74h-10v-31h-22v-11h-88v11h-434v10h-21v21h-11v52h11v11h11v11h10v11h64v9h9v447h11v22h-11v11h-9v11h-96v9h-21v95z" />
    <glyph glyph-name="lcommaaccent" unicode="&#x13c;" horiz-adv-x="528" 
d="M230 -194h-17v5h-4v5h-6v68h6v27h4v52h6v32h5v5h6v6h38v-6h6v-5h6v-84h4v-33h6v-56h-6v-11h-10v-5h-16v-6h-28v6zM148 737h53v9h74v-9h11v-83h9v-52h-9v-238h-11v-74h11v-114h-11v-41h11v-21h20v-11h135v-10h21v-11h10v-9h11v-52h-11v-21h-31v-10h-66v10h-161v-10h-55v10
h-114v82h10v11h10v10h104v11h11v10h10v22h-10v71h10v396h-10v9h-61v-9h-85v9h-10v83h10v11h42v10h72v11z" />
    <glyph glyph-name="Lcaron" unicode="&#x13d;" horiz-adv-x="674" 
d="M24 722h21v11h289v-11h22v-20h9v-53h-9v-10h-12v-12h-21v-9h-53v-11h-10v-11h-11v-12h11v-147h-11v-298h11v-21h21v-11h104v11h84v9h32v12h22v53h9v64h11v9h67v-9h11v-149h10v-74h-10v-31h-22v-11h-88v11h-434v10h-21v21h-11v52h11v11h11v11h10v11h64v9h9v447h11v22h-11
v11h-9v11h-96v9h-21v95zM413 757h31v11h46v-11h32v-11h21v-21h10v-74h-10v-64h-11v-169h-10v-10h-12v-11h-66v11h-9v10h-11v64h-11v105h-11v54h-9v94h9v11h11v11z" />
    <glyph glyph-name="lcaron" unicode="&#x13e;" horiz-adv-x="598" 
d="M149 737h54v9h73v-9h11v-83h10v-52h-10v-238h-11v-74h11v-114h-11v-41h11v-21h21v-11h134v-10h21v-11h11v-9h11v-52h-11v-21h-32v-10h-65v10h-186v146h-10v71h10v396h-10v9h-61v-9h-84v9h-11v83h11v11h41v10h72v11zM413 746l30 -2v11h44v-11h32v-10h21v-20h9v-73h-9v-63
h-11v-165h-10v-10h-11v-10h-65v10h-9v10h-11v63h-10v102h-11v54h-10v91h10v11h11v12z" />
    <glyph glyph-name="Lslash" unicode="&#x141;" horiz-adv-x="674" 
d="M23 310l9 3l-2 8l29 11l-4 11l95 34v197h11v22h-11v11h-9v11h-96v9h-21v95h21v11h289v-11h22v-20h9v-53h-9v-10h-12v-12h-21v-9h-53v-11h-10v-11h-11v-12h11v-147h-11v-35l51 19q-3 9 -3 11l93 34l3 -12l11 4l3 -9l10 4l30 -87l-10 -4l6 -20l-37 -14q3 -8 3 -9l-160 -60
v-120h11v-21h21v-11h104v11h84v9h32v12h22v53h9v64h11v9h66v-9h12v-149h10v-74h-10v-31h-22v-11h-88v11h-435v10h-20v21h-11v52h11v11h11v11h9v11h65v9h9v97q-16 -6 -33 -12t-32 -11l-4 10l-10 -3l-4 9l-10 -4z" />
    <glyph glyph-name="lslash" unicode="&#x142;" horiz-adv-x="528" 
d="M148 737h53v9h74v-9h11v-83h9v-52h-9v-170q5 1 7 2.5t10 3.5q-1 2 -2 6t-1 5l90 33l3 -12l11 4l3 -8l10 3l29 -84l-11 -4l7 -18l-20 -9l-28 -10l-7 -5l1 2q-2 -2 -5.5 -4.5t-3.5 -3.5l-104 -41v-2h11v-114h-11v-41h11v-21h20v-11h135v-10h21v-11h10v-9h11v-52h-11v-21
h-31v-10h-66v10h-167l2 2l-20 -11v155h-10v71h10v43l-98 -37l-3 10l-10 -3l-4 9l-10 -4l-34 95l10 3l-3 8l29 10q-2 5 -3 8t-1 4l113 40l3 -10l11 4v216h-10v9h-61v-9h-85v9h-10v83h10v11h42v10h72v11z" />
    <glyph glyph-name="Nacute" unicode="&#x143;" horiz-adv-x="662" 
d="M24 722h10v11h77v-11h96v-11h11v-20h9v-22h12v-21h10v-10h11v-32h10v-22h10v-10h11v-21h10v-22h11v-21h11v-21h11v-11h10v-11h12v-21h9v-21h11v-21h11v-11h11v-21h9v-10h12v-21h10v-21h10v-12h11v-10h10v-22h20v214h-11v85h-11v21h-11v11h-41v11h-21v9h-22v84h11v11h235
v-11h11v-84h-11v-9h-21v-11h-21v-138h-10v-171h10v-286h-10v-10h-21v-11h-46v11h-10v10h-11v12h-11v19h-11v22h-10v21h-12v22h-9v20h-10v22h-12v33h-9v9h-11v32h-11v11h-11v22h-10v10h-11v21h-10v21h-12v21h-10v12h-11v20h-10v21h-11v22h-10v11h-10v21h-11v21h-11v21h-11v11
h-9v21h-20v-10h-11v-245h11v-96h11v-21h11v-12h32v-9h41v-11h11v-11h10v-84h-62v-10h-183v10h-22v21h-10v52h10v11h11v11h11v11h11v9h9v12h22v468h-10v11h-54v9h-10v95zM268 768l5 4l-6 10l14 9l-4 8l69 40l4 -8l56 33l-4 8l56 33l4 -7l6 4l4 -8l5 3l35 -60l-5 -4l12 -19
l-23 -11q5 -8 5 -9l-176 -103l-3 7l-6 -3l-4 7l-5 -2z" />
    <glyph glyph-name="nacute" unicode="&#x144;" 
d="M307 507h31v11h106v-11h11v-9h19v-11h22v-10h11v-9h9v-12h11v-21h10v-30h11v-291h10v-11h53v-10h19v-93h-19v-10h-97v10h-103v21h-10v52h10v9h11v11h9v10h11v11h10v124h9v52h-9v53h-10v21h-11v9h-9v12h-11v10h-21v11h-59v-11h-22v-10h-30v-12h-21v-9h-32v-21h-10v-93h-11
v-75h11v-61h10v-11h53v-10h21v-11h9v-9h10v-52h-10v-10h-9v-11h-210v11h-11v10h-10v52h10v20h11v10h20v11h10v271h-10v10h-73v11h-10v71h10v10h21v11h52v9h75v-9h11v-11h9v-19h29v9h11v10h21v11h41v9zM302 572l5 3l-6 11l14 8l-4 8l67 39l4 -8l55 33q-4 6 -4 7l55 32l4 -6
l5 4l4 -8l6 3l34 -59l-5 -4l11 -18l-22 -11q1 -3 4 -6q1 -1 1 -2l-172 -102l-3 7l-6 -2l-4 6l-5 -2z" />
    <glyph glyph-name="Ncommaaccent" unicode="&#x145;" horiz-adv-x="662" 
d="M338 -198h-17v5h-5v5h-6v69h6v27h5v54h5v33h6v5h6v6h39v-6h6v-5h6v-87h4v-33h6v-57h-6v-11h-10v-5h-16v-7h-29v7zM24 722h10v11h77v-11h96v-11h11v-20h9v-22h12v-21h10v-10h11v-32h10v-22h10v-10h11v-21h10v-22h11v-21h11v-21h11v-11h10v-11h12v-21h9v-21h11v-21h11v-11
h11v-21h9v-10h12v-21h10v-21h10v-12h11v-10h10v-22h20v214h-11v85h-11v21h-11v11h-41v11h-21v9h-22v84h11v11h235v-11h11v-84h-11v-9h-21v-11h-21v-138h-10v-171h10v-286h-10v-10h-21v-11h-46v11h-10v10h-11v12h-11v19h-11v22h-10v21h-12v22h-9v20h-10v22h-12v33h-9v9h-11
v32h-11v11h-11v22h-10v10h-11v21h-10v21h-12v21h-10v12h-11v20h-10v21h-11v22h-10v11h-10v21h-11v21h-11v21h-11v11h-9v21h-20v-10h-11v-245h11v-96h11v-21h11v-12h32v-9h41v-11h11v-11h10v-84h-62v-10h-183v10h-22v21h-10v52h10v11h11v11h11v11h11v9h9v12h22v468h-10v11
h-54v9h-10v95z" />
    <glyph glyph-name="ncommaaccent" unicode="&#x146;" 
d="M334 -194h-16v5h-5v5h-6v68h6v27h5v52h5v32h6v5h5v6h39v-6h5v-5h6v-84h5v-33h5v-56h-5v-11h-11v-5h-15v-6h-29v6zM286 498h16t10.5 0.5t8.5 1.5t10 3l7 2v13h106v-11h11v-9h19v-11h22v-10h11v-9h9v-12h11v-21h10v-30h11v-291h10v-11h53v-10h19v-93h-19v-10h-97v10h-103
v21h-10v52h10v9h11v11h9v10h11v11h10v124h9v52h-9v53h-10v21h-11v9h-9v12h-11v10h-21v11h-59v-11h-22v-10h-30v-12h-21v-9h-32v-21h-10v-93h-11v-75h11v-61h10v-11h53v-10h21v-11h9v-9h10v-52h-10v-10h-9v-11h-210v11h-11v10h-10v52h10v20h11v10h20v11h10v271h-10v10h-73v11
h-10v71h10v10h21v11h52v9h75v-9h11v-11h9v-19h29v9h11v10h21v11h20z" />
    <glyph glyph-name="Ncaron" unicode="&#x147;" horiz-adv-x="662" 
d="M24 722h10v11h77v-11h96v-11h11v-20h9v-22h12v-21h10v-10h11v-32h10v-22h10v-10h11v-21h10v-22h11v-21h11v-21h11v-11h10v-11h12v-21h9v-21h11v-21h11v-11h11v-21h9v-10h12v-21h10v-21h10v-12h11v-10h10v-22h20v214h-11v85h-11v21h-11v11h-41v11h-21v9h-22v84h11v11h235
v-11h11v-84h-11v-9h-21v-11h-21v-138h-10v-171h10v-286h-10v-10h-21v-11h-46v11h-10v10h-11v12h-11v19h-11v22h-10v21h-12v22h-9v20h-10v22h-12v33h-9v9h-11v32h-11v11h-11v22h-10v10h-11v21h-10v21h-12v21h-10v12h-11v20h-10v21h-11v22h-10v11h-10v21h-11v21h-11v21h-11v11
h-9v21h-20v-10h-11v-245h11v-96h11v-21h11v-12h32v-9h41v-11h11v-11h10v-84h-62v-10h-183v10h-22v21h-10v52h10v11h11v11h11v11h11v9h9v12h22v468h-10v11h-54v9h-10v95zM309 693l-1 4l-6 -3l-1 5l-90 151l7 3l-6 10l17 15v5l40 24v-6l3 -3l5 3l37 -61l-7 -4l15 -22
q4 7 5.5 9.5t8.5 13.5l-4 2t-3 1l35 55l8 4l2 3v5l40 -24l-1 -5l20 -12l-8 -13l7 -3l-90 -151h-1v-5l-15 8l1 2l-6 -5zM331 712l-2 -4z" />
    <glyph glyph-name="ncaron" unicode="&#x148;" 
d="M307 507h31v11h106v-11h11v-9h19v-11h22v-10h11v-9h9v-12h11v-21h10v-30h11v-291h10v-11h53v-10h19v-93h-19v-10h-97v10h-103v21h-10v52h10v9h11v11h9v10h11v11h10v124h9v52h-9v53h-10v21h-11v9h-9v12h-11v10h-21v11h-59v-11h-22v-10h-30v-12h-21v-9h-32v-21h-10v-93h-11
v-75h11v-61h10v-11h53v-10h21v-11h9v-9h10v-52h-10v-10h-9v-11h-210v11h-11v10h-10v52h10v20h11v10h20v11h10v271h-10v10h-73v11h-10v71h10v10h21v11h52v9h75v-9h11v-11h9v-19h29v9h11v10h21v11h41v9zM317 505l-1 4l-7 -3l-1 5l-87 147l6 3l-5 10l16 15v5l39 23v-6l3 -3l5 3
l36 -60l-6 -3l14 -22q4 8 5.5 9.5t8.5 12.5l-4 2t-3 1l34 55l8 3l2 3v5l39 -23l-1 -5l19 -12l-7 -13l7 -3l-88 -147h-1v-5l-7 4l-12 1z" />
    <glyph glyph-name="Omacron" unicode="&#x14c;" horiz-adv-x="628" 
d="M467 351h12v54h-12v64h-9v42h-11v10h-11v21h-11v22h-10v21h-10v11h-22v11h-20v11h-22v9h-32v12h-30v-12h-31v-9h-32v-11h-11v-11h-9v-11h-12v-21h-10v-22h-11v-21h-11v-31h-11v-43h-9v-149h9v-42h11v-31h11v-22h11v-22h10v-11h12v-10h9v-11h11v-10h22v-12h21v-9h31v-11
h19v11h42v9h21v12h22v10h11v11h10v21h10v11h11v21h11v21h11v42h9v75zM453 521l-6 20v-20h6zM412 596l-7 21v-21h7zM390 607l-7 20v-20h7zM369 618l-6 21v-21h6zM348 627l-7 21v-21h7zM315 639l-6 20v-20h6zM184 149v21h-6zM196 140v20h-7zM205 128v21h-6zM216 118v21h-6z
M238 107v20h-6zM259 97v21h-7zM290 86v21h-7zM234 743h31v12h47v-12h64v-10h42v-11h20v-11h11v-9h11v-11h21v-11h11v-21h10v-11h12v-10h9v-12h11v-20h11v-32h11v-21h9v-43h12v-52h10v-170h-10v-53h-12v-52h-9v-22h-11v-21h-11v-21h-11v-22h-9v-11h-22v-10h-11v-11h-10v-10
h-11v-12h-11v-10h-21v-9h-21v-12h-64v-10h-109v10h-42v12h-21v9h-22v10h-21v12h-10v10h-11v21h-10v11h-10v11h-11v20h-11v12h-11v32h-9v31h-12v42h-10v222h10v75h12v20h9v33h11v11h11v32h11v10h10v11h10v21h21v11h11v11h22v9h10v11h21v11h42v10zM59 837h31v11h120v-11h211
v11h96v-11h12v-11h10v-56h-10v-21h-43v-11h-416v11h-11v9h-10v68h10v11z" />
    <glyph glyph-name="omacron" unicode="&#x14d;" horiz-adv-x="584" 
d="M429 249h11v11h-11v42h-10v21h-11v9h-9v32h-10v9h-12v12h-9v10h-21v11h-21v10h-112v-10h-21v-11h-9v-10h-11v-12h-10v-9h-11v-21h-10v-31h-11v-41h-10v-33h10v-42h11v-10h10v-20h11v-10h10v-11h11v-10h9v-11h11v-10h21v-11h31v-10h50v10h30v11h21v10h20v11h12v10h10v21h9
v20h11v21h10v42zM414 332l-6 20v-20h6zM395 373l-6 21v-21h6zM384 385l-7 20v-20h7zM375 395l-7 20v-20h7zM353 406l-6 20v-20h6zM332 416l-6 20v-20h6zM142 166v20h-6zM163 136v20h-7zM173 124v21h-7zM184 114v21h-7zM193 103v21h-6zM204 94v20h-6zM225 83v20h-6zM256 73
v20h-7zM191 518h43v10h84v-10h52v-11h31v-9h31v-11h10v-10h11v-9h9v-12h11v-10h10v-21h12v-11h10v-20h11v-21h9v-52h11v-113h-11v-32h-9v-51h-11v-21h-10v-10h-12v-11h-10v-9h-11v-11h-9v-10h-21v-12h-11v-9h-9v-11h-22v-10h-20v-11h-42v-10h-116v10h-32v11h-30v10h-21v11
h-11v9h-21v12h-9v10h-10v11h-11v20h-10v21h-12v31h-9v21h-11v175h11v31h9v21h12v20h10v11h11v21h10v10h20v12h10v9h11v10h21v11h21v9h20v11zM58 625h31v11h117v-11h206v11h95v-11h11v-10h10v-55h-10v-21h-42v-11h-407v11h-11v10h-10v66h10v10z" />
    <glyph glyph-name="Ohungarumlaut" unicode="&#x150;" horiz-adv-x="628" 
d="M467 351h12v54h-12v64h-9v42h-11v10h-11v21h-11v22h-10v21h-10v11h-22v11h-20v11h-22v9h-32v12h-30v-12h-31v-9h-32v-11h-11v-11h-9v-11h-12v-21h-10v-22h-11v-21h-11v-31h-11v-43h-9v-149h9v-42h11v-31h11v-22h11v-22h10v-11h12v-10h9v-11h11v-10h22v-12h21v-9h31v-11
h19v11h42v9h21v12h22v10h11v11h10v21h10v11h11v21h11v21h11v42h9v75zM453 521l-6 20v-20h6zM412 596l-7 21v-21h7zM390 607l-7 20v-20h7zM369 618l-6 21v-21h6zM348 627l-7 21v-21h7zM315 639l-6 20v-20h6zM184 149v21h-6zM196 140v20h-7zM205 128v21h-6zM216 118v21h-6z
M238 107v20h-6zM259 97v21h-7zM290 86v21h-7zM234 743h31v12h47v-12h64v-10h42v-11h20v-11h11v-9h11v-11h21v-11h11v-21h10v-11h12v-10h9v-12h11v-20h11v-32h11v-21h9v-43h12v-52h10v-170h-10v-53h-12v-52h-9v-22h-11v-21h-11v-21h-11v-22h-9v-11h-22v-10h-11v-11h-10v-10
h-11v-12h-11v-10h-21v-9h-21v-12h-64v-10h-109v10h-42v12h-21v9h-22v10h-21v12h-10v10h-11v21h-10v11h-10v11h-11v20h-11v12h-11v32h-9v31h-12v42h-10v222h10v75h12v20h9v33h11v11h11v32h11v10h10v11h10v21h21v11h11v11h22v9h10v11h21v11h42v10zM131 805l4 3l-5 11l14 8
l-4 9l69 39l4 -7l55 33q-2 4 -2 5q-1 1 -1 2l56 33l4 -6l6 4l3 -8l6 3l35 -60l-5 -4l12 -19l-23 -11q5 -8 5 -9l-176 -104l-4 8l-5 -3l-4 7l-6 -2zM325 805l5 3l-6 11l14 8l-4 9l69 39l4 -7l56 33q-2 4 -3 5t-1 2l56 33l4 -6l6 4l4 -8l5 3l35 -60l-4 -4l11 -19l-23 -11
q5 -8 5 -9l-176 -104l-3 8l-6 -3l-4 7l-5 -2z" />
    <glyph glyph-name="ohungarumlaut" unicode="&#x151;" horiz-adv-x="584" 
d="M429 249h11v11h-11v42h-10v21h-11v9h-9v32h-10v9h-11v12h-10v10h-21v11h-21v10h-112v-10h-21v-11h-9v-10h-11v-12h-10v-9h-11v-21h-10v-31h-11v-41h-10v-33h10v-42h11v-10h10v-20h11v-10h10v-11h11v-10h9v-11h11v-10h21v-11h31v-10h50v10h30v11h21v10h21v11h11v10h10v21
h9v20h11v21h10v42zM414 332l-6 20v-20h6zM395 373l-6 21v-21h6zM384 385l-6 20v-20h6zM375 395l-7 20v-20h7zM354 406l-7 20v-20h7zM332 416l-6 20v-20h6zM142 166v20h-6zM163 136v20h-7zM173 124v21h-7zM184 114v21h-7zM193 103v21h-6zM204 94v20h-6zM225 83v20h-6zM256 73
v20h-7zM191 518h43v10h85v-10h51v-11h32v-9h30v-11h10v-10h11v-9h9v-12h11v-10h11v-21h11v-11h10v-20h11v-21h9v-52h11v-113h-11v-32h-9v-51h-11v-21h-10v-10h-11v-11h-11v-9h-11v-11h-9v-10h-21v-12h-11v-9h-9v-11h-22v-10h-20v-11h-42v-10h-116v10h-32v11h-30v10h-21v11
h-11v9h-21v12h-9v10h-10v11h-11v20h-10v21h-11v31h-10v21h-11v175h11v31h10v21h11v20h10v11h11v21h10v10h20v12h10v9h11v10h21v11h21v9h20v11zM106 574l4 4l-5 10l13 9l-3 8l67 39l4 -8l54 33q-4 6 -4 7l56 32l3 -6l6 3l4 -7l5 3l34 -59l-4 -4l11 -18l-22 -11q4 -10 4 -9
l-171 -101l-4 7l-5 -3l-4 7l-6 -2zM295 574l5 4l-5 10l13 9l-3 8l67 39l4 -8l54 33q-4 6 -4 7l56 32l3 -6l6 3l4 -7l5 3l34 -59l-4 -4l11 -18l-22 -11q4 -10 4 -9l-171 -101l-4 7l-6 -3l-3 7l-6 -2z" />
    <glyph glyph-name="OE" unicode="&#x152;" horiz-adv-x="1008" 
d="M381 734h4v11h531v-11h12v-32h11v-85h-11v-56h-12v-32h-9v-11h-59v21h-11v60q-3 2 -4.5 4t-3.5 2l-2 12h-23v10h-65v12h-153v-12h-10v-117h6v-52h11v-9h100v23h12v21h11v33h11v11h36v-11h11v-22h11v-52h-11v-198h-47v15q-6 6 -8 6l-3 13h-11v25l-4.5 4.5t-4.5 2.5l-3 12
h-9v10h-33v11h-58v-65h-11v-53h-11v-52h-8v-41h13v-21h10v-13h186v13h44v9h21v12h11v22h12v44h11v33h11v10h46v-10h11v-22h12v-194h-12v-13h-11v-10h-21v-11h-36v11h-464v10h-59v-10h-108v10h-43v12h-20v9h-22v10h-22v12h-9v10h-12v21h-10v11h-9v11h-12v20h-10v12h-11v32
h-10v31h-11v42h-11v222h11v75h11v20h10v33h11v11h10v32h12v10h9v11h10v21h21v11h11v11h22v9h11v11h20v11h43v10h31v12h46v-12h64v-9zM584 452l-2 2zM473 469h-10v42h-11v10h-10v21h-12v22h-10v21h-10v11h-21v11h-21v11h-22v9h-32v12h-30v-12h-31v-9h-31v-11h-12v-11h-9v-11
h-11v-21h-11v-22h-11v-21h-10v-31h-12v-43h-9v-149h9v-42h12v-31h10v-22h11v-22h11v-11h11v-10h9v-11h12v-10h22v-12h20v-9h31v-11h19v11h43v9h20v12h22v10h11v11h10v21h10v11h12v21h10v21h11v42h10v193zM459 521l-7 20v-20h7zM417 596l-7 21v-21h7zM395 607l-6 20v-20h6z
M375 618l-7 21v-21h7zM353 627l-7 21v-21h7zM321 639l-7 20v-20h7zM190 149v21h-7zM201 140v20h-7zM210 128v21h-6zM222 118v21h-7zM244 107v20h-7zM264 97v21h-6zM295 86v21h-6z" />
    <glyph glyph-name="oe" unicode="&#x153;" horiz-adv-x="1016" 
d="M598 515h21v11h158v-11h20v-10h21v-10h11v-11h20v-10h11v-10h9v-10h11v-22h10v-11h11v-20h10v-30h12v-125h-12v-9h-31v-11h-269v-10h-53v-22h11v-21h11v-10h11v-11h9v-10h21v-11h21v-9h42v-11h70v11h62v9h31v11h30v10h55v-10h11v-72h-11v-10h-9v-11h-22v-9h-21v-11h-41
v-11h-42v-11h-52v-10h-116v10h-42v11h-31v11h-20v11h-11v9h-10v11h-20v10h-10v13h-3v-9h-11v-11h-10v-10h-21v-12h-11v-9h-9v-11h-21v-10h-21v-11h-42v-10h-115v10h-32v11h-31v10h-20v11h-11v9h-21v12h-10v10h-10v11h-11v20h-10v21h-11v31h-9v21h-11v175h11v31h9v21h11v20
h10v11h11v21h10v10h21v12h10v9h11v10h20v11h21v9h21v11h42v10h85v-10h51v-11h32v-9h30v-11h10v-10h11v-9h10v-12h11v-10h10v-21h3v7h11v11h9v21h10v10h11v10h20v11h22v10h20v10zM438 249h5v11h-5v42h-11v21h-11v9h-9v32h-10v9h-11v12h-9v10h-22v11h-21v10h-111v-10h-22v-11
h-9v-10h-11v-12h-10v-9h-11v-21h-9v-31h-11v-41h-10v-33h10v-42h11v-10h9v-20h11v-10h10v-11h11v-10h9v-11h12v-10h21v-11h30v-10h50v10h30v11h22v10h20v11h11v10h10v21h9v20h11v21h11v42zM449 249h-6v-20zM423 332l-7 20v-20h7zM403 373l-6 21v-21h6zM392 385l-6 20v-20h6z
M383 395l-6 20v-20h6zM362 406l-7 20v-20h7zM341 416l-7 20v-20h7zM151 166v20h-7zM171 136v20h-6zM181 124v21h-6zM192 114v21h-6zM201 103v21h-6zM213 94v20h-7zM234 83v20h-7zM264 73v20h-6zM816 350h-11v11h-10v11h-11v20h-20v10h-10v11h-32v10h-69v-10h-21v-11h-11v-10
h-10v-11h-11v-9h-9v-11h-11v-11h-11v-20h-11v-11h154v9h93v11h11v11zM816 330h16l-4 15l4 15h-16v-30zM760 413l-6 20v-20h6zM728 423l-6 21v-21h6zM802 372l-7 20v-20h7zM770 402l-6 20v-20h6zM812 361l-7 20v-20h7z" />
    <glyph glyph-name="Racute" unicode="&#x154;" horiz-adv-x="720" 
d="M431 512h10v35h-10v33h-10v11h-12v11h-22v12h-11v11h-44v11h-97v-11h-11v-23h-11v-168h11v-10h141v10h22v12h12v11h10v11h12v10h10v34zM427 591l-6 21v-21h6zM416 602l-7 21v-21h7zM393 614l-6 21v-21h6zM383 625l-7 20v-20h7zM338 636l-6 21v-21h6zM224 403v21h-6z
M35 732h11v10h78v-10h9v10h47v-10h86v10h57v-10h111v-11h32v-11h10v-10h12v-12h11v-11h11v-11h11v-10h12v-23h10v-44h12v-118h-12v-34h-10v-22h-12v-10h-11v-23h-22v-11h-12v-11h-21v-12h-21v-10h-22v-3h10v-10h12v-12h10v-10h11v-11h11v-12h10v-22h12v-11h11v-10h11v-23h11
v-22h12v-10h10v-23h12v-21h10v-23h23v-11h21v-11h55v-12h11v-73h-11v-23h-157v12h-10v11h-11v10h-11v22h-12v12h-10v22h-12v15q-5 5 -7 5l-3 13h-10v25l-4.5 4.5t-4.5 2.5l-3 12h-10v25q-2 2 -5 4.5t-5 2.5l-2 12h-11v22h-11v22h-23v11h-10v22h-11v11h-11v10h-22v13h-12v10
h-52v-10h-11v-191h11v-11h23v-11h64v-12h23v-73h-11v-11h-267v11h-10v73h10v12h13v11h32v11h21v499h-11v11h-10v11h-9v-11h-23v11h-34v10h-11v75h11v11zM214 804l5 4l-6 10l14 8l-4 9l69 40l4 -8l56 33l-4 8l57 33l3 -7l6 4l4 -8l5 3l35 -60l-4 -4l11 -19l-23 -11q5 -8 5 -9
l-175 -104l-4 8l-6 -3l-4 7l-5 -2z" />
    <glyph glyph-name="racute" unicode="&#x155;" horiz-adv-x="606" 
d="M389 521h41v9h44v-9h41v-11h21v-10h10v-11h11v-92h-11v-10h-10v-11h-106v11h-70v-11h-21v-10h-20v-11h-11v-10h-10v-11h-11v-9h-11v-11h-11v-11h-9v-177h9v-10h11v-11h156v-10h10v-20h11v-52h-11v-10h-10v-11h-345v11h-9v10h-11v72h11v10h51v11h21v10h10v21h11v126h-11
v114h-10v10h-21v11h-19v-11h-51v-10h-22v21h-11v81h11v11h61v10h62v11h66v-21h9v-11h11v-31h10v-21h8v11h21v10h10v11h11v10h20v10h21v11h21v10h21v11zM228 572l5 3l-5 11l13 8l-3 8l67 39l4 -8l54 33q-4 6 -4 7l56 32l3 -6l6 4l4 -8l5 3l34 -59l-4 -4l11 -18l-22 -11
q1 -5 3 -6q1 -1 1 -2l-171 -102l-4 7l-5 -2l-4 6l-6 -2z" />
    <glyph glyph-name="Rcommaaccent" unicode="&#x156;" horiz-adv-x="720" 
d="M310 -198h-17v5h-5v5h-5v69h5v27h5v54h6v33h6v5h5v6h40v-6h5v-5h6v-87h5v-33h6v-57h-6v-11h-11v-5h-16v-7h-29v7zM431 512h10v35h-10v33h-10v11h-12v11h-22v12h-11v11h-44v11h-97v-11h-11v-23h-11v-168h11v-10h141v10h22v12h12v11h10v11h12v10h10v34zM427 591l-6 21v-21
h6zM416 602l-7 21v-21h7zM393 614l-6 21v-21h6zM383 625l-7 20v-20h7zM338 636l-6 21v-21h6zM224 403v21h-6zM35 732h11v10h78v-10h9v10h47v-10h86v10h57v-10h111v-11h32v-11h10v-10h12v-12h11v-11h11v-11h11v-10h12v-23h10v-44h12v-118h-12v-34h-10v-22h-12v-10h-11v-23
h-22v-11h-12v-11h-21v-12h-21v-10h-22v-3h10v-10h12v-12h10v-10h11v-11h11v-12h10v-22h12v-11h11v-10h11v-23h11v-22h12v-10h10v-23h12v-21h10v-23h23v-11h21v-11h55v-12h11v-73h-11v-23h-157v12h-10v11h-11v10h-11v22h-12v12h-10v22h-12v15q-5 5 -7 5l-3 13h-10v25
l-4.5 4.5t-4.5 2.5l-3 12h-10v25q-2 2 -5 4.5t-5 2.5l-2 12h-11v22h-11v22h-23v11h-10v22h-11v11h-11v10h-22v13h-12v10h-52v-10h-11v-191h11v-11h23v-11h64v-12h23v-73h-11v-11h-267v11h-10v73h10v12h13v11h32v11h21v499h-11v11h-10v11h-9v-11h-23v11h-34v10h-11v75h11v11z
" />
    <glyph glyph-name="rcommaaccent" unicode="&#x157;" horiz-adv-x="606" 
d="M213 -194h-17v5h-4v5h-6v68h6v27h4v52h6v32h5v5h6v6h39v-6h5v-5h6v-84h4v-33h6v-56h-6v-11h-10v-5h-16v-6h-28v6zM389 521h41v9h44v-9h41v-11h21v-10h10v-11h11v-92h-11v-10h-10v-11h-106v11h-70v-11h-21v-10h-20v-11h-11v-10h-10v-11h-11v-9h-11v-11h-11v-11h-9v-177h9
v-10h11v-11h156v-10h10v-20h11v-52h-11v-10h-10v-11h-345v11h-9v10h-11v72h11v10h51v11h21v10h10v21h11v126h-11v114h-10v10h-21v11h-19v-11h-51v-10h-22v21h-11v81h11v11h61v10h62v11h66v-21h9v-11h11v-31h10v-21h8v11h21v10h10v11h11v10h20v10h21v11h21v10h21v11z" />
    <glyph glyph-name="Rcaron" unicode="&#x158;" horiz-adv-x="720" 
d="M431 512h10v35h-10v33h-10v11h-12v11h-22v12h-11v11h-44v11h-97v-11h-11v-23h-11v-168h11v-10h141v10h22v12h12v11h10v11h12v10h10v34zM427 591l-6 21v-21h6zM416 602l-7 21v-21h7zM393 614l-6 21v-21h6zM383 625l-7 20v-20h7zM338 636l-6 21v-21h6zM224 403v21h-6z
M35 732h11v10h78v-10h9v10h47v-10h86v10h57v-10h111v-11h32v-11h10v-10h12v-12h11v-11h11v-11h11v-10h12v-23h10v-44h12v-118h-12v-34h-10v-22h-12v-10h-11v-23h-22v-11h-12v-11h-21v-12h-21v-10h-22v-3h10v-10h12v-12h10v-10h11v-11h11v-12h10v-22h12v-11h11v-10h11v-23h11
v-22h12v-10h10v-23h12v-21h10v-23h23v-11h21v-11h55v-12h11v-73h-11v-23h-157v12h-10v11h-11v10h-11v22h-12v12h-10v22h-12v15q-5 5 -7 5l-3 13h-10v25l-4.5 4.5t-4.5 2.5l-3 12h-10v25q-2 2 -5 4.5t-5 2.5l-2 12h-11v22h-11v22h-23v11h-10v22h-11v11h-11v10h-22v13h-12v10
h-52v-10h-11v-191h11v-11h23v-11h64v-12h23v-73h-11v-11h-267v11h-10v73h10v12h13v11h32v11h21v499h-11v11h-10v11h-9v-11h-23v11h-34v10h-11v75h11v11zM290 728l-1 4l-6 -3l-1 5l-90 151l7 3l-6 10l17 15v5l40 23v-5l3 -3l5 3l37 -61l-7 -4l15 -22q4 7 5.5 9.5t8.5 13.5
l-4 2t-3 1l35 55l8 4l2 3v4l40 -23l-1 -5l20 -12l-8 -13l7 -3l-90 -151h-1v-5l-7 4l-12 1z" />
    <glyph glyph-name="rcaron" unicode="&#x159;" horiz-adv-x="606" 
d="M389 521h41v9h44v-9h41v-11h21v-10h10v-11h11v-92h-11v-10h-10v-11h-106v11h-70v-11h-21v-10h-20v-11h-11v-10h-10v-11h-11v-9h-11v-11h-11v-11h-9v-177h9v-10h11v-11h156v-10h10v-20h11v-52h-11v-10h-10v-11h-345v11h-9v10h-11v72h11v10h51v11h21v10h10v21h11v126h-11
v114h-10v10h-21v11h-19v-11h-51v-10h-22v21h-11v81h11v11h61v10h62v11h66v-21h9v-11h11v-31h10v-21h8v11h21v10h10v11h11v10h20v10h21v11h21v10h21v11zM285 503l-1 4l-7 -3l-1 5l-87 148l6 2l-5 10l16 15v5l39 23v-6l3 -2l5 2l36 -60l-6 -3l14 -21q4 7 5.5 9t8.5 13
q-4 2 -7 2l34 55l8 4l2 2v5l39 -23l-1 -5l20 -12l-8 -13l7 -2l-88 -148h-1v-5l-7 4l-12 1z" />
    <glyph glyph-name="Sacute" unicode="&#x15a;" horiz-adv-x="558" 
d="M177 742h32v13h168v-13h99v-10h10v-32h12v-164h-12v-22h-10v-10h-22v-11h-25v11h-22v21h-10v55h-13v16q-6 6 -7 6l-3 12h-22v11h-10v11h-44v10h-76v-10h-32v-11h-11v-11h-11v-12h-12v-11h-10v-21h-12v-35h12v-23h10v-21h12v-13h11v-10h33v-11h33v-11h21v-12h45v-10h54
v-12h22v-10h23v-12h21v-11h11v-10h12v-11h10v-11h12v-12h10v-10h12v-33h11v-34h11v-107h-11v-33h-11v-22h-12v-22h-10v-12h-12v-10h-10v-12h-12v-11h-11v-11h-21v-10h-23v-11h-32v-12h-200v12h-43v-12h-58v12h-21v21h-11v196h11v23h11v10h57v-22h11v-33h12v-33h10v-21h12
v-13h10v-10h23v-11h21v-11h120v11h22v11h22v10h10v13h10v10h13v11h10v73q-3 2 -4.5 4t-3.5 2l-2 12h-13v11h-10v11h-10v11h-22v10h-34v13h-32v10h-34v11h-55v11h-32v10h-23v12h-11v11h-23v11h-21v15q-6 6 -8 6l-3 12h-12v16q-6 6 -7 6l-3 12h-11v32h-11v86h11v44h11v22h10
v23h12v21h11v11h21v12h13v10h10v11h22v11h34v10zM232 801l5 4l-6 10l15 9l-4 8l69 40l3 -8l56 33l-4 8l57 33l4 -7l5 4l4 -8l6 3l35 -60l-5 -4l11 -19l-22 -11q4 -7 4 -9l-175 -103l-4 7l-5 -3l-4 7l-6 -2z" />
    <glyph glyph-name="sacute" unicode="&#x15b;" horiz-adv-x="504" 
d="M158 521h62v9h65v-9h41v-11h84v-10h9v-11h11v-41h10v-93h-10v-30h-20v-11h-24v11h-31v20h-11v21h-10v31h-10v11h-31v10h-102v-10h-20v-11h-10v-10h-11v-33h11v-10h10v-11h31v-9h73v-10h62v-12h31v-10h21v-11h21v-9h9v-11h11v-10h10v-11h12v-31h9v-112h-9v-11h-12v-10h-10
v-22h-11v-10h-9v-10h-21v-11h-11v-10h-21v-11h-61v-9h-107v9h-124v11h-11v10h-10v11h-11v42h-9v101h9v21h11v11h54v-11h10v-10h12v-30h10v-21h11v-11h9v-10h21v-11h20v-10h102v10h20v11h21v10h10v21h11v22h-11v10h-20v11h-31v9h-42v11h-82v10h-32v11h-20v10h-21v11h-11v10
h-11v11h-9v19h-11v22h-10v93h10v30h11v11h9v10h11v11h11v10h11v10h10v11h20v10h21v11zM176 582l4 4l-5 10l14 8l-4 8l67 39l4 -7l54 32q-1 3 -2 4.5t-1 2.5l55 33l4 -7l5 4l4 -8l6 3l34 -59l-5 -4l11 -18l-22 -11l5 -8l-172 -102l-4 8l-5 -3l-4 6l-5 -2z" />
    </font>
</defs>
</svg>
